Asap-Regular.ufo
<glyph name="exclam" format="2">
  <advance width="294"/>
  <unicode hex="0021"/>
  <outline>
    <contour>
      <point x="141" y="202" type="curve" smooth="yes"/>
      <point x="152" y="202" type="line" smooth="yes"/>
      <point x="173" y="202"/>
      <point x="182" y="210"/>
      <point x="183" y="224" type="curve" smooth="yes"/>
      <point x="194" y="376"/>
      <point x="201" y="528"/>
      <point x="210" y="680" type="curve"/>
      <point x="210" y="694"/>
      <point x="199" y="702"/>
      <point x="171" y="702" type="curve" smooth="yes"/>
      <point x="151" y="702" type="line" smooth="yes"/>
      <point x="123" y="702"/>
      <point x="111" y="694"/>
      <point x="111" y="680" type="curve" smooth="yes"/>
      <point x="111" y="224" type="line" smooth="yes"/>
      <point x="111" y="210"/>
      <point x="120" y="202"/>
    </contour>
    <contour>
      <point x="139" y="-2" type="curve" smooth="yes"/>
      <point x="156" y="-2" type="line" smooth="yes"/>
      <point x="184" y="-2"/>
      <point x="196" y="6"/>
      <point x="196" y="20" type="curve" smooth="yes"/>
      <point x="196" y="86" type="line" smooth="yes"/>
      <point x="196" y="100"/>
      <point x="184" y="108"/>
      <point x="156" y="108" type="curve" smooth="yes"/>
      <point x="139" y="108" type="line" smooth="yes"/>
      <point x="111" y="108"/>
      <point x="99" y="100"/>
      <point x="99" y="86" type="curve" smooth="yes"/>
      <point x="99" y="20" type="line" smooth="yes"/>
      <point x="99" y="6"/>
      <point x="111" y="-2"/>
    </contour>
  </outline>
</glyph>
<glyph name="numbersign" format="2">
  <advance width="534"/>
  <unicode hex="0023"/>
  <outline>
    <contour>
      <point x="106" y="-2" type="curve" smooth="yes"/>
      <point x="110" y="-2" type="line" smooth="yes"/>
      <point x="146" y="-2"/>
      <point x="150" y="6"/>
      <point x="153" y="20" type="curve" smooth="yes"/>
      <point x="185" y="196" type="line"/>
      <point x="303" y="196" type="line"/>
      <point x="276" y="47"/>
      <point x="271" y="22"/>
      <point x="271" y="15" type="curve" smooth="yes"/>
      <point x="271" y="2"/>
      <point x="280" y="-2"/>
      <point x="299" y="-2" type="curve" smooth="yes"/>
      <point x="303" y="-2" type="line" smooth="yes"/>
      <point x="337" y="-2"/>
      <point x="344" y="6"/>
      <point x="346" y="20" type="curve" smooth="yes"/>
      <point x="377" y="196" type="line"/>
      <point x="469" y="196" type="line" smooth="yes"/>
      <point x="483" y="196"/>
      <point x="489" y="205"/>
      <point x="489" y="226" type="curve" smooth="yes"/>
      <point x="489" y="243" type="line" smooth="yes"/>
      <point x="489" y="264"/>
      <point x="483" y="273"/>
      <point x="469" y="273" type="curve" smooth="yes"/>
      <point x="393" y="273" type="line"/>
      <point x="418" y="420" type="line"/>
      <point x="501" y="420" type="line" smooth="yes"/>
      <point x="515" y="420"/>
      <point x="521" y="429"/>
      <point x="521" y="450" type="curve" smooth="yes"/>
      <point x="521" y="467" type="line" smooth="yes"/>
      <point x="521" y="488"/>
      <point x="515" y="497"/>
      <point x="501" y="497" type="curve" smooth="yes"/>
      <point x="433" y="497" type="line"/>
      <point x="464" y="671" type="line"/>
      <point x="464" y="680"/>
      <point x="455" y="686"/>
      <point x="436" y="686" type="curve" smooth="yes"/>
      <point x="431" y="686" type="line" smooth="yes"/>
      <point x="393" y="686"/>
      <point x="390" y="678"/>
      <point x="387" y="664" type="curve" smooth="yes"/>
      <point x="357" y="497" type="line"/>
      <point x="238" y="497" type="line"/>
      <point x="271" y="671" type="line"/>
      <point x="271" y="680"/>
      <point x="262" y="686"/>
      <point x="243" y="686" type="curve" smooth="yes"/>
      <point x="239" y="686" type="line" smooth="yes"/>
      <point x="201" y="686"/>
      <point x="198" y="678"/>
      <point x="195" y="664" type="curve" smooth="yes"/>
      <point x="164" y="497" type="line"/>
      <point x="70" y="497" type="line" smooth="yes"/>
      <point x="56" y="497"/>
      <point x="50" y="488"/>
      <point x="50" y="467" type="curve" smooth="yes"/>
      <point x="50" y="450" type="line" smooth="yes"/>
      <point x="50" y="429"/>
      <point x="56" y="420"/>
      <point x="70" y="420" type="curve" smooth="yes"/>
      <point x="151" y="420" type="line"/>
      <point x="125" y="273" type="line"/>
      <point x="34" y="273" type="line" smooth="yes"/>
      <point x="20" y="273"/>
      <point x="14" y="264"/>
      <point x="14" y="243" type="curve" smooth="yes"/>
      <point x="14" y="226" type="line" smooth="yes"/>
      <point x="14" y="205"/>
      <point x="20" y="196"/>
      <point x="34" y="196" type="curve" smooth="yes"/>
      <point x="110" y="196" type="line"/>
      <point x="83" y="47"/>
      <point x="78" y="22"/>
      <point x="78" y="15" type="curve" smooth="yes"/>
      <point x="78" y="2"/>
      <point x="87" y="-2"/>
    </contour>
    <contour>
      <point x="200" y="273" type="line"/>
      <point x="226" y="420" type="line"/>
      <point x="344" y="420" type="line"/>
      <point x="318" y="273" type="line"/>
    </contour>
  </outline>
</glyph>
<glyph name="quotesingle" format="2">
  <advance width="192"/>
  <unicode hex="0027"/>
  <outline>
    <contour>
      <point x="95" y="472" type="curve" smooth="yes"/>
      <point x="96" y="472" type="line" smooth="yes"/>
      <point x="109" y="472"/>
      <point x="117" y="476"/>
      <point x="118" y="484" type="curve" smooth="yes"/>
      <point x="141" y="680" type="line" smooth="yes"/>
      <point x="143" y="694"/>
      <point x="129" y="702"/>
      <point x="101" y="702" type="curve" smooth="yes"/>
      <point x="91" y="702" type="line" smooth="yes"/>
      <point x="63" y="702"/>
      <point x="49" y="694"/>
      <point x="51" y="680" type="curve" smooth="yes"/>
      <point x="73" y="484" type="line" smooth="yes"/>
      <point x="74" y="476"/>
      <point x="82" y="472"/>
    </contour>
  </outline>
</glyph>
<glyph name="parenleft" format="2">
  <advance width="301"/>
  <unicode hex="0028"/>
  <outline>
    <contour>
      <point x="261" y="-212" type="curve" smooth="yes"/>
      <point x="276" y="-212"/>
      <point x="289" y="-194"/>
      <point x="289" y="-184" type="curve" smooth="yes"/>
      <point x="289" y="-178"/>
      <point x="286" y="-171"/>
      <point x="280" y="-164" type="curve" smooth="yes"/>
      <point x="190.5" y="-59"/>
      <point x="136" y="104"/>
      <point x="136" y="286" type="curve" smooth="yes"/>
      <point x="136" y="468"/>
      <point x="192" y="631"/>
      <point x="281" y="736" type="curve" smooth="yes"/>
      <point x="287.5" y="744"/>
      <point x="290" y="751"/>
      <point x="290" y="758" type="curve" smooth="yes"/>
      <point x="290" y="772"/>
      <point x="272" y="783"/>
      <point x="260" y="783" type="curve" smooth="yes"/>
      <point x="253" y="783"/>
      <point x="246" y="780"/>
      <point x="239" y="773" type="curve" smooth="yes"/>
      <point x="131" y="668"/>
      <point x="55" y="491"/>
      <point x="55" y="286" type="curve" smooth="yes"/>
      <point x="55" y="81"/>
      <point x="128" y="-99"/>
      <point x="239" y="-201" type="curve" smooth="yes"/>
      <point x="246" y="-208"/>
      <point x="254" y="-212"/>
    </contour>
  </outline>
</glyph>
<glyph name="parenright" format="2">
  <advance width="301"/>
  <unicode hex="0029"/>
  <outline>
    <contour>
      <point x="41" y="-211" type="curve" smooth="yes"/>
      <point x="48" y="-211"/>
      <point x="55" y="-208"/>
      <point x="62" y="-201" type="curve" smooth="yes"/>
      <point x="170" y="-96"/>
      <point x="246" y="81"/>
      <point x="246" y="286" type="curve" smooth="yes"/>
      <point x="246" y="491"/>
      <point x="173" y="671"/>
      <point x="62" y="773" type="curve" smooth="yes"/>
      <point x="55" y="780"/>
      <point x="47" y="784"/>
      <point x="40" y="784" type="curve" smooth="yes"/>
      <point x="25" y="784"/>
      <point x="12" y="766"/>
      <point x="12" y="756" type="curve" smooth="yes"/>
      <point x="12" y="750"/>
      <point x="15" y="743"/>
      <point x="21" y="736" type="curve" smooth="yes"/>
      <point x="110.5" y="631"/>
      <point x="165" y="468"/>
      <point x="165" y="286" type="curve" smooth="yes"/>
      <point x="165" y="100"/>
      <point x="107" y="-65"/>
      <point x="16" y="-170" type="curve" smooth="yes"/>
      <point x="12" y="-175"/>
      <point x="9" y="-180"/>
      <point x="9" y="-185" type="curve" smooth="yes"/>
      <point x="9" y="-197"/>
      <point x="27" y="-211"/>
    </contour>
  </outline>
</glyph>
<glyph name="asterisk" format="2">
  <advance width="373"/>
  <unicode hex="002A"/>
  <outline>
    <contour>
      <point x="99" y="414" type="curve" smooth="yes"/>
      <point x="104" y="414"/>
      <point x="110" y="417"/>
      <point x="114" y="423" type="curve" smooth="yes"/>
      <point x="187" y="524" type="line"/>
      <point x="260" y="423" type="line" smooth="yes"/>
      <point x="264" y="417"/>
      <point x="269" y="414"/>
      <point x="275" y="414" type="curve" smooth="yes"/>
      <point x="284" y="414"/>
      <point x="297" y="425"/>
      <point x="297" y="434" type="curve" smooth="yes"/>
      <point x="297" y="438"/>
      <point x="296" y="442"/>
      <point x="292" y="447" type="curve" smooth="yes"/>
      <point x="220" y="546" type="line"/>
      <point x="319" y="578" type="line" smooth="yes"/>
      <point x="329" y="581"/>
      <point x="333" y="586"/>
      <point x="333" y="594" type="curve" smooth="yes"/>
      <point x="333" y="609"/>
      <point x="323" y="617"/>
      <point x="315" y="617" type="curve" smooth="yes"/>
      <point x="312" y="617"/>
      <point x="309" y="617"/>
      <point x="306" y="616" type="curve" smooth="yes"/>
      <point x="207" y="584" type="line"/>
      <point x="207" y="689" type="line" smooth="yes"/>
      <point x="207" y="703"/>
      <point x="201" y="709"/>
      <point x="187" y="709" type="curve" smooth="yes"/>
      <point x="173" y="709"/>
      <point x="167" y="703"/>
      <point x="167" y="689" type="curve" smooth="yes"/>
      <point x="167" y="584" type="line"/>
      <point x="68" y="616" type="line" smooth="yes"/>
      <point x="65" y="617"/>
      <point x="62" y="617"/>
      <point x="59" y="617" type="curve" smooth="yes"/>
      <point x="50" y="617"/>
      <point x="41" y="608"/>
      <point x="41" y="593" type="curve" smooth="yes"/>
      <point x="41" y="586"/>
      <point x="45" y="581"/>
      <point x="55" y="578" type="curve" smooth="yes"/>
      <point x="153" y="546" type="line"/>
      <point x="82" y="447" type="line" smooth="yes"/>
      <point x="78" y="442"/>
      <point x="77" y="438"/>
      <point x="77" y="434" type="curve" smooth="yes"/>
      <point x="77" y="425"/>
      <point x="89" y="414"/>
    </contour>
  </outline>
</glyph>
<glyph name="plus" format="2">
  <advance width="560"/>
  <unicode hex="002B"/>
  <outline>
    <contour>
      <point x="277" y="-2" type="curve" smooth="yes"/>
      <point x="284" y="-2" type="line" smooth="yes"/>
      <point x="305" y="-2"/>
      <point x="314" y="4"/>
      <point x="314" y="18" type="curve" smooth="yes"/>
      <point x="314" y="197" type="line"/>
      <point x="490" y="197" type="line" smooth="yes"/>
      <point x="504" y="197"/>
      <point x="510" y="206"/>
      <point x="510" y="227" type="curve" smooth="yes"/>
      <point x="510" y="234" type="line" smooth="yes"/>
      <point x="510" y="255"/>
      <point x="504" y="264"/>
      <point x="490" y="264" type="curve" smooth="yes"/>
      <point x="314" y="264" type="line"/>
      <point x="314" y="443" type="line" smooth="yes"/>
      <point x="314" y="457"/>
      <point x="305" y="463"/>
      <point x="284" y="463" type="curve" smooth="yes"/>
      <point x="277" y="463" type="line" smooth="yes"/>
      <point x="256" y="463"/>
      <point x="247" y="457"/>
      <point x="247" y="443" type="curve" smooth="yes"/>
      <point x="247" y="264" type="line"/>
      <point x="70" y="264" type="line" smooth="yes"/>
      <point x="56" y="264"/>
      <point x="50" y="255"/>
      <point x="50" y="234" type="curve" smooth="yes"/>
      <point x="50" y="227" type="line" smooth="yes"/>
      <point x="50" y="206"/>
      <point x="56" y="197"/>
      <point x="70" y="197" type="curve" smooth="yes"/>
      <point x="247" y="197" type="line"/>
      <point x="247" y="18" type="line" smooth="yes"/>
      <point x="247" y="4"/>
      <point x="256" y="-2"/>
    </contour>
  </outline>
</glyph>
<glyph name="comma" format="2">
  <advance width="198"/>
  <unicode hex="002C"/>
  <outline>
    <contour>
      <point x="43" y="-116" type="curve" smooth="yes"/>
      <point x="76" y="-116"/>
      <point x="146" y="-40"/>
      <point x="146" y="80" type="curve" smooth="yes"/>
      <point x="146" y="97"/>
      <point x="131" y="108"/>
      <point x="106" y="108" type="curve" smooth="yes"/>
      <point x="97" y="108" type="line" smooth="yes"/>
      <point x="70" y="108"/>
      <point x="57" y="95"/>
      <point x="57" y="76" type="curve" smooth="yes"/>
      <point x="57" y="14"/>
      <point x="45" y="-33"/>
      <point x="23" y="-77" type="curve" smooth="yes"/>
      <point x="19" y="-85"/>
      <point x="14" y="-95"/>
      <point x="14" y="-101" type="curve" smooth="yes"/>
      <point x="14" y="-113"/>
      <point x="32" y="-116"/>
    </contour>
  </outline>
</glyph>
<glyph name="hyphen" format="2">
  <advance width="320"/>
  <unicode hex="002D"/>
  <outline>
    <contour>
      <point x="65" y="230" type="curve"/>
      <point x="255" y="230" type="line" smooth="yes"/>
      <point x="269" y="230"/>
      <point x="275" y="239"/>
      <point x="275" y="260" type="curve" smooth="yes"/>
      <point x="275" y="270" type="line" smooth="yes"/>
      <point x="275" y="291"/>
      <point x="269" y="300"/>
      <point x="255" y="300" type="curve" smooth="yes"/>
      <point x="65" y="300" type="line" smooth="yes"/>
      <point x="51" y="300"/>
      <point x="45" y="291"/>
      <point x="45" y="270" type="curve" smooth="yes"/>
      <point x="45" y="260" type="line" smooth="yes"/>
      <point x="45" y="239"/>
      <point x="51" y="230"/>
    </contour>
  </outline>
</glyph>
<glyph name="period" format="2">
  <advance width="198"/>
  <unicode hex="002E"/>
  <outline>
    <contour>
      <point x="91" y="-2" type="curve" smooth="yes"/>
      <point x="108" y="-2" type="line" smooth="yes"/>
      <point x="136" y="-2"/>
      <point x="148" y="6"/>
      <point x="148" y="20" type="curve" smooth="yes"/>
      <point x="148" y="86" type="line" smooth="yes"/>
      <point x="148" y="100"/>
      <point x="136" y="108"/>
      <point x="108" y="108" type="curve" smooth="yes"/>
      <point x="91" y="108" type="line" smooth="yes"/>
      <point x="63" y="108"/>
      <point x="51" y="100"/>
      <point x="51" y="86" type="curve" smooth="yes"/>
      <point x="51" y="20" type="line" smooth="yes"/>
      <point x="51" y="6"/>
      <point x="63" y="-2"/>
    </contour>
  </outline>
</glyph>
<glyph name="slash" format="2">
  <advance width="422"/>
  <unicode hex="002F"/>
  <outline>
    <contour>
      <point x="52" y="-76" type="curve" smooth="yes"/>
      <point x="56" y="-76" type="line" smooth="yes"/>
      <point x="73" y="-76"/>
      <point x="82" y="-73"/>
      <point x="87" y="-61" type="curve" smooth="yes"/>
      <point x="384" y="651" type="line" smooth="yes"/>
      <point x="391" y="667"/>
      <point x="396" y="682"/>
      <point x="396" y="687" type="curve" smooth="yes"/>
      <point x="396" y="698"/>
      <point x="392" y="703"/>
      <point x="374" y="703" type="curve" smooth="yes"/>
      <point x="370" y="703" type="line" smooth="yes"/>
      <point x="349" y="703"/>
      <point x="340" y="699"/>
      <point x="332" y="679" type="curve" smooth="yes"/>
      <point x="35" y="-33" type="line" smooth="yes"/>
      <point x="31" y="-43"/>
      <point x="26" y="-54"/>
      <point x="26" y="-61" type="curve" smooth="yes"/>
      <point x="26" y="-73"/>
      <point x="35" y="-76"/>
    </contour>
  </outline>
</glyph>
<glyph name="zero" format="2">
  <advance width="535"/>
  <unicode hex="0030"/>
  <outline>
    <contour>
      <point x="267" y="-6" type="curve" smooth="yes"/>
      <point x="388" y="-6"/>
      <point x="496" y="101"/>
      <point x="496" y="350" type="curve" smooth="yes"/>
      <point x="496" y="599"/>
      <point x="388" y="706"/>
      <point x="267" y="706" type="curve" smooth="yes"/>
      <point x="147" y="706"/>
      <point x="40" y="599"/>
      <point x="40" y="350" type="curve" smooth="yes"/>
      <point x="40" y="101"/>
      <point x="147" y="-6"/>
    </contour>
    <contour>
      <point x="267" y="66" type="curve" smooth="yes"/>
      <point x="195" y="66"/>
      <point x="125" y="141"/>
      <point x="125" y="350" type="curve" smooth="yes"/>
      <point x="125" y="559"/>
      <point x="195" y="634"/>
      <point x="267" y="634" type="curve" smooth="yes"/>
      <point x="339" y="634"/>
      <point x="411" y="559"/>
      <point x="411" y="350" type="curve" smooth="yes"/>
      <point x="411" y="141"/>
      <point x="339" y="66"/>
    </contour>
  </outline>
</glyph>
<glyph name="one" format="2">
  <advance width="535"/>
  <unicode hex="0031"/>
  <outline>
    <contour>
      <point x="80" y="0" type="curve" smooth="yes"/>
      <point x="486" y="0" type="line" smooth="yes"/>
      <point x="500" y="0"/>
      <point x="506" y="9"/>
      <point x="506" y="30" type="curve" smooth="yes"/>
      <point x="506" y="42" type="line" smooth="yes"/>
      <point x="506" y="63"/>
      <point x="500" y="72"/>
      <point x="486" y="72" type="curve" smooth="yes"/>
      <point x="338" y="72" type="line"/>
      <point x="338" y="681" type="line" smooth="yes"/>
      <point x="338" y="693"/>
      <point x="322" y="702"/>
      <point x="307" y="702" type="curve"/>
      <point x="75" y="651" type="line" smooth="yes"/>
      <point x="63" y="648"/>
      <point x="57" y="643"/>
      <point x="57" y="632" type="curve" smooth="yes"/>
      <point x="57" y="614"/>
      <point x="63" y="581"/>
      <point x="77" y="581" type="curve"/>
      <point x="254" y="611" type="line"/>
      <point x="254" y="72" type="line"/>
      <point x="80" y="72" type="line" smooth="yes"/>
      <point x="66" y="72"/>
      <point x="60" y="63"/>
      <point x="60" y="42" type="curve" smooth="yes"/>
      <point x="60" y="30" type="line" smooth="yes"/>
      <point x="60" y="9"/>
      <point x="66" y="0"/>
    </contour>
  </outline>
</glyph>
<glyph name="seven" format="2">
  <advance width="535"/>
  <unicode hex="0037"/>
  <outline>
    <contour>
      <point x="140" y="-2" type="curve" smooth="yes"/>
      <point x="152" y="-2" type="line" smooth="yes"/>
      <point x="172" y="-2"/>
      <point x="187" y="4"/>
      <point x="192" y="14" type="curve" smooth="yes"/>
      <point x="488" y="638" type="line" smooth="yes"/>
      <point x="489" y="641"/>
      <point x="490" y="645"/>
      <point x="490" y="649" type="curve" smooth="yes"/>
      <point x="490" y="669"/>
      <point x="478" y="700"/>
      <point x="470" y="700" type="curve" smooth="yes"/>
      <point x="75" y="700" type="line" smooth="yes"/>
      <point x="61" y="700"/>
      <point x="55" y="691"/>
      <point x="55" y="670" type="curve" smooth="yes"/>
      <point x="55" y="658" type="line" smooth="yes"/>
      <point x="55" y="637"/>
      <point x="61" y="628"/>
      <point x="75" y="628" type="curve" smooth="yes"/>
      <point x="390" y="628" type="line"/>
      <point x="101" y="28" type="line" smooth="yes"/>
      <point x="99" y="23"/>
      <point x="97" y="19"/>
      <point x="97" y="16" type="curve" smooth="yes"/>
      <point x="97" y="2"/>
      <point x="111" y="-2"/>
    </contour>
  </outline>
</glyph>
<glyph name="eight" format="2">
  <advance width="535"/>
  <unicode hex="0038"/>
  <outline>
    <contour>
      <point x="267" y="-6" type="curve" smooth="yes"/>
      <point x="387" y="-6"/>
      <point x="484" y="59"/>
      <point x="484" y="202" type="curve" smooth="yes"/>
      <point x="484" y="311"/>
      <point x="429" y="352"/>
      <point x="364" y="381" type="curve"/>
      <point x="418" y="406"/>
      <point x="461" y="451"/>
      <point x="461" y="533" type="curve" smooth="yes"/>
      <point x="461" y="647"/>
      <point x="374" y="706"/>
      <point x="269" y="706" type="curve" smooth="yes"/>
      <point x="164" y="706"/>
      <point x="79" y="647"/>
      <point x="79" y="533" type="curve" smooth="yes"/>
      <point x="79" y="457"/>
      <point x="115" y="408"/>
      <point x="162" y="380" type="curve"/>
      <point x="101" y="351"/>
      <point x="51" y="308"/>
      <point x="51" y="202" type="curve" smooth="yes"/>
      <point x="51" y="59"/>
      <point x="147" y="-6"/>
    </contour>
    <contour>
      <point x="267" y="66" type="curve" smooth="yes"/>
      <point x="196" y="66"/>
      <point x="137" y="111"/>
      <point x="137" y="202" type="curve" smooth="yes"/>
      <point x="137" y="279"/>
      <point x="178" y="320"/>
      <point x="229" y="350" type="curve"/>
      <point x="310" y="319"/>
      <point x="398" y="303"/>
      <point x="398" y="202" type="curve" smooth="yes"/>
      <point x="398" y="111"/>
      <point x="338" y="66"/>
    </contour>
    <contour>
      <point x="291" y="408" type="curve"/>
      <point x="223" y="431"/>
      <point x="163" y="453"/>
      <point x="163" y="533" type="curve" smooth="yes"/>
      <point x="163" y="604"/>
      <point x="210" y="634"/>
      <point x="269" y="634" type="curve" smooth="yes"/>
      <point x="328" y="634"/>
      <point x="377" y="604"/>
      <point x="377" y="533" type="curve" smooth="yes"/>
      <point x="377" y="474"/>
      <point x="339" y="436"/>
    </contour>
  </outline>
</glyph>
<glyph name="nine" format="2">
  <advance width="535"/>
  <unicode hex="0039"/>
  <outline>
    <contour>
      <point x="159" y="-2" type="curve" smooth="yes"/>
      <point x="226" y="-2"/>
      <point x="484" y="164"/>
      <point x="484" y="453" type="curve" smooth="yes"/>
      <point x="484" y="612"/>
      <point x="413" y="705"/>
      <point x="271" y="705" type="curve" smooth="yes"/>
      <point x="150" y="705"/>
      <point x="55" y="624"/>
      <point x="55" y="497" type="curve" smooth="yes"/>
      <point x="55" y="374"/>
      <point x="140" y="295"/>
      <point x="246" y="295" type="curve" smooth="yes"/>
      <point x="307" y="295"/>
      <point x="350" y="310"/>
      <point x="381" y="328" type="curve"/>
      <point x="349" y="216"/>
      <point x="270" y="118"/>
      <point x="134" y="62" type="curve" smooth="yes"/>
      <point x="127" y="59"/>
      <point x="126" y="54"/>
      <point x="126" y="51" type="curve" smooth="yes"/>
      <point x="126" y="39"/>
      <point x="138" y="-2"/>
    </contour>
    <contour>
      <point x="271" y="367" type="curve" smooth="yes"/>
      <point x="205" y="367"/>
      <point x="140" y="403"/>
      <point x="140" y="501" type="curve" smooth="yes"/>
      <point x="140" y="593"/>
      <point x="212" y="633"/>
      <point x="266" y="633" type="curve" smooth="yes"/>
      <point x="329" y="633"/>
      <point x="400" y="601"/>
      <point x="400" y="461" type="curve" smooth="yes"/>
      <point x="400" y="442"/>
      <point x="398" y="421"/>
      <point x="396" y="401" type="curve"/>
      <point x="368" y="385"/>
      <point x="324" y="367"/>
    </contour>
  </outline>
</glyph>
<glyph name="semicolon" format="2">
  <advance width="198"/>
  <unicode hex="003B"/>
  <outline>
    <contour>
      <point x="91" y="415" type="curve" smooth="yes"/>
      <point x="108" y="415" type="line" smooth="yes"/>
      <point x="136" y="415"/>
      <point x="148" y="423"/>
      <point x="148" y="437" type="curve" smooth="yes"/>
      <point x="148" y="503" type="line" smooth="yes"/>
      <point x="148" y="517"/>
      <point x="136" y="525"/>
      <point x="108" y="525" type="curve" smooth="yes"/>
      <point x="91" y="525" type="line" smooth="yes"/>
      <point x="63" y="525"/>
      <point x="51" y="517"/>
      <point x="51" y="503" type="curve" smooth="yes"/>
      <point x="51" y="437" type="line" smooth="yes"/>
      <point x="51" y="423"/>
      <point x="63" y="415"/>
    </contour>
    <component base="comma"/>
  </outline>
</glyph>
<glyph name="less" format="2">
  <advance width="560"/>
  <unicode hex="003C"/>
  <outline>
    <contour>
      <point x="495" y="6" type="curve" smooth="yes"/>
      <point x="490" y="6"/>
      <point x="485" y="7"/>
      <point x="480" y="9" type="curve" smooth="yes"/>
      <point x="69" y="183" type="line" smooth="yes"/>
      <point x="53" y="190"/>
      <point x="46" y="201"/>
      <point x="46" y="218" type="curve" smooth="yes"/>
      <point x="46" y="235" type="line" smooth="yes"/>
      <point x="46" y="252"/>
      <point x="53" y="263"/>
      <point x="69" y="270" type="curve" smooth="yes"/>
      <point x="480" y="444" type="line" smooth="yes"/>
      <point x="485" y="446"/>
      <point x="490" y="447"/>
      <point x="495" y="447" type="curve" smooth="yes"/>
      <point x="507" y="447"/>
      <point x="515" y="438"/>
      <point x="515" y="421" type="curve" smooth="yes"/>
      <point x="515" y="407" type="line" smooth="yes"/>
      <point x="515" y="390"/>
      <point x="508" y="379"/>
      <point x="492" y="372" type="curve" smooth="yes"/>
      <point x="136" y="227" type="line"/>
      <point x="492" y="81" type="line" smooth="yes"/>
      <point x="508" y="74"/>
      <point x="515" y="63"/>
      <point x="515" y="46" type="curve" smooth="yes"/>
      <point x="515" y="32" type="line" smooth="yes"/>
      <point x="515" y="15"/>
      <point x="507" y="6"/>
    </contour>
  </outline>
</glyph>
<glyph name="equal" format="2">
  <advance width="560"/>
  <unicode hex="003D"/>
  <outline>
    <contour>
      <point x="70" y="268" type="curve" smooth="yes"/>
      <point x="490" y="268" type="line" smooth="yes"/>
      <point x="504" y="268"/>
      <point x="510" y="277"/>
      <point x="510" y="298" type="curve" smooth="yes"/>
      <point x="510" y="311" type="line" smooth="yes"/>
      <point x="510" y="332"/>
      <point x="504" y="341"/>
      <point x="490" y="341" type="curve" smooth="yes"/>
      <point x="70" y="341" type="line" smooth="yes"/>
      <point x="56" y="341"/>
      <point x="50" y="332"/>
      <point x="50" y="311" type="curve" smooth="yes"/>
      <point x="50" y="298" type="line" smooth="yes"/>
      <point x="50" y="277"/>
      <point x="56" y="268"/>
    </contour>
    <contour>
      <point x="70" y="104" type="curve" smooth="yes"/>
      <point x="490" y="104" type="line" smooth="yes"/>
      <point x="504" y="104"/>
      <point x="510" y="113"/>
      <point x="510" y="134" type="curve" smooth="yes"/>
      <point x="510" y="147" type="line" smooth="yes"/>
      <point x="510" y="168"/>
      <point x="504" y="177"/>
      <point x="490" y="177" type="curve" smooth="yes"/>
      <point x="70" y="177" type="line" smooth="yes"/>
      <point x="56" y="177"/>
      <point x="50" y="168"/>
      <point x="50" y="147" type="curve" smooth="yes"/>
      <point x="50" y="134" type="line" smooth="yes"/>
      <point x="50" y="113"/>
      <point x="56" y="104"/>
    </contour>
  </outline>
</glyph>
<glyph name="greater" format="2">
  <advance width="560"/>
  <unicode hex="003E"/>
  <outline>
    <contour>
      <point x="66" y="6" type="curve" smooth="yes"/>
      <point x="71" y="6"/>
      <point x="76" y="7"/>
      <point x="81" y="9" type="curve" smooth="yes"/>
      <point x="492" y="183" type="line" smooth="yes"/>
      <point x="508" y="190"/>
      <point x="515" y="201"/>
      <point x="515" y="218" type="curve" smooth="yes"/>
      <point x="515" y="235" type="line" smooth="yes"/>
      <point x="515" y="252"/>
      <point x="508" y="263"/>
      <point x="492" y="270" type="curve" smooth="yes"/>
      <point x="81" y="444" type="line" smooth="yes"/>
      <point x="76" y="446"/>
      <point x="71" y="447"/>
      <point x="66" y="447" type="curve" smooth="yes"/>
      <point x="54" y="447"/>
      <point x="46" y="438"/>
      <point x="46" y="421" type="curve" smooth="yes"/>
      <point x="46" y="407" type="line" smooth="yes"/>
      <point x="46" y="390"/>
      <point x="53" y="379"/>
      <point x="69" y="372" type="curve" smooth="yes"/>
      <point x="425" y="227" type="line"/>
      <point x="69" y="81" type="line" smooth="yes"/>
      <point x="53" y="74"/>
      <point x="46" y="63"/>
      <point x="46" y="46" type="curve" smooth="yes"/>
      <point x="46" y="32" type="line" smooth="yes"/>
      <point x="46" y="15"/>
      <point x="54" y="6"/>
    </contour>
  </outline>
</glyph>
<glyph name="question" format="2">
  <advance width="445"/>
  <unicode hex="003F"/>
  <outline>
    <contour>
      <point x="171" y="202" type="curve" smooth="yes"/>
      <point x="186" y="202" type="line" smooth="yes"/>
      <point x="210" y="202"/>
      <point x="217" y="209"/>
      <point x="219" y="222" type="curve" smooth="yes"/>
      <point x="228" y="279"/>
      <point x="275" y="324"/>
      <point x="322" y="370" type="curve" smooth="yes"/>
      <point x="371" y="418"/>
      <point x="417" y="469"/>
      <point x="417" y="538" type="curve" smooth="yes"/>
      <point x="417" y="628"/>
      <point x="345" y="706"/>
      <point x="212" y="706" type="curve" smooth="yes"/>
      <point x="139" y="706"/>
      <point x="40" y="683"/>
      <point x="40" y="649" type="curve" smooth="yes"/>
      <point x="40" y="635"/>
      <point x="62" y="598"/>
      <point x="72" y="598" type="curve" smooth="yes"/>
      <point x="87" y="598"/>
      <point x="133" y="632"/>
      <point x="196" y="632" type="curve" smooth="yes"/>
      <point x="279" y="632"/>
      <point x="322" y="598"/>
      <point x="322" y="528" type="curve" smooth="yes"/>
      <point x="322" y="478"/>
      <point x="278" y="435"/>
      <point x="227" y="384" type="curve" smooth="yes"/>
      <point x="172" y="329"/>
      <point x="141" y="270"/>
      <point x="141" y="225" type="curve" smooth="yes"/>
      <point x="141" y="211"/>
      <point x="150" y="202"/>
    </contour>
    <contour>
      <point x="168" y="-2" type="curve" smooth="yes"/>
      <point x="185" y="-2" type="line" smooth="yes"/>
      <point x="213" y="-2"/>
      <point x="225" y="6"/>
      <point x="225" y="20" type="curve" smooth="yes"/>
      <point x="225" y="86" type="line" smooth="yes"/>
      <point x="225" y="100"/>
      <point x="213" y="108"/>
      <point x="185" y="108" type="curve" smooth="yes"/>
      <point x="168" y="108" type="line" smooth="yes"/>
      <point x="140" y="108"/>
      <point x="128" y="100"/>
      <point x="128" y="86" type="curve" smooth="yes"/>
      <point x="128" y="20" type="line" smooth="yes"/>
      <point x="128" y="6"/>
      <point x="140" y="-2"/>
    </contour>
  </outline>
</glyph>
<glyph name="at" format="2">
  <advance width="974"/>
  <unicode hex="0040"/>
  <outline>
    <contour>
      <point x="422" y="-126" type="curve" smooth="yes"/>
      <point x="473" y="-126"/>
      <point x="590" y="-115"/>
      <point x="590" y="-76" type="curve" smooth="yes"/>
      <point x="590" y="-60"/>
      <point x="585" y="-53"/>
      <point x="576" y="-53" type="curve" smooth="yes"/>
      <point x="552" y="-53"/>
      <point x="519" y="-82"/>
      <point x="422" y="-82" type="curve" smooth="yes"/>
      <point x="260" y="-82"/>
      <point x="150" y="47"/>
      <point x="150" y="237" type="curve" smooth="yes"/>
      <point x="150" y="475"/>
      <point x="324" y="661"/>
      <point x="546" y="661" type="curve" smooth="yes"/>
      <point x="713" y="661"/>
      <point x="825" y="549"/>
      <point x="825" y="380" type="curve" smooth="yes"/>
      <point x="825" y="235"/>
      <point x="756" y="107"/>
      <point x="682" y="107" type="curve" smooth="yes"/>
      <point x="672" y="107"/>
      <point x="642" y="107"/>
      <point x="642" y="149" type="curve" smooth="yes"/>
      <point x="642" y="173"/>
      <point x="675" y="481"/>
      <point x="675" y="481" type="curve"/>
      <point x="675" y="494"/>
      <point x="669" y="502"/>
      <point x="653" y="502" type="curve" smooth="yes"/>
      <point x="647" y="502" type="line" smooth="yes"/>
      <point x="622" y="502"/>
      <point x="623" y="487"/>
      <point x="612" y="458" type="curve"/>
      <point x="594" y="476"/>
      <point x="556" y="505"/>
      <point x="501" y="505" type="curve" smooth="yes"/>
      <point x="373" y="505"/>
      <point x="290" y="393"/>
      <point x="290" y="236" type="curve" smooth="yes"/>
      <point x="290" y="89"/>
      <point x="378" y="54"/>
      <point x="435" y="54" type="curve" smooth="yes"/>
      <point x="494" y="54"/>
      <point x="549" y="88"/>
      <point x="585" y="175" type="curve"/>
      <point x="570" y="182" type="line"/>
      <point x="570" y="137" type="line" smooth="yes"/>
      <point x="570" y="93"/>
      <point x="606" y="54"/>
      <point x="669" y="54" type="curve" smooth="yes"/>
      <point x="793" y="54"/>
      <point x="879" y="198"/>
      <point x="879" y="380" type="curve" smooth="yes"/>
      <point x="879" y="576"/>
      <point x="747" y="705"/>
      <point x="546" y="705" type="curve" smooth="yes"/>
      <point x="293" y="705"/>
      <point x="96" y="500"/>
      <point x="96" y="237" type="curve" smooth="yes"/>
      <point x="96" y="21"/>
      <point x="228" y="-126"/>
    </contour>
    <contour>
      <point x="451" y="115" type="curve" smooth="yes"/>
      <point x="403" y="115"/>
      <point x="363" y="145"/>
      <point x="363" y="241" type="curve" smooth="yes"/>
      <point x="363" y="342"/>
      <point x="392" y="443"/>
      <point x="507" y="443" type="curve" smooth="yes"/>
      <point x="551" y="443"/>
      <point x="582" y="423"/>
      <point x="599" y="409" type="curve"/>
      <point x="592" y="386"/>
      <point x="585" y="307"/>
      <point x="580" y="256" type="curve"/>
      <point x="544" y="146"/>
      <point x="489" y="115"/>
    </contour>
  </outline>
</glyph>
<glyph name="C" format="2">
  <advance width="619"/>
  <unicode hex="0043"/>
  <anchor x="356" y="0" name="bottom"/>
  <anchor x="365" y="700" name="top"/>
  <outline>
    <contour>
      <point x="379" y="-6" type="curve" smooth="yes"/>
      <point x="454" y="-6"/>
      <point x="518" y="13"/>
      <point x="554" y="33" type="curve" smooth="yes"/>
      <point x="574" y="44"/>
      <point x="586" y="56"/>
      <point x="586" y="66" type="curve" smooth="yes"/>
      <point x="586" y="78"/>
      <point x="564" y="120"/>
      <point x="551" y="120" type="curve" smooth="yes"/>
      <point x="538" y="120"/>
      <point x="482" y="70"/>
      <point x="379" y="70" type="curve" smooth="yes"/>
      <point x="222" y="70"/>
      <point x="148" y="157"/>
      <point x="148" y="349" type="curve" smooth="yes"/>
      <point x="148" y="546"/>
      <point x="223" y="630"/>
      <point x="383" y="630" type="curve" smooth="yes"/>
      <point x="479" y="630"/>
      <point x="527" y="586"/>
      <point x="538" y="586" type="curve" smooth="yes"/>
      <point x="551" y="586"/>
      <point x="572" y="627"/>
      <point x="572" y="644" type="curve" smooth="yes"/>
      <point x="572" y="652"/>
      <point x="563" y="661"/>
      <point x="548" y="670" type="curve" smooth="yes"/>
      <point x="514" y="689"/>
      <point x="449" y="706"/>
      <point x="381" y="706" type="curve" smooth="yes"/>
      <point x="167" y="706"/>
      <point x="57" y="589"/>
      <point x="57" y="350" type="curve" smooth="yes"/>
      <point x="57" y="106"/>
      <point x="160" y="-6"/>
    </contour>
  </outline>
</glyph>
<glyph name="E" format="2">
  <advance width="546"/>
  <unicode hex="0045"/>
  <anchor x="301" y="0" name="bottom"/>
  <anchor x="478" y="0" name="ogonek"/>
  <anchor x="297" y="700" name="top"/>
  <outline>
    <contour>
      <point x="128" y="0" type="curve" smooth="yes"/>
      <point x="478" y="0" type="line" smooth="yes"/>
      <point x="492" y="0"/>
      <point x="498" y="9"/>
      <point x="498" y="30" type="curve" smooth="yes"/>
      <point x="498" y="46" type="line" smooth="yes"/>
      <point x="498" y="67"/>
      <point x="492" y="76"/>
      <point x="478" y="76" type="curve" smooth="yes"/>
      <point x="186" y="76" type="line"/>
      <point x="186" y="320" type="line"/>
      <point x="447" y="320" type="line" smooth="yes"/>
      <point x="461" y="320"/>
      <point x="467" y="329"/>
      <point x="467" y="350" type="curve" smooth="yes"/>
      <point x="467" y="366" type="line" smooth="yes"/>
      <point x="467" y="387"/>
      <point x="461" y="396"/>
      <point x="447" y="396" type="curve" smooth="yes"/>
      <point x="186" y="396" type="line"/>
      <point x="186" y="624" type="line"/>
      <point x="477" y="624" type="line" smooth="yes"/>
      <point x="491" y="624"/>
      <point x="497" y="633"/>
      <point x="497" y="654" type="curve" smooth="yes"/>
      <point x="497" y="670" type="line" smooth="yes"/>
      <point x="497" y="691"/>
      <point x="491" y="700"/>
      <point x="477" y="700" type="curve" smooth="yes"/>
      <point x="128" y="700" type="line" smooth="yes"/>
      <point x="107" y="700"/>
      <point x="98" y="691"/>
      <point x="98" y="670" type="curve" smooth="yes"/>
      <point x="98" y="30" type="line" smooth="yes"/>
      <point x="98" y="9"/>
      <point x="107" y="0"/>
    </contour>
  </outline>
</glyph>
<glyph name="F" format="2">
  <advance width="503"/>
  <unicode hex="0046"/>
  <anchor x="141" y="0" name="bottom"/>
  <anchor x="284.5" y="700" name="top"/>
  <outline>
    <contour>
      <point x="137" y="-2" type="curve" smooth="yes"/>
      <point x="145" y="-2" type="line" smooth="yes"/>
      <point x="173" y="-2"/>
      <point x="185" y="6"/>
      <point x="185" y="20" type="curve" smooth="yes"/>
      <point x="185" y="300" type="line"/>
      <point x="424" y="300" type="line" smooth="yes"/>
      <point x="438" y="300"/>
      <point x="444" y="309"/>
      <point x="444" y="330" type="curve" smooth="yes"/>
      <point x="444" y="346" type="line" smooth="yes"/>
      <point x="444" y="367"/>
      <point x="438" y="376"/>
      <point x="424" y="376" type="curve" smooth="yes"/>
      <point x="185" y="376" type="line"/>
      <point x="185" y="624" type="line"/>
      <point x="442" y="624" type="line" smooth="yes"/>
      <point x="456" y="624"/>
      <point x="462" y="633"/>
      <point x="462" y="654" type="curve" smooth="yes"/>
      <point x="462" y="670" type="line" smooth="yes"/>
      <point x="462" y="691"/>
      <point x="456" y="700"/>
      <point x="442" y="700" type="curve" smooth="yes"/>
      <point x="127" y="700" type="line" smooth="yes"/>
      <point x="106" y="700"/>
      <point x="97" y="691"/>
      <point x="97" y="670" type="curve" smooth="yes"/>
      <point x="97" y="20" type="line" smooth="yes"/>
      <point x="97" y="6"/>
      <point x="109" y="-2"/>
    </contour>
  </outline>
</glyph>
<glyph name="H" format="2">
  <advance width="733"/>
  <unicode hex="0048"/>
  <anchor x="366" y="0" name="bottom"/>
  <anchor x="366" y="533" name="center"/>
  <anchor x="366" y="700" name="top"/>
  <outline>
    <contour>
      <point x="138" y="-2" type="curve" smooth="yes"/>
      <point x="146" y="-2" type="line" smooth="yes"/>
      <point x="174" y="-2"/>
      <point x="186" y="6"/>
      <point x="186" y="20" type="curve" smooth="yes"/>
      <point x="186" y="321" type="line"/>
      <point x="548" y="321" type="line"/>
      <point x="548" y="20" type="line" smooth="yes"/>
      <point x="548" y="6"/>
      <point x="560" y="-2"/>
      <point x="588" y="-2" type="curve" smooth="yes"/>
      <point x="596" y="-2" type="line" smooth="yes"/>
      <point x="624" y="-2"/>
      <point x="636" y="6"/>
      <point x="636" y="20" type="curve" smooth="yes"/>
      <point x="636" y="680" type="line" smooth="yes"/>
      <point x="636" y="694"/>
      <point x="624" y="702"/>
      <point x="596" y="702" type="curve" smooth="yes"/>
      <point x="588" y="702" type="line" smooth="yes"/>
      <point x="560" y="702"/>
      <point x="548" y="694"/>
      <point x="548" y="680" type="curve" smooth="yes"/>
      <point x="548" y="397" type="line"/>
      <point x="186" y="397" type="line"/>
      <point x="186" y="680" type="line" smooth="yes"/>
      <point x="186" y="694"/>
      <point x="174" y="702"/>
      <point x="146" y="702" type="curve" smooth="yes"/>
      <point x="138" y="702" type="line" smooth="yes"/>
      <point x="110" y="702"/>
      <point x="98" y="694"/>
      <point x="98" y="680" type="curve" smooth="yes"/>
      <point x="98" y="20" type="line" smooth="yes"/>
      <point x="98" y="6"/>
      <point x="110" y="-2"/>
    </contour>
  </outline>
</glyph>
<glyph name="L" format="2">
  <advance width="484"/>
  <unicode hex="004C"/>
  <anchor x="292" y="0" name="bottom"/>
  <anchor x="381" y="335" name="center"/>
  <anchor x="145" y="702" name="top"/>
  <anchor x="335" y="700" name="topright"/>
  <outline>
    <contour>
      <point x="127" y="0" type="curve" smooth="yes"/>
      <point x="460" y="0" type="line" smooth="yes"/>
      <point x="474" y="0"/>
      <point x="480" y="9"/>
      <point x="480" y="30" type="curve" smooth="yes"/>
      <point x="480" y="46" type="line" smooth="yes"/>
      <point x="480" y="67"/>
      <point x="474" y="76"/>
      <point x="460" y="76" type="curve" smooth="yes"/>
      <point x="185" y="76" type="line"/>
      <point x="185" y="680" type="line" smooth="yes"/>
      <point x="185" y="694"/>
      <point x="173" y="702"/>
      <point x="145" y="702" type="curve" smooth="yes"/>
      <point x="137" y="702" type="line" smooth="yes"/>
      <point x="109" y="702"/>
      <point x="97" y="694"/>
      <point x="97" y="680" type="curve" smooth="yes"/>
      <point x="97" y="30" type="line" smooth="yes"/>
      <point x="97" y="9"/>
      <point x="106" y="0"/>
    </contour>
  </outline>
</glyph>
<glyph name="M" format="2">
  <advance width="843"/>
  <unicode hex="004D"/>
  <outline>
    <contour>
      <point x="403" y="195" type="curve" smooth="yes"/>
      <point x="443" y="195" type="line" smooth="yes"/>
      <point x="454" y="195"/>
      <point x="460" y="199"/>
      <point x="465" y="208" type="curve" smooth="yes"/>
      <point x="640" y="512" type="line" smooth="yes"/>
      <point x="649" y="527"/>
      <point x="656" y="541"/>
      <point x="664" y="557" type="curve"/>
      <point x="668" y="556" type="line"/>
      <point x="666" y="538"/>
      <point x="666" y="520"/>
      <point x="666" y="501" type="curve" smooth="yes"/>
      <point x="666" y="20" type="line" smooth="yes"/>
      <point x="666" y="6"/>
      <point x="678" y="-2"/>
      <point x="706" y="-2" type="curve" smooth="yes"/>
      <point x="713" y="-2" type="line" smooth="yes"/>
      <point x="741" y="-2"/>
      <point x="753" y="6"/>
      <point x="753" y="20" type="curve" smooth="yes"/>
      <point x="753" y="680" type="line" smooth="yes"/>
      <point x="753" y="694"/>
      <point x="741" y="702"/>
      <point x="713" y="702" type="curve" smooth="yes"/>
      <point x="680" y="702" type="line" smooth="yes"/>
      <point x="656" y="702"/>
      <point x="644" y="695"/>
      <point x="638" y="684" type="curve" smooth="yes"/>
      <point x="454" y="359" type="line" smooth="yes"/>
      <point x="445" y="343"/>
      <point x="430" y="315"/>
      <point x="423" y="293" type="curve"/>
      <point x="418" y="314"/>
      <point x="407" y="339"/>
      <point x="397" y="356" type="curve" smooth="yes"/>
      <point x="208" y="684" type="line" smooth="yes"/>
      <point x="202" y="695"/>
      <point x="190" y="702"/>
      <point x="166" y="702" type="curve" smooth="yes"/>
      <point x="130" y="702" type="line" smooth="yes"/>
      <point x="102" y="702"/>
      <point x="90" y="694"/>
      <point x="90" y="680" type="curve" smooth="yes"/>
      <point x="90" y="20" type="line" smooth="yes"/>
      <point x="90" y="6"/>
      <point x="102" y="-2"/>
      <point x="130" y="-2" type="curve" smooth="yes"/>
      <point x="137" y="-2" type="line" smooth="yes"/>
      <point x="165" y="-2"/>
      <point x="177" y="6"/>
      <point x="177" y="20" type="curve" smooth="yes"/>
      <point x="177" y="507" type="line" smooth="yes"/>
      <point x="177" y="526"/>
      <point x="177" y="544"/>
      <point x="175" y="562" type="curve"/>
      <point x="179" y="563" type="line"/>
      <point x="187" y="547"/>
      <point x="194" y="533"/>
      <point x="203" y="518" type="curve" smooth="yes"/>
      <point x="381" y="208" type="line" smooth="yes"/>
      <point x="386" y="199"/>
      <point x="393" y="195"/>
    </contour>
  </outline>
</glyph>
<glyph name="P" format="2">
  <advance width="570"/>
  <unicode hex="0050"/>
  <anchor x="129" y="0" name="bottom"/>
  <anchor x="285" y="700" name="top"/>
  <outline>
    <contour>
      <point x="125" y="-2" type="curve" smooth="yes"/>
      <point x="133" y="-2" type="line" smooth="yes"/>
      <point x="161" y="-2"/>
      <point x="173" y="6"/>
      <point x="173" y="20" type="curve" smooth="yes"/>
      <point x="173" y="298" type="line"/>
      <point x="328" y="298" type="line" smooth="yes"/>
      <point x="380" y="298"/>
      <point x="541" y="321"/>
      <point x="541" y="504" type="curve" smooth="yes"/>
      <point x="541" y="673"/>
      <point x="404" y="700"/>
      <point x="318" y="700" type="curve" smooth="yes"/>
      <point x="115" y="700" type="line" smooth="yes"/>
      <point x="94" y="700"/>
      <point x="85" y="691"/>
      <point x="85" y="670" type="curve" smooth="yes"/>
      <point x="85" y="20" type="line" smooth="yes"/>
      <point x="85" y="6"/>
      <point x="97" y="-2"/>
    </contour>
    <contour>
      <point x="173" y="374" type="line"/>
      <point x="173" y="624" type="line"/>
      <point x="315" y="624" type="line" smooth="yes"/>
      <point x="374" y="624"/>
      <point x="450" y="603"/>
      <point x="450" y="504" type="curve" smooth="yes"/>
      <point x="450" y="395"/>
      <point x="369" y="374"/>
      <point x="329" y="374" type="curve" smooth="yes"/>
    </contour>
  </outline>
</glyph>
<glyph name="S" format="2">
  <advance width="500"/>
  <unicode hex="0053"/>
  <anchor x="250" y="0" name="bottom"/>
  <anchor x="250" y="700" name="top"/>
  <outline>
    <contour>
      <point x="244" y="-6" type="curve" smooth="yes"/>
      <point x="379" y="-6"/>
      <point x="466" y="68"/>
      <point x="466" y="188" type="curve" smooth="yes"/>
      <point x="466" y="324"/>
      <point x="366" y="364"/>
      <point x="277" y="398" type="curve" smooth="yes"/>
      <point x="205" y="425.5"/>
      <point x="141" y="444"/>
      <point x="141" y="517" type="curve" smooth="yes"/>
      <point x="141" y="590"/>
      <point x="195" y="630"/>
      <point x="270" y="630" type="curve" smooth="yes"/>
      <point x="320" y="630"/>
      <point x="353" y="615"/>
      <point x="374" y="604" type="curve" smooth="yes"/>
      <point x="387" y="597"/>
      <point x="395" y="592"/>
      <point x="401" y="592" type="curve" smooth="yes"/>
      <point x="411" y="592"/>
      <point x="433" y="630"/>
      <point x="433" y="645" type="curve" smooth="yes"/>
      <point x="433" y="655"/>
      <point x="425" y="664"/>
      <point x="413" y="671" type="curve" smooth="yes"/>
      <point x="380" y="693"/>
      <point x="314" y="706"/>
      <point x="272" y="706" type="curve" smooth="yes"/>
      <point x="138" y="706"/>
      <point x="50" y="629"/>
      <point x="50" y="521" type="curve" smooth="yes"/>
      <point x="50" y="390"/>
      <point x="139" y="357"/>
      <point x="224" y="324" type="curve" smooth="yes"/>
      <point x="301" y="294"/>
      <point x="375" y="268"/>
      <point x="375" y="188" type="curve" smooth="yes"/>
      <point x="375" y="117"/>
      <point x="320" y="70"/>
      <point x="244" y="70" type="curve" smooth="yes"/>
      <point x="170" y="70"/>
      <point x="120" y="96"/>
      <point x="93" y="111" type="curve" smooth="yes"/>
      <point x="83" y="117"/>
      <point x="76" y="121"/>
      <point x="72" y="121" type="curve" smooth="yes"/>
      <point x="61" y="121"/>
      <point x="37" y="83"/>
      <point x="37" y="67" type="curve" smooth="yes"/>
      <point x="37" y="60"/>
      <point x="44" y="51"/>
      <point x="56" y="42" type="curve" smooth="yes"/>
      <point x="88" y="18"/>
      <point x="159" y="-6"/>
    </contour>
  </outline>
</glyph>
<glyph name="V" format="2">
  <advance width="617"/>
  <unicode hex="0056"/>
  <outline>
    <contour>
      <point x="293" y="-2" type="curve" smooth="yes"/>
      <point x="324" y="-2" type="line" smooth="yes"/>
      <point x="344" y="-2"/>
      <point x="360" y="2"/>
      <point x="364" y="14" type="curve" smooth="yes"/>
      <point x="593" y="671" type="line" smooth="yes"/>
      <point x="595" y="677"/>
      <point x="596" y="681"/>
      <point x="596" y="685" type="curve" smooth="yes"/>
      <point x="596" y="696"/>
      <point x="583" y="702"/>
      <point x="553" y="702" type="curve" smooth="yes"/>
      <point x="547" y="702" type="line" smooth="yes"/>
      <point x="527" y="702"/>
      <point x="511" y="698"/>
      <point x="507" y="686" type="curve" smooth="yes"/>
      <point x="339" y="198" type="line" smooth="yes"/>
      <point x="329" y="168"/>
      <point x="320" y="133"/>
      <point x="313" y="100" type="curve"/>
      <point x="310" y="100" type="line"/>
      <point x="305" y="128"/>
      <point x="297" y="162"/>
      <point x="285" y="197" type="curve" smooth="yes"/>
      <point x="114" y="686" type="line" smooth="yes"/>
      <point x="110" y="698"/>
      <point x="94" y="702"/>
      <point x="74" y="702" type="curve" smooth="yes"/>
      <point x="64" y="702" type="line" smooth="yes"/>
      <point x="34" y="702"/>
      <point x="21" y="695"/>
      <point x="21" y="685" type="curve" smooth="yes"/>
      <point x="21" y="681"/>
      <point x="22" y="677"/>
      <point x="24" y="672" type="curve" smooth="yes"/>
      <point x="253" y="14" type="line" smooth="yes"/>
      <point x="257" y="2"/>
      <point x="273" y="-2"/>
    </contour>
  </outline>
</glyph>
<glyph name="W" format="2">
  <advance width="910"/>
  <unicode hex="0057"/>
  <anchor x="455" y="700" name="top"/>
  <outline>
    <contour>
      <point x="243" y="-2" type="curve" smooth="yes"/>
      <point x="284" y="-2" type="line" smooth="yes"/>
      <point x="304" y="-2"/>
      <point x="321" y="2"/>
      <point x="324" y="14" type="curve" smooth="yes"/>
      <point x="428" y="403" type="line" smooth="yes"/>
      <point x="438" y="439"/>
      <point x="448" y="503"/>
      <point x="452" y="551" type="curve"/>
      <point x="456" y="551" type="line"/>
      <point x="460" y="502"/>
      <point x="474" y="424"/>
      <point x="489" y="369" type="curve" smooth="yes"/>
      <point x="584" y="14" type="line" smooth="yes"/>
      <point x="587" y="2"/>
      <point x="604" y="-2"/>
      <point x="624" y="-2" type="curve" smooth="yes"/>
      <point x="665" y="-2" type="line" smooth="yes"/>
      <point x="685" y="-2"/>
      <point x="702" y="2"/>
      <point x="705" y="14" type="curve" smooth="yes"/>
      <point x="878" y="671" type="line" smooth="yes"/>
      <point x="879" y="675"/>
      <point x="881" y="683"/>
      <point x="881" y="685" type="curve" smooth="yes"/>
      <point x="881" y="696"/>
      <point x="868" y="702"/>
      <point x="838" y="702" type="curve" smooth="yes"/>
      <point x="832" y="702" type="line" smooth="yes"/>
      <point x="812" y="702"/>
      <point x="795" y="698"/>
      <point x="792" y="686" type="curve" smooth="yes"/>
      <point x="671" y="196" type="line" smooth="yes"/>
      <point x="665" y="174"/>
      <point x="656" y="133"/>
      <point x="649" y="101" type="curve"/>
      <point x="645" y="101" type="line"/>
      <point x="642" y="133"/>
      <point x="632" y="188"/>
      <point x="621" y="230" type="curve" smooth="yes"/>
      <point x="506" y="685" type="line" smooth="yes"/>
      <point x="503" y="698"/>
      <point x="487" y="702"/>
      <point x="467" y="702" type="curve" smooth="yes"/>
      <point x="451" y="702" type="line" smooth="yes"/>
      <point x="431" y="702"/>
      <point x="415" y="698"/>
      <point x="412" y="685" type="curve" smooth="yes"/>
      <point x="291" y="197" type="line" smooth="yes"/>
      <point x="283" y="165"/>
      <point x="276" y="133"/>
      <point x="268" y="101" type="curve"/>
      <point x="264" y="101" type="line"/>
      <point x="261" y="131"/>
      <point x="250" y="187"/>
      <point x="239" y="230" type="curve" smooth="yes"/>
      <point x="122" y="686" type="line" smooth="yes"/>
      <point x="119" y="698"/>
      <point x="102" y="702"/>
      <point x="82" y="702" type="curve" smooth="yes"/>
      <point x="72" y="702" type="line" smooth="yes"/>
      <point x="42" y="702"/>
      <point x="29" y="695"/>
      <point x="29" y="685" type="curve" smooth="yes"/>
      <point x="29" y="681"/>
      <point x="31" y="675"/>
      <point x="32" y="671" type="curve" smooth="yes"/>
      <point x="203" y="14" type="line" smooth="yes"/>
      <point x="206" y="2"/>
      <point x="223" y="-2"/>
    </contour>
  </outline>
</glyph>
<glyph name="Z" format="2">
  <advance width="616"/>
  <unicode hex="005A"/>
  <anchor x="318" y="0" name="bottom"/>
  <anchor x="308" y="700" name="top"/>
  <outline>
    <contour>
      <point x="62" y="0" type="curve"/>
      <point x="549" y="0" type="line" smooth="yes"/>
      <point x="563" y="0"/>
      <point x="569" y="10"/>
      <point x="569" y="34" type="curve" smooth="yes"/>
      <point x="569" y="42" type="line" smooth="yes"/>
      <point x="569" y="66"/>
      <point x="563" y="76"/>
      <point x="549" y="76" type="curve" smooth="yes"/>
      <point x="158" y="76" type="line"/>
      <point x="568" y="635" type="line" smooth="yes"/>
      <point x="570" y="638"/>
      <point x="571" y="642"/>
      <point x="571" y="647" type="curve" smooth="yes"/>
      <point x="571" y="668"/>
      <point x="556" y="700"/>
      <point x="549" y="700" type="curve" smooth="yes"/>
      <point x="91" y="700" type="line" smooth="yes"/>
      <point x="77" y="700"/>
      <point x="71" y="690"/>
      <point x="71" y="666" type="curve" smooth="yes"/>
      <point x="71" y="658" type="line" smooth="yes"/>
      <point x="71" y="634"/>
      <point x="77" y="624"/>
      <point x="91" y="624" type="curve" smooth="yes"/>
      <point x="451" y="624" type="line"/>
      <point x="41" y="65" type="line" smooth="yes"/>
      <point x="39" y="62"/>
      <point x="38" y="58"/>
      <point x="38" y="53" type="curve" smooth="yes"/>
      <point x="38" y="33"/>
      <point x="52" y="0"/>
    </contour>
  </outline>
</glyph>
<glyph name="bracketleft" format="2">
  <advance width="291"/>
  <unicode hex="005B"/>
  <outline>
    <contour>
      <point x="120" y="-138" type="curve" smooth="yes"/>
      <point x="241" y="-138" type="line" smooth="yes"/>
      <point x="255" y="-138"/>
      <point x="261" y="-130"/>
      <point x="261" y="-109" type="curve" smooth="yes"/>
      <point x="261" y="-105" type="line" smooth="yes"/>
      <point x="261" y="-84"/>
      <point x="255" y="-76"/>
      <point x="241" y="-76" type="curve" smooth="yes"/>
      <point x="164" y="-76" type="line"/>
      <point x="164" y="705" type="line"/>
      <point x="241" y="705" type="line" smooth="yes"/>
      <point x="255" y="705"/>
      <point x="261" y="713"/>
      <point x="261" y="734" type="curve" smooth="yes"/>
      <point x="261" y="739" type="line" smooth="yes"/>
      <point x="261" y="760"/>
      <point x="255" y="768"/>
      <point x="241" y="768" type="curve" smooth="yes"/>
      <point x="120" y="768" type="line" smooth="yes"/>
      <point x="99" y="768"/>
      <point x="90" y="759"/>
      <point x="90" y="738" type="curve" smooth="yes"/>
      <point x="90" y="-108" type="line" smooth="yes"/>
      <point x="90" y="-129"/>
      <point x="99" y="-138"/>
    </contour>
  </outline>
</glyph>
<glyph name="backslash" format="2">
  <advance width="422"/>
  <unicode hex="005C"/>
  <outline>
    <contour>
      <point x="366" y="-76" type="curve" smooth="yes"/>
      <point x="370" y="-76" type="line" smooth="yes"/>
      <point x="387" y="-76"/>
      <point x="396" y="-73"/>
      <point x="396" y="-61" type="curve" smooth="yes"/>
      <point x="396" y="-54"/>
      <point x="391" y="-43"/>
      <point x="387" y="-33" type="curve" smooth="yes"/>
      <point x="90" y="679" type="line" smooth="yes"/>
      <point x="82" y="699"/>
      <point x="73" y="703"/>
      <point x="52" y="703" type="curve" smooth="yes"/>
      <point x="48" y="703" type="line" smooth="yes"/>
      <point x="30" y="703"/>
      <point x="26" y="698"/>
      <point x="26" y="687" type="curve" smooth="yes"/>
      <point x="26" y="682"/>
      <point x="31" y="667"/>
      <point x="38" y="651" type="curve" smooth="yes"/>
      <point x="335" y="-61" type="line" smooth="yes"/>
      <point x="340" y="-73"/>
      <point x="349" y="-76"/>
    </contour>
  </outline>
</glyph>
<glyph name="underscore" format="2">
  <advance width="535"/>
  <unicode hex="005F"/>
  <outline>
    <contour>
      <point x="0" y="-138" type="curve" smooth="yes"/>
      <point x="536" y="-138" type="line" smooth="yes"/>
      <point x="550" y="-138"/>
      <point x="556" y="-132"/>
      <point x="556" y="-118" type="curve" smooth="yes"/>
      <point x="556" y="-110" type="line" smooth="yes"/>
      <point x="556" y="-96"/>
      <point x="550" y="-90"/>
      <point x="536" y="-90" type="curve" smooth="yes"/>
      <point x="0" y="-90" type="line" smooth="yes"/>
      <point x="-14" y="-90"/>
      <point x="-20" y="-96"/>
      <point x="-20" y="-110" type="curve" smooth="yes"/>
      <point x="-20" y="-118" type="line" smooth="yes"/>
      <point x="-20" y="-132"/>
      <point x="-14" y="-138"/>
    </contour>
  </outline>
</glyph>
<glyph name="grave" format="2">
  <advance width="161"/>
  <unicode hex="0060"/>
  <outline>
    <contour>
      <point x="139" y="576" type="curve" smooth="yes"/>
      <point x="154" y="576"/>
      <point x="161" y="581"/>
      <point x="161" y="589" type="curve" smooth="yes"/>
      <point x="161" y="595"/>
      <point x="156" y="604"/>
      <point x="150" y="616" type="curve" smooth="yes"/>
      <point x="110" y="692" type="line" smooth="yes"/>
      <point x="101" y="709"/>
      <point x="90" y="718"/>
      <point x="48" y="718" type="curve" smooth="yes"/>
      <point x="18" y="718"/>
      <point x="0" y="714"/>
      <point x="0" y="702" type="curve" smooth="yes"/>
      <point x="0" y="693"/>
      <point x="7" y="682"/>
      <point x="27" y="660" type="curve" smooth="yes"/>
      <point x="81" y="600" type="line" smooth="yes"/>
      <point x="100" y="579"/>
      <point x="112" y="576"/>
    </contour>
  </outline>
</glyph>
<glyph name="a" format="2">
  <advance width="545"/>
  <unicode hex="0061"/>
  <anchor x="261" y="0" name="bottom"/>
  <anchor x="469" y="0" name="ogonek"/>
  <anchor x="273" y="523" name="top"/>
  <outline>
    <contour>
      <point x="220" y="-6" type="curve" smooth="yes"/>
      <point x="295" y="-6"/>
      <point x="350" y="27"/>
      <point x="388" y="69" type="curve"/>
      <point x="394" y="41"/>
      <point x="399" y="-1"/>
      <point x="423" y="-1" type="curve" smooth="yes"/>
      <point x="436" y="-1"/>
      <point x="477" y="3"/>
      <point x="477" y="22" type="curve" smooth="yes"/>
      <point x="477" y="27"/>
      <point x="465" y="66"/>
      <point x="465" y="148" type="curve" smooth="yes"/>
      <point x="465" y="372" type="line" smooth="yes"/>
      <point x="465" y="471"/>
      <point x="392" y="529"/>
      <point x="268" y="529" type="curve" smooth="yes"/>
      <point x="168" y="529"/>
      <point x="80" y="491"/>
      <point x="80" y="465" type="curve" smooth="yes"/>
      <point x="80" y="454"/>
      <point x="101" y="415"/>
      <point x="115" y="415" type="curve" smooth="yes"/>
      <point x="125" y="415"/>
      <point x="180" y="457"/>
      <point x="271" y="457" type="curve" smooth="yes"/>
      <point x="354" y="457"/>
      <point x="381" y="418"/>
      <point x="381" y="373" type="curve" smooth="yes"/>
      <point x="381" y="326" type="line"/>
      <point x="228" y="324"/>
      <point x="49" y="313"/>
      <point x="49" y="144" type="curve" smooth="yes"/>
      <point x="49" y="41"/>
      <point x="123" y="-6"/>
    </contour>
    <contour>
      <point x="224" y="67" type="curve" smooth="yes"/>
      <point x="168" y="67"/>
      <point x="139" y="96"/>
      <point x="139" y="149" type="curve" smooth="yes"/>
      <point x="139" y="253"/>
      <point x="277" y="253"/>
      <point x="381" y="254" type="curve"/>
      <point x="381" y="136" type="line"/>
      <point x="341" y="100"/>
      <point x="297" y="67"/>
    </contour>
  </outline>
</glyph>
<glyph name="d" format="2">
  <advance width="565"/>
  <unicode hex="0064"/>
  <anchor x="281" y="0" name="bottom"/>
  <anchor x="421" y="630" name="center"/>
  <anchor x="283" y="752" name="top"/>
  <anchor x="529" y="750" name="topright"/>
  <outline>
    <contour>
      <point x="246" y="-6" type="curve" smooth="yes"/>
      <point x="303" y="-6"/>
      <point x="356" y="18"/>
      <point x="405" y="69" type="curve"/>
      <point x="411" y="41"/>
      <point x="416" y="-1"/>
      <point x="440" y="-1" type="curve" smooth="yes"/>
      <point x="453" y="-1"/>
      <point x="494" y="3"/>
      <point x="494" y="22" type="curve" smooth="yes"/>
      <point x="494" y="27"/>
      <point x="482" y="66"/>
      <point x="482" y="148" type="curve" smooth="yes"/>
      <point x="482" y="730" type="line" smooth="yes"/>
      <point x="482" y="744"/>
      <point x="470" y="752"/>
      <point x="442" y="752" type="curve" smooth="yes"/>
      <point x="438" y="752" type="line" smooth="yes"/>
      <point x="410" y="752"/>
      <point x="398" y="744"/>
      <point x="398" y="730" type="curve" smooth="yes"/>
      <point x="398" y="478" type="line"/>
      <point x="359" y="508"/>
      <point x="317" y="529"/>
      <point x="255" y="529" type="curve" smooth="yes"/>
      <point x="136" y="529"/>
      <point x="52" y="435"/>
      <point x="52" y="261" type="curve" smooth="yes"/>
      <point x="52" y="106"/>
      <point x="126" y="-6"/>
    </contour>
    <contour>
      <point x="263" y="67" type="curve" smooth="yes"/>
      <point x="184" y="67"/>
      <point x="140" y="140"/>
      <point x="140" y="269" type="curve" smooth="yes"/>
      <point x="140" y="388"/>
      <point x="185" y="455"/>
      <point x="275" y="455" type="curve" smooth="yes"/>
      <point x="320" y="455"/>
      <point x="362" y="440"/>
      <point x="398" y="410" type="curve"/>
      <point x="398" y="136" type="line"/>
      <point x="357" y="91"/>
      <point x="307" y="67"/>
    </contour>
  </outline>
</glyph>
<glyph name="g" format="2">
  <advance width="546"/>
  <unicode hex="0067"/>
  <anchor x="273" y="523" name="top"/>
  <outline>
    <contour>
      <point x="253" y="-212" type="curve" smooth="yes"/>
      <point x="411" y="-212"/>
      <point x="491" y="-157"/>
      <point x="491" y="-61" type="curve" smooth="yes"/>
      <point x="491" y="31"/>
      <point x="420" y="59"/>
      <point x="330" y="70" type="curve" smooth="yes"/>
      <point x="252" y="80"/>
      <point x="174" y="80"/>
      <point x="174" y="141" type="curve" smooth="yes"/>
      <point x="174" y="185"/>
      <point x="207" y="202"/>
      <point x="264" y="202" type="curve" smooth="yes"/>
      <point x="393" y="202"/>
      <point x="461" y="274"/>
      <point x="461" y="366" type="curve" smooth="yes"/>
      <point x="461" y="401"/>
      <point x="455" y="427"/>
      <point x="428" y="456" type="curve"/>
      <point x="429" y="458" type="line"/>
      <point x="451" y="454"/>
      <point x="490" y="451"/>
      <point x="506" y="451" type="curve" smooth="yes"/>
      <point x="520" y="451"/>
      <point x="526" y="460"/>
      <point x="526" y="481" type="curve" smooth="yes"/>
      <point x="526" y="493" type="line" smooth="yes"/>
      <point x="526" y="514"/>
      <point x="520" y="523"/>
      <point x="506" y="523" type="curve" smooth="yes"/>
      <point x="324" y="523" type="line"/>
      <point x="306" y="527"/>
      <point x="286" y="529"/>
      <point x="265" y="529" type="curve" smooth="yes"/>
      <point x="136" y="529"/>
      <point x="68" y="457"/>
      <point x="68" y="366" type="curve" smooth="yes"/>
      <point x="68" y="306"/>
      <point x="97" y="253"/>
      <point x="154" y="225" type="curve"/>
      <point x="119" y="202"/>
      <point x="100" y="171"/>
      <point x="100" y="129" type="curve" smooth="yes"/>
      <point x="100" y="91"/>
      <point x="115" y="66"/>
      <point x="138" y="47" type="curve"/>
      <point x="137" y="45" type="line"/>
      <point x="88" y="24"/>
      <point x="50" y="-23"/>
      <point x="50" y="-81" type="curve" smooth="yes"/>
      <point x="50" y="-178"/>
      <point x="135" y="-212"/>
    </contour>
    <contour>
      <point x="264" y="-143" type="curve" smooth="yes"/>
      <point x="166" y="-143"/>
      <point x="128" y="-121"/>
      <point x="128" y="-65" type="curve" smooth="yes"/>
      <point x="128" y="-21"/>
      <point x="155" y="4"/>
      <point x="187" y="19" type="curve"/>
      <point x="265" y="-4"/>
      <point x="411" y="14"/>
      <point x="411" y="-66" type="curve" smooth="yes"/>
      <point x="411" y="-119"/>
      <point x="364" y="-143"/>
    </contour>
    <contour>
      <point x="264" y="272" type="curve" smooth="yes"/>
      <point x="200" y="272"/>
      <point x="148" y="294"/>
      <point x="148" y="365" type="curve" smooth="yes"/>
      <point x="148" y="437"/>
      <point x="200" y="459"/>
      <point x="264" y="459" type="curve" smooth="yes"/>
      <point x="328" y="459"/>
      <point x="381" y="437"/>
      <point x="381" y="365" type="curve" smooth="yes"/>
      <point x="381" y="294"/>
      <point x="328" y="272"/>
    </contour>
  </outline>
</glyph>
<glyph name="l" format="2">
  <advance width="297"/>
  <unicode hex="006C"/>
  <anchor x="179" y="0" name="bottom"/>
  <anchor x="274" y="365" name="center"/>
  <anchor x="125" y="720" name="top"/>
  <anchor x="241" y="752" name="topright"/>
  <outline>
    <contour>
      <point x="211" y="-6" type="curve" smooth="yes"/>
      <point x="238" y="-6"/>
      <point x="284" y="-3"/>
      <point x="284" y="24" type="curve" smooth="yes"/>
      <point x="284" y="32"/>
      <point x="277" y="71"/>
      <point x="263" y="71" type="curve" smooth="yes"/>
      <point x="254" y="71"/>
      <point x="249" y="66"/>
      <point x="220" y="66" type="curve" smooth="yes"/>
      <point x="191" y="66"/>
      <point x="166" y="80"/>
      <point x="166" y="140" type="curve" smooth="yes"/>
      <point x="166" y="730" type="line" smooth="yes"/>
      <point x="166" y="744"/>
      <point x="154" y="752"/>
      <point x="126" y="752" type="curve" smooth="yes"/>
      <point x="122" y="752" type="line" smooth="yes"/>
      <point x="94" y="752"/>
      <point x="82" y="744"/>
      <point x="82" y="730" type="curve" smooth="yes"/>
      <point x="82" y="132" type="line" smooth="yes"/>
      <point x="82" y="16"/>
      <point x="161" y="-6"/>
    </contour>
  </outline>
</glyph>
<glyph name="o" format="2">
  <advance width="569"/>
  <unicode hex="006F"/>
  <anchor x="291" y="0" name="bottom"/>
  <anchor x="376" y="505" name="horn"/>
  <anchor x="334" y="0" name="ogonek"/>
  <anchor x="285" y="523" name="top"/>
  <outline>
    <contour>
      <point x="287" y="-6" type="curve" smooth="yes"/>
      <point x="436" y="-6"/>
      <point x="514" y="86"/>
      <point x="514" y="259" type="curve" smooth="yes"/>
      <point x="514" y="433"/>
      <point x="434" y="529"/>
      <point x="287" y="529" type="curve" smooth="yes"/>
      <point x="138" y="529"/>
      <point x="55" y="432"/>
      <point x="55" y="259" type="curve" smooth="yes"/>
      <point x="55" y="87"/>
      <point x="136" y="-6"/>
    </contour>
    <contour>
      <point x="284" y="66" type="curve" smooth="yes"/>
      <point x="186" y="66"/>
      <point x="143" y="128"/>
      <point x="143" y="261" type="curve" smooth="yes"/>
      <point x="143" y="395"/>
      <point x="187" y="457"/>
      <point x="284" y="457" type="curve" smooth="yes"/>
      <point x="382" y="457"/>
      <point x="427" y="394"/>
      <point x="427" y="261" type="curve" smooth="yes"/>
      <point x="427" y="128"/>
      <point x="382" y="66"/>
    </contour>
  </outline>
</glyph>
<glyph name="s" format="2">
  <advance width="413"/>
  <unicode hex="0073"/>
  <anchor x="207" y="0" name="bottom"/>
  <anchor x="207" y="523" name="top"/>
  <outline>
    <contour>
      <point x="198" y="-9" type="curve" smooth="yes"/>
      <point x="297" y="-9"/>
      <point x="375" y="57"/>
      <point x="375" y="147" type="curve" smooth="yes"/>
      <point x="375" y="246"/>
      <point x="306" y="286"/>
      <point x="215" y="316" type="curve" smooth="yes"/>
      <point x="154" y="336"/>
      <point x="137" y="354"/>
      <point x="137" y="392" type="curve" smooth="yes"/>
      <point x="137" y="434"/>
      <point x="176" y="459"/>
      <point x="226" y="459" type="curve" smooth="yes"/>
      <point x="280" y="459"/>
      <point x="312" y="433"/>
      <point x="317" y="433" type="curve" smooth="yes"/>
      <point x="330" y="433"/>
      <point x="349" y="471"/>
      <point x="349" y="487" type="curve" smooth="yes"/>
      <point x="349" y="509"/>
      <point x="285" y="530"/>
      <point x="217" y="530" type="curve" smooth="yes"/>
      <point x="120" y="530"/>
      <point x="51" y="469"/>
      <point x="51" y="385" type="curve" smooth="yes"/>
      <point x="51" y="282"/>
      <point x="120" y="252"/>
      <point x="190" y="229" type="curve" smooth="yes"/>
      <point x="247" y="210"/>
      <point x="290" y="191"/>
      <point x="290" y="138" type="curve" smooth="yes"/>
      <point x="290" y="90"/>
      <point x="256" y="64"/>
      <point x="192" y="64" type="curve" smooth="yes"/>
      <point x="121" y="64"/>
      <point x="81" y="104"/>
      <point x="74" y="104" type="curve" smooth="yes"/>
      <point x="60" y="104"/>
      <point x="39" y="65"/>
      <point x="39" y="54" type="curve" smooth="yes"/>
      <point x="39" y="31"/>
      <point x="107" y="-9"/>
    </contour>
  </outline>
</glyph>
<glyph name="t" format="2">
  <advance width="342"/>
  <unicode hex="0074"/>
  <anchor x="213" y="0" name="bottom"/>
  <anchor x="171" y="270" name="center"/>
  <anchor x="160" y="635" name="top"/>
  <anchor x="282" y="750" name="topright"/>
  <outline>
    <contour>
      <point x="236" y="-6" type="curve" smooth="yes"/>
      <point x="263" y="-6"/>
      <point x="309" y="-3"/>
      <point x="309" y="24" type="curve" smooth="yes"/>
      <point x="309" y="32"/>
      <point x="302" y="71"/>
      <point x="288" y="71" type="curve" smooth="yes"/>
      <point x="279" y="71"/>
      <point x="274" y="66"/>
      <point x="245" y="66" type="curve" smooth="yes"/>
      <point x="216" y="66"/>
      <point x="191" y="80"/>
      <point x="191" y="140" type="curve" smooth="yes"/>
      <point x="191" y="451" type="line"/>
      <point x="275" y="451" type="line" smooth="yes"/>
      <point x="289" y="451"/>
      <point x="295" y="460"/>
      <point x="295" y="481" type="curve" smooth="yes"/>
      <point x="295" y="493" type="line" smooth="yes"/>
      <point x="295" y="514"/>
      <point x="289" y="523"/>
      <point x="275" y="523" type="curve" smooth="yes"/>
      <point x="191" y="523" type="line"/>
      <point x="191" y="628" type="line" smooth="yes"/>
      <point x="191" y="642"/>
      <point x="182" y="650"/>
      <point x="161" y="650" type="curve" smooth="yes"/>
      <point x="151" y="650" type="line" smooth="yes"/>
      <point x="130" y="650"/>
      <point x="120.5" y="642"/>
      <point x="119" y="628" type="curve" smooth="yes"/>
      <point x="107" y="523" type="line"/>
      <point x="57" y="523" type="line" smooth="yes"/>
      <point x="43" y="523"/>
      <point x="37" y="514"/>
      <point x="37" y="493" type="curve" smooth="yes"/>
      <point x="37" y="481" type="line" smooth="yes"/>
      <point x="37" y="460"/>
      <point x="43" y="451"/>
      <point x="57" y="451" type="curve" smooth="yes"/>
      <point x="107" y="451" type="line"/>
      <point x="107" y="132" type="line" smooth="yes"/>
      <point x="107" y="16"/>
      <point x="186" y="-6"/>
    </contour>
  </outline>
</glyph>
<glyph name="u" format="2">
  <advance width="557"/>
  <unicode hex="0075"/>
  <anchor x="251" y="0" name="bottom"/>
  <anchor x="427" y="525" name="horn"/>
  <anchor x="475" y="0" name="ogonek"/>
  <anchor x="271" y="523" name="top"/>
  <outline>
    <contour>
      <point x="238" y="-6" type="curve" smooth="yes"/>
      <point x="294" y="-6"/>
      <point x="352" y="22"/>
      <point x="394" y="69" type="curve"/>
      <point x="400" y="41"/>
      <point x="405" y="-1"/>
      <point x="429" y="-1" type="curve" smooth="yes"/>
      <point x="442" y="-1"/>
      <point x="483" y="3"/>
      <point x="483" y="22" type="curve" smooth="yes"/>
      <point x="483" y="27"/>
      <point x="471" y="66"/>
      <point x="471" y="148" type="curve" smooth="yes"/>
      <point x="471" y="503" type="line" smooth="yes"/>
      <point x="471" y="517"/>
      <point x="459" y="525"/>
      <point x="431" y="525" type="curve" smooth="yes"/>
      <point x="427" y="525" type="line" smooth="yes"/>
      <point x="399" y="525"/>
      <point x="387" y="517"/>
      <point x="387" y="503" type="curve" smooth="yes"/>
      <point x="387" y="137" type="line"/>
      <point x="354" y="94"/>
      <point x="306" y="67"/>
      <point x="261" y="67" type="curve" smooth="yes"/>
      <point x="196" y="67"/>
      <point x="159" y="103"/>
      <point x="159" y="164" type="curve" smooth="yes"/>
      <point x="159" y="503" type="line" smooth="yes"/>
      <point x="159" y="517"/>
      <point x="147" y="525"/>
      <point x="119" y="525" type="curve" smooth="yes"/>
      <point x="115" y="525" type="line" smooth="yes"/>
      <point x="87" y="525"/>
      <point x="75" y="517"/>
      <point x="75" y="503" type="curve" smooth="yes"/>
      <point x="75" y="156" type="line" smooth="yes"/>
      <point x="75" y="55"/>
      <point x="136" y="-6"/>
    </contour>
  </outline>
</glyph>
<glyph name="v" format="2">
  <advance width="485"/>
  <unicode hex="0076"/>
  <outline>
    <contour>
      <point x="225" y="-2" type="curve" smooth="yes"/>
      <point x="260" y="-2" type="line" smooth="yes"/>
      <point x="280" y="-2"/>
      <point x="296" y="2"/>
      <point x="300" y="14" type="curve" smooth="yes"/>
      <point x="461" y="494" type="line" smooth="yes"/>
      <point x="463" y="500"/>
      <point x="464" y="504"/>
      <point x="464" y="508" type="curve" smooth="yes"/>
      <point x="464" y="519"/>
      <point x="453" y="525"/>
      <point x="427" y="525" type="curve"/>
      <point x="424" y="525" type="line"/>
      <point x="403" y="525"/>
      <point x="387" y="521"/>
      <point x="383" y="509" type="curve" smooth="yes"/>
      <point x="286" y="206" type="line" smooth="yes"/>
      <point x="267" y="150"/>
      <point x="256" y="99"/>
      <point x="248" y="65" type="curve"/>
      <point x="244" y="65" type="line"/>
      <point x="236" y="99"/>
      <point x="223" y="150"/>
      <point x="211" y="190" type="curve" smooth="yes"/>
      <point x="109" y="509" type="line" smooth="yes"/>
      <point x="105" y="521"/>
      <point x="89" y="525"/>
      <point x="69" y="525" type="curve" smooth="yes"/>
      <point x="64" y="525" type="line" smooth="yes"/>
      <point x="34" y="525"/>
      <point x="21" y="518"/>
      <point x="21" y="508" type="curve" smooth="yes"/>
      <point x="21" y="504"/>
      <point x="23" y="498"/>
      <point x="24" y="495" type="curve" smooth="yes"/>
      <point x="185" y="14" type="line" smooth="yes"/>
      <point x="189" y="2"/>
      <point x="205" y="-2"/>
    </contour>
  </outline>
</glyph>
<glyph name="w" format="2">
  <advance width="747"/>
  <unicode hex="0077"/>
  <anchor x="374" y="523" name="top"/>
  <outline>
    <contour>
      <point x="208" y="-2" type="curve" smooth="yes"/>
      <point x="238" y="-2" type="line" smooth="yes"/>
      <point x="258" y="-2"/>
      <point x="275" y="2"/>
      <point x="278" y="14" type="curve" smooth="yes"/>
      <point x="360" y="332" type="line" smooth="yes"/>
      <point x="364" y="349"/>
      <point x="369" y="380"/>
      <point x="374" y="410" type="curve"/>
      <point x="376" y="410" type="line"/>
      <point x="381" y="380"/>
      <point x="386" y="348"/>
      <point x="390" y="331" type="curve" smooth="yes"/>
      <point x="470" y="14" type="line" smooth="yes"/>
      <point x="473" y="2"/>
      <point x="489" y="-2"/>
      <point x="509" y="-2" type="curve" smooth="yes"/>
      <point x="539" y="-2" type="line" smooth="yes"/>
      <point x="559" y="-2"/>
      <point x="576" y="2"/>
      <point x="579" y="14" type="curve" smooth="yes"/>
      <point x="713" y="494" type="line" smooth="yes"/>
      <point x="715" y="500"/>
      <point x="716" y="504"/>
      <point x="716" y="508" type="curve" smooth="yes"/>
      <point x="716" y="519"/>
      <point x="703" y="525"/>
      <point x="676" y="525" type="curve" smooth="yes"/>
      <point x="656" y="525"/>
      <point x="638" y="521"/>
      <point x="635" y="509" type="curve" smooth="yes"/>
      <point x="551" y="188" type="line" smooth="yes"/>
      <point x="543" y="159"/>
      <point x="536" y="108"/>
      <point x="529" y="72" type="curve"/>
      <point x="527" y="72" type="line"/>
      <point x="521" y="106"/>
      <point x="517" y="136"/>
      <point x="503" y="190" type="curve" smooth="yes"/>
      <point x="419" y="508" type="line" smooth="yes"/>
      <point x="416" y="521"/>
      <point x="400" y="525"/>
      <point x="380" y="525" type="curve" smooth="yes"/>
      <point x="373" y="525" type="line" smooth="yes"/>
      <point x="353" y="525"/>
      <point x="337" y="521"/>
      <point x="334" y="508" type="curve" smooth="yes"/>
      <point x="251" y="190" type="line" smooth="yes"/>
      <point x="244" y="163"/>
      <point x="235" y="113"/>
      <point x="228" y="74" type="curve"/>
      <point x="224" y="74" type="line"/>
      <point x="216" y="112"/>
      <point x="207" y="167"/>
      <point x="201" y="189" type="curve" smooth="yes"/>
      <point x="117" y="509" type="line" smooth="yes"/>
      <point x="114" y="521"/>
      <point x="97" y="525"/>
      <point x="77" y="525" type="curve" smooth="yes"/>
      <point x="44" y="525"/>
      <point x="31" y="518"/>
      <point x="31" y="508" type="curve" smooth="yes"/>
      <point x="31" y="504"/>
      <point x="34" y="494"/>
      <point x="36" y="488" type="curve" smooth="yes"/>
      <point x="168" y="14" type="line"/>
      <point x="171" y="2"/>
      <point x="188" y="-2"/>
    </contour>
  </outline>
</glyph>
<glyph name="y" format="2">
  <advance width="481"/>
  <unicode hex="0079"/>
  <anchor x="346" y="0" name="bottom"/>
  <anchor x="241" y="523" name="top"/>
  <outline>
    <contour>
      <point x="140" y="-208" type="curve" smooth="yes"/>
      <point x="155" y="-208" type="line" smooth="yes"/>
      <point x="179" y="-208"/>
      <point x="196" y="-202"/>
      <point x="202" y="-187" type="curve" smooth="yes"/>
      <point x="459" y="494" type="line" smooth="yes"/>
      <point x="461" y="500"/>
      <point x="462" y="504"/>
      <point x="462" y="508" type="curve" smooth="yes"/>
      <point x="462" y="519"/>
      <point x="450" y="525"/>
      <point x="422" y="525" type="curve"/>
      <point x="419" y="525" type="line"/>
      <point x="398" y="525"/>
      <point x="382" y="521"/>
      <point x="378" y="509" type="curve" smooth="yes"/>
      <point x="278" y="238" type="line" smooth="yes"/>
      <point x="266.5" y="207"/>
      <point x="255" y="168"/>
      <point x="245" y="137" type="curve"/>
      <point x="243" y="137" type="line"/>
      <point x="234" y="169"/>
      <point x="223" y="205"/>
      <point x="211" y="238" type="curve" smooth="yes"/>
      <point x="109" y="509" type="line" smooth="yes"/>
      <point x="104.5" y="521"/>
      <point x="89" y="525"/>
      <point x="69" y="525" type="curve" smooth="yes"/>
      <point x="61" y="525" type="line" smooth="yes"/>
      <point x="31" y="525"/>
      <point x="18" y="518"/>
      <point x="18" y="508" type="curve" smooth="yes"/>
      <point x="18" y="504"/>
      <point x="20" y="498"/>
      <point x="21" y="495" type="curve" smooth="yes"/>
      <point x="209" y="-5" type="line"/>
      <point x="209" y="60" type="line"/>
      <point x="112" y="-175" type="line"/>
      <point x="107" y="-188"/>
      <point x="107" y="-190"/>
      <point x="107" y="-192" type="curve" smooth="yes"/>
      <point x="107" y="-202"/>
      <point x="118" y="-208"/>
    </contour>
  </outline>
</glyph>
<glyph name="braceright" format="2">
  <advance width="274"/>
  <unicode hex="007D"/>
  <outline>
    <contour>
      <point x="50" y="-138" type="curve" smooth="yes"/>
      <point x="100" y="-138" type="line" smooth="yes"/>
      <point x="126" y="-138"/>
      <point x="178" y="-119"/>
      <point x="178" y="-22" type="curve" smooth="yes"/>
      <point x="178" y="145" type="line" smooth="yes"/>
      <point x="178" y="211"/>
      <point x="185" y="254"/>
      <point x="229" y="274" type="curve" smooth="yes"/>
      <point x="245" y="281"/>
      <point x="254" y="290"/>
      <point x="254" y="308" type="curve" smooth="yes"/>
      <point x="254" y="322" type="line" smooth="yes"/>
      <point x="254" y="340"/>
      <point x="245" y="349"/>
      <point x="229" y="356" type="curve" smooth="yes"/>
      <point x="185" y="375.5"/>
      <point x="178" y="418"/>
      <point x="178" y="485" type="curve" smooth="yes"/>
      <point x="178" y="652" type="line" smooth="yes"/>
      <point x="178" y="747"/>
      <point x="126" y="768"/>
      <point x="100" y="768" type="curve" smooth="yes"/>
      <point x="50" y="768" type="line" smooth="yes"/>
      <point x="36" y="768"/>
      <point x="30" y="760"/>
      <point x="30" y="739" type="curve" smooth="yes"/>
      <point x="30" y="735" type="line" smooth="yes"/>
      <point x="30" y="714"/>
      <point x="36" y="706"/>
      <point x="50" y="706" type="curve" smooth="yes"/>
      <point x="72" y="706" type="line" smooth="yes"/>
      <point x="100" y="706"/>
      <point x="106" y="684"/>
      <point x="106" y="645" type="curve" smooth="yes"/>
      <point x="106" y="469" type="line" smooth="yes"/>
      <point x="106" y="371"/>
      <point x="167" y="326"/>
      <point x="184" y="314" type="curve"/>
      <point x="169" y="307"/>
      <point x="106" y="262"/>
      <point x="106" y="161" type="curve" smooth="yes"/>
      <point x="106" y="-14" type="line" smooth="yes"/>
      <point x="106" y="-53"/>
      <point x="100" y="-76"/>
      <point x="72" y="-76" type="curve" smooth="yes"/>
      <point x="50" y="-76" type="line" smooth="yes"/>
      <point x="36" y="-76"/>
      <point x="30" y="-84"/>
      <point x="30" y="-105" type="curve" smooth="yes"/>
      <point x="30" y="-109" type="line" smooth="yes"/>
      <point x="30" y="-130"/>
      <point x="36" y="-138"/>
    </contour>
  </outline>
</glyph>
<glyph name="asciitilde" format="2">
  <advance width="560"/>
  <unicode hex="007E"/>
  <outline>
    <contour>
      <point x="105" y="214" type="curve" smooth="yes"/>
      <point x="119" y="214"/>
      <point x="125" y="256"/>
      <point x="178" y="256" type="curve" smooth="yes"/>
      <point x="231" y="256"/>
      <point x="310" y="215"/>
      <point x="372" y="215" type="curve" smooth="yes"/>
      <point x="422" y="215"/>
      <point x="455" y="233"/>
      <point x="475" y="282" type="curve" smooth="yes"/>
      <point x="478" y="290"/>
      <point x="480" y="293"/>
      <point x="480" y="297" type="curve" smooth="yes"/>
      <point x="480" y="307"/>
      <point x="459" y="315"/>
      <point x="453" y="315" type="curve" smooth="yes"/>
      <point x="438" y="315"/>
      <point x="437" y="273"/>
      <point x="380" y="273" type="curve" smooth="yes"/>
      <point x="325" y="273"/>
      <point x="252" y="312"/>
      <point x="178" y="312" type="curve" smooth="yes"/>
      <point x="122" y="312"/>
      <point x="98" y="280"/>
      <point x="86" y="254" type="curve" smooth="yes"/>
      <point x="82" y="244"/>
      <point x="80" y="237"/>
      <point x="80" y="230" type="curve" smooth="yes"/>
      <point x="80" y="222"/>
      <point x="95" y="214"/>
    </contour>
  </outline>
</glyph>
<glyph name="exclamdown" format="2">
  <advance width="294"/>
  <unicode hex="00A1"/>
  <outline>
    <contour>
      <point x="123" y="-179" type="curve" smooth="yes"/>
      <point x="143" y="-179" type="line" smooth="yes"/>
      <point x="171" y="-179"/>
      <point x="183" y="-171"/>
      <point x="183" y="-157" type="curve" smooth="yes"/>
      <point x="183" y="299" type="line" smooth="yes"/>
      <point x="183" y="313"/>
      <point x="174" y="321"/>
      <point x="153" y="321" type="curve" smooth="yes"/>
      <point x="142" y="321" type="line" smooth="yes"/>
      <point x="121" y="321"/>
      <point x="112" y="313"/>
      <point x="111" y="299" type="curve" smooth="yes"/>
      <point x="100" y="147"/>
      <point x="84" y="-132"/>
      <point x="84" y="-157" type="curve"/>
      <point x="84" y="-171"/>
      <point x="95" y="-179"/>
    </contour>
    <contour>
      <point x="138" y="415" type="curve" smooth="yes"/>
      <point x="155" y="415" type="line" smooth="yes"/>
      <point x="183" y="415"/>
      <point x="195" y="423"/>
      <point x="195" y="437" type="curve" smooth="yes"/>
      <point x="195" y="503" type="line" smooth="yes"/>
      <point x="195" y="517"/>
      <point x="183" y="525"/>
      <point x="155" y="525" type="curve" smooth="yes"/>
      <point x="138" y="525" type="line" smooth="yes"/>
      <point x="110" y="525"/>
      <point x="98" y="517"/>
      <point x="98" y="503" type="curve" smooth="yes"/>
      <point x="98" y="437" type="line" smooth="yes"/>
      <point x="98" y="423"/>
      <point x="110" y="415"/>
    </contour>
  </outline>
</glyph>
<glyph name="cent" format="2">
  <advance width="470"/>
  <unicode hex="00A2"/>
  <outline>
    <contour>
      <point x="283" y="-71" type="curve" smooth="yes"/>
      <point x="288" y="-71" type="line" smooth="yes"/>
      <point x="305" y="-71"/>
      <point x="314" y="-65"/>
      <point x="314" y="-53" type="curve" smooth="yes"/>
      <point x="314" y="571" type="line" smooth="yes"/>
      <point x="314" y="583"/>
      <point x="305" y="589"/>
      <point x="288" y="589" type="curve" smooth="yes"/>
      <point x="283" y="589" type="line" smooth="yes"/>
      <point x="266" y="589"/>
      <point x="257" y="583"/>
      <point x="257" y="571" type="curve" smooth="yes"/>
      <point x="257" y="-53" type="line" smooth="yes"/>
      <point x="257" y="-65"/>
      <point x="266" y="-71"/>
    </contour>
    <component base="c" xOffset="-12"/>
  </outline>
</glyph>
<glyph name="sterling" format="2">
  <advance width="530"/>
  <unicode hex="00A3"/>
  <outline>
    <contour>
      <point x="75" y="0" type="curve" smooth="yes"/>
      <point x="448" y="0" type="line" smooth="yes"/>
      <point x="462" y="0"/>
      <point x="468" y="9"/>
      <point x="468" y="30" type="curve" smooth="yes"/>
      <point x="468" y="42" type="line" smooth="yes"/>
      <point x="468" y="63"/>
      <point x="462" y="72"/>
      <point x="448" y="72" type="curve" smooth="yes"/>
      <point x="168" y="72" type="line"/>
      <point x="189" y="85"/>
      <point x="225" y="111"/>
      <point x="225" y="249" type="curve" smooth="yes"/>
      <point x="225" y="339" type="line"/>
      <point x="372" y="339" type="line" smooth="yes"/>
      <point x="386" y="339"/>
      <point x="392" y="348"/>
      <point x="392" y="369" type="curve" smooth="yes"/>
      <point x="392" y="381" type="line" smooth="yes"/>
      <point x="392" y="402"/>
      <point x="386" y="411"/>
      <point x="372" y="411" type="curve" smooth="yes"/>
      <point x="225" y="411" type="line"/>
      <point x="225" y="503" type="line" smooth="yes"/>
      <point x="225" y="594"/>
      <point x="266" y="634"/>
      <point x="362" y="634" type="curve" smooth="yes"/>
      <point x="394" y="634"/>
      <point x="417" y="625"/>
      <point x="425" y="625" type="curve" smooth="yes"/>
      <point x="441" y="625"/>
      <point x="447" y="670"/>
      <point x="447" y="674" type="curve" smooth="yes"/>
      <point x="447" y="701"/>
      <point x="384" y="706"/>
      <point x="346" y="706" type="curve" smooth="yes"/>
      <point x="197" y="706"/>
      <point x="141" y="624"/>
      <point x="141" y="498" type="curve" smooth="yes"/>
      <point x="141" y="411" type="line"/>
      <point x="86" y="411" type="line" smooth="yes"/>
      <point x="72" y="411"/>
      <point x="66" y="402"/>
      <point x="66" y="381" type="curve" smooth="yes"/>
      <point x="66" y="369" type="line" smooth="yes"/>
      <point x="66" y="348"/>
      <point x="72" y="339"/>
      <point x="86" y="339" type="curve" smooth="yes"/>
      <point x="141" y="339" type="line"/>
      <point x="141" y="159" type="line" smooth="yes"/>
      <point x="141" y="73"/>
      <point x="55" y="89"/>
      <point x="55" y="46" type="curve" smooth="yes"/>
      <point x="55" y="30" type="line" smooth="yes"/>
      <point x="55" y="9"/>
      <point x="61" y="0"/>
    </contour>
  </outline>
</glyph>
<glyph name="currency" format="2">
  <advance width="550"/>
  <unicode hex="00A4"/>
  <outline>
    <contour>
      <point x="126" y="143" type="curve" smooth="yes"/>
      <point x="133" y="143"/>
      <point x="140" y="146"/>
      <point x="147" y="153" type="curve" smooth="yes"/>
      <point x="172" y="178" type="line"/>
      <point x="201" y="157"/>
      <point x="237" y="145"/>
      <point x="276" y="145" type="curve" smooth="yes"/>
      <point x="315" y="145"/>
      <point x="350" y="157"/>
      <point x="380" y="178" type="curve"/>
      <point x="404" y="154" type="line" smooth="yes"/>
      <point x="412" y="146"/>
      <point x="418" y="143"/>
      <point x="425" y="143" type="curve" smooth="yes"/>
      <point x="432" y="143"/>
      <point x="438" y="147"/>
      <point x="443" y="152" type="curve" smooth="yes"/>
      <point x="444" y="153" type="line" smooth="yes"/>
      <point x="449" y="158"/>
      <point x="454" y="167"/>
      <point x="454" y="172" type="curve" smooth="yes"/>
      <point x="454" y="179"/>
      <point x="450" y="186"/>
      <point x="443" y="193" type="curve" smooth="yes"/>
      <point x="419" y="217" type="line"/>
      <point x="441" y="246"/>
      <point x="454" y="282"/>
      <point x="454" y="322" type="curve" smooth="yes"/>
      <point x="454" y="361"/>
      <point x="441" y="397"/>
      <point x="419" y="426" type="curve"/>
      <point x="443" y="450" type="line" smooth="yes"/>
      <point x="451" y="458"/>
      <point x="454" y="465"/>
      <point x="454" y="472" type="curve" smooth="yes"/>
      <point x="454" y="478"/>
      <point x="451" y="483"/>
      <point x="445" y="489" type="curve" smooth="yes"/>
      <point x="443" y="491" type="line" smooth="yes"/>
      <point x="437" y="497"/>
      <point x="429" y="500"/>
      <point x="424" y="500" type="curve" smooth="yes"/>
      <point x="417" y="500"/>
      <point x="410" y="496"/>
      <point x="404" y="490" type="curve" smooth="yes"/>
      <point x="380" y="466" type="line"/>
      <point x="351" y="487"/>
      <point x="315" y="500"/>
      <point x="276" y="500" type="curve" smooth="yes"/>
      <point x="237" y="500"/>
      <point x="201" y="487"/>
      <point x="171" y="465" type="curve"/>
      <point x="147" y="489" type="line" smooth="yes"/>
      <point x="139" y="497"/>
      <point x="132" y="501"/>
      <point x="125" y="501" type="curve" smooth="yes"/>
      <point x="119" y="501"/>
      <point x="114" y="498"/>
      <point x="109" y="493" type="curve" smooth="yes"/>
      <point x="102" y="486" type="line" smooth="yes"/>
      <point x="99" y="483"/>
      <point x="96" y="477"/>
      <point x="96" y="474" type="curve" smooth="yes"/>
      <point x="96" y="466"/>
      <point x="99" y="460"/>
      <point x="109" y="450" type="curve" smooth="yes"/>
      <point x="133" y="427" type="line"/>
      <point x="111" y="397"/>
      <point x="99" y="361"/>
      <point x="99" y="322" type="curve" smooth="yes"/>
      <point x="99" y="282"/>
      <point x="111" y="246"/>
      <point x="133" y="217" type="curve"/>
      <point x="109" y="193" type="line" smooth="yes"/>
      <point x="102" y="186"/>
      <point x="98" y="178"/>
      <point x="98" y="171" type="curve" smooth="yes"/>
      <point x="98" y="164"/>
      <point x="101" y="159"/>
      <point x="106" y="154" type="curve" smooth="yes"/>
      <point x="108" y="152" type="line" smooth="yes"/>
      <point x="114" y="146"/>
      <point x="121" y="143"/>
    </contour>
    <contour>
      <point x="276" y="206" type="curve" smooth="yes"/>
      <point x="212" y="206"/>
      <point x="160" y="258"/>
      <point x="160" y="322" type="curve" smooth="yes"/>
      <point x="160" y="386"/>
      <point x="212" y="439"/>
      <point x="276" y="439" type="curve" smooth="yes"/>
      <point x="340" y="439"/>
      <point x="393" y="386"/>
      <point x="393" y="322" type="curve" smooth="yes"/>
      <point x="393" y="258"/>
      <point x="340" y="206"/>
    </contour>
  </outline>
</glyph>
<glyph name="yen" format="2">
  <advance width="600"/>
  <unicode hex="00A5"/>
  <outline>
    <contour>
      <point x="89" y="355" type="curve"/>
      <point x="513" y="355" type="line"/>
      <point x="527" y="355"/>
      <point x="533" y="364"/>
      <point x="533" y="385" type="curve" smooth="yes"/>
      <point x="533" y="392" type="line" smooth="yes"/>
      <point x="533" y="413"/>
      <point x="527" y="422"/>
      <point x="513" y="422" type="curve"/>
      <point x="334" y="422" type="line"/>
      <point x="301" y="402" type="line"/>
      <point x="268" y="422" type="line"/>
      <point x="89" y="422" type="line"/>
      <point x="75" y="422"/>
      <point x="69" y="413"/>
      <point x="69" y="392" type="curve" smooth="yes"/>
      <point x="69" y="385" type="line" smooth="yes"/>
      <point x="69" y="364"/>
      <point x="75" y="355"/>
    </contour>
    <contour>
      <point x="89" y="192" type="curve"/>
      <point x="513" y="192" type="line"/>
      <point x="527" y="192"/>
      <point x="533" y="201"/>
      <point x="533" y="222" type="curve" smooth="yes"/>
      <point x="533" y="229" type="line" smooth="yes"/>
      <point x="533" y="250"/>
      <point x="527" y="259"/>
      <point x="513" y="259" type="curve"/>
      <point x="89" y="259" type="line"/>
      <point x="75" y="259"/>
      <point x="69" y="250"/>
      <point x="69" y="229" type="curve" smooth="yes"/>
      <point x="69" y="222" type="line" smooth="yes"/>
      <point x="69" y="201"/>
      <point x="75" y="192"/>
    </contour>
    <component base="Y" xOffset="21"/>
  </outline>
</glyph>
<glyph name="dieresis" format="2">
  <advance width="238"/>
  <unicode hex="00A8"/>
  <outline>
    <contour>
      <point x="194" y="597" type="curve" smooth="yes"/>
      <point x="225" y="597"/>
      <point x="238" y="604"/>
      <point x="238" y="619" type="curve" smooth="yes"/>
      <point x="238" y="675" type="line" smooth="yes"/>
      <point x="238" y="690"/>
      <point x="225" y="697"/>
      <point x="194" y="697" type="curve" smooth="yes"/>
      <point x="163" y="697"/>
      <point x="150" y="690"/>
      <point x="150" y="675" type="curve" smooth="yes"/>
      <point x="150" y="619" type="line" smooth="yes"/>
      <point x="150" y="604"/>
      <point x="163" y="597"/>
    </contour>
    <contour>
      <point x="44" y="597" type="curve" smooth="yes"/>
      <point x="75" y="597"/>
      <point x="88" y="604"/>
      <point x="88" y="619" type="curve" smooth="yes"/>
      <point x="88" y="675" type="line" smooth="yes"/>
      <point x="88" y="690"/>
      <point x="75" y="697"/>
      <point x="44" y="697" type="curve" smooth="yes"/>
      <point x="13" y="697"/>
      <point x="0" y="690"/>
      <point x="0" y="675" type="curve" smooth="yes"/>
      <point x="0" y="619" type="line" smooth="yes"/>
      <point x="0" y="604"/>
      <point x="13" y="597"/>
    </contour>
  </outline>
</glyph>
<glyph name="ordfeminine" format="2">
  <advance width="319"/>
  <unicode hex="00AA"/>
  <outline>
    <contour>
      <point x="127" y="441" type="curve" smooth="yes"/>
      <point x="165" y="441"/>
      <point x="191" y="456"/>
      <point x="209" y="475" type="curve"/>
      <point x="211" y="462"/>
      <point x="215" y="442"/>
      <point x="230" y="442" type="curve" smooth="yes"/>
      <point x="236" y="442"/>
      <point x="261" y="444"/>
      <point x="261" y="453" type="curve" smooth="yes"/>
      <point x="261" y="456"/>
      <point x="255" y="476"/>
      <point x="255" y="517" type="curve" smooth="yes"/>
      <point x="255" y="628" type="line" smooth="yes"/>
      <point x="255" y="677"/>
      <point x="214" y="706"/>
      <point x="155" y="706" type="curve" smooth="yes"/>
      <point x="104" y="706"/>
      <point x="60" y="687"/>
      <point x="60" y="674" type="curve" smooth="yes"/>
      <point x="60" y="668"/>
      <point x="71" y="644"/>
      <point x="78" y="644" type="curve" smooth="yes"/>
      <point x="83" y="644"/>
      <point x="110" y="662"/>
      <point x="155" y="662" type="curve" smooth="yes"/>
      <point x="193" y="662"/>
      <point x="206" y="649"/>
      <point x="206" y="627" type="curve" smooth="yes"/>
      <point x="206" y="605" type="line"/>
      <point x="129" y="604"/>
      <point x="45" y="599"/>
      <point x="45" y="515" type="curve" smooth="yes"/>
      <point x="45" y="465"/>
      <point x="82" y="441"/>
    </contour>
    <contour>
      <point x="134" y="489" type="curve" smooth="yes"/>
      <point x="107" y="489"/>
      <point x="93" y="500"/>
      <point x="93" y="520" type="curve" smooth="yes"/>
      <point x="93" y="561"/>
      <point x="157" y="561"/>
      <point x="206" y="561" type="curve"/>
      <point x="206" y="519" type="line"/>
      <point x="187" y="503"/>
      <point x="162" y="489"/>
    </contour>
  </outline>
</glyph>
<glyph name="guillemetleft" format="2">
  <advance width="470"/>
  <unicode hex="00AB"/>
  <outline>
    <contour>
      <point x="375" y="61" type="curve" smooth="yes"/>
      <point x="391" y="61"/>
      <point x="410" y="82"/>
      <point x="410" y="94" type="curve" smooth="yes"/>
      <point x="410" y="100"/>
      <point x="407" y="106"/>
      <point x="402" y="113" type="curve" smooth="yes"/>
      <point x="291" y="258" type="line"/>
      <point x="402" y="402" type="line" smooth="yes"/>
      <point x="407" y="409"/>
      <point x="410" y="416"/>
      <point x="410" y="422" type="curve" smooth="yes"/>
      <point x="410" y="439"/>
      <point x="387" y="454"/>
      <point x="375" y="454" type="curve" smooth="yes"/>
      <point x="367" y="454"/>
      <point x="360" y="450"/>
      <point x="353" y="442" type="curve" smooth="yes"/>
      <point x="223" y="286" type="line" smooth="yes"/>
      <point x="214" y="275"/>
      <point x="210" y="267"/>
      <point x="210" y="258" type="curve" smooth="yes"/>
      <point x="210" y="249"/>
      <point x="214" y="241"/>
      <point x="223" y="230" type="curve"/>
      <point x="353" y="74" type="line" smooth="yes"/>
      <point x="360" y="66"/>
      <point x="367" y="61"/>
    </contour>
    <contour>
      <point x="203" y="61" type="curve" smooth="yes"/>
      <point x="219" y="61"/>
      <point x="238" y="82"/>
      <point x="238" y="94" type="curve" smooth="yes"/>
      <point x="238" y="100"/>
      <point x="235" y="106"/>
      <point x="230" y="113" type="curve" smooth="yes"/>
      <point x="119" y="258" type="line"/>
      <point x="230" y="402" type="line" smooth="yes"/>
      <point x="235" y="409"/>
      <point x="238" y="416"/>
      <point x="238" y="422" type="curve" smooth="yes"/>
      <point x="238" y="439"/>
      <point x="215" y="454"/>
      <point x="203" y="454" type="curve" smooth="yes"/>
      <point x="195" y="454"/>
      <point x="188" y="450"/>
      <point x="181" y="442" type="curve" smooth="yes"/>
      <point x="51" y="286" type="line" smooth="yes"/>
      <point x="42" y="275"/>
      <point x="38" y="267"/>
      <point x="38" y="258" type="curve" smooth="yes"/>
      <point x="38" y="249"/>
      <point x="42" y="241"/>
      <point x="51" y="230" type="curve" smooth="yes"/>
      <point x="181" y="74" type="line" smooth="yes"/>
      <point x="188" y="66"/>
      <point x="195" y="61"/>
    </contour>
  </outline>
</glyph>
<glyph name="logicalnot" format="2">
  <advance width="560"/>
  <unicode hex="00AC"/>
  <outline>
    <contour>
      <point x="475" y="77" type="curve" smooth="yes"/>
      <point x="490" y="77" type="line" smooth="yes"/>
      <point x="511" y="77"/>
      <point x="520" y="85"/>
      <point x="520" y="99" type="curve" smooth="yes"/>
      <point x="520" y="308" type="line" smooth="yes"/>
      <point x="520" y="329"/>
      <point x="511" y="338"/>
      <point x="490" y="338" type="curve" smooth="yes"/>
      <point x="60" y="338" type="line" smooth="yes"/>
      <point x="46" y="338"/>
      <point x="40" y="329"/>
      <point x="40" y="308" type="curve" smooth="yes"/>
      <point x="40" y="295" type="line" smooth="yes"/>
      <point x="40" y="274"/>
      <point x="46" y="265"/>
      <point x="60" y="265" type="curve" smooth="yes"/>
      <point x="445" y="265" type="line"/>
      <point x="445" y="99" type="line" smooth="yes"/>
      <point x="445" y="85"/>
      <point x="454" y="77"/>
    </contour>
  </outline>
</glyph>
<glyph name="registered" format="2">
  <advance width="739"/>
  <unicode hex="00AE"/>
  <outline>
    <contour>
      <point x="273" y="145" type="curve" smooth="yes"/>
      <point x="277" y="145" type="line" smooth="yes"/>
      <point x="294" y="145"/>
      <point x="301" y="150"/>
      <point x="301" y="158" type="curve" smooth="yes"/>
      <point x="301" y="328" type="line"/>
      <point x="354" y="328" type="line" smooth="yes"/>
      <point x="400" y="328"/>
      <point x="424" y="316"/>
      <point x="442" y="270" type="curve" smooth="yes"/>
      <point x="487" y="154" type="line" smooth="yes"/>
      <point x="489" y="149"/>
      <point x="498" y="145"/>
      <point x="510" y="145" type="curve" smooth="yes"/>
      <point x="516" y="145" type="line" smooth="yes"/>
      <point x="533" y="145"/>
      <point x="541" y="149"/>
      <point x="541" y="154" type="curve" smooth="yes"/>
      <point x="541" y="156"/>
      <point x="540.5" y="159"/>
      <point x="539" y="163" type="curve" smooth="yes"/>
      <point x="493" y="279" type="line" smooth="yes"/>
      <point x="477.5" y="318"/>
      <point x="465" y="344"/>
      <point x="440" y="353" type="curve"/>
      <point x="440" y="355" type="line"/>
      <point x="481" y="371"/>
      <point x="508" y="404"/>
      <point x="508" y="455" type="curve" smooth="yes"/>
      <point x="508" y="529"/>
      <point x="458" y="559"/>
      <point x="366" y="559" type="curve" smooth="yes"/>
      <point x="267" y="559" type="line" smooth="yes"/>
      <point x="254" y="559"/>
      <point x="249" y="554"/>
      <point x="249" y="541" type="curve" smooth="yes"/>
      <point x="249" y="158" type="line" smooth="yes"/>
      <point x="249" y="150"/>
      <point x="256" y="145"/>
    </contour>
    <contour>
      <point x="301" y="373" type="line"/>
      <point x="301" y="514" type="line"/>
      <point x="375" y="514" type="line" smooth="yes"/>
      <point x="422" y="514"/>
      <point x="454" y="493"/>
      <point x="454" y="445" type="curve" smooth="yes"/>
      <point x="454" y="406"/>
      <point x="421" y="373"/>
      <point x="379" y="373" type="curve" smooth="yes"/>
    </contour>
    <contour>
      <point x="369" y="-5" type="curve" smooth="yes"/>
      <point x="568" y="-5"/>
      <point x="729" y="155"/>
      <point x="729" y="354" type="curve" smooth="yes"/>
      <point x="729" y="553"/>
      <point x="568" y="710"/>
      <point x="369" y="710" type="curve" smooth="yes"/>
      <point x="170" y="710"/>
      <point x="10" y="553"/>
      <point x="10" y="354" type="curve" smooth="yes"/>
      <point x="10" y="155"/>
      <point x="170" y="-5"/>
    </contour>
    <contour>
      <point x="369" y="43" type="curve" smooth="yes"/>
      <point x="198" y="43"/>
      <point x="58" y="183"/>
      <point x="58" y="354" type="curve" smooth="yes"/>
      <point x="58" y="526"/>
      <point x="198" y="662"/>
      <point x="369" y="662" type="curve" smooth="yes"/>
      <point x="541" y="662"/>
      <point x="681" y="526"/>
      <point x="681" y="354" type="curve" smooth="yes"/>
      <point x="681" y="183"/>
      <point x="541" y="43"/>
    </contour>
  </outline>
</glyph>
<glyph name="macron" format="2">
  <advance width="253"/>
  <unicode hex="00AF"/>
  <outline>
    <contour>
      <point x="20" y="612" type="curve"/>
      <point x="233" y="612" type="line" smooth="yes"/>
      <point x="247" y="612"/>
      <point x="253" y="621"/>
      <point x="253" y="642" type="curve" smooth="yes"/>
      <point x="253" y="652" type="line" smooth="yes"/>
      <point x="253" y="673"/>
      <point x="247" y="682"/>
      <point x="233" y="682" type="curve" smooth="yes"/>
      <point x="20" y="682" type="line" smooth="yes"/>
      <point x="6" y="682"/>
      <point x="0" y="673"/>
      <point x="0" y="652" type="curve" smooth="yes"/>
      <point x="0" y="642" type="line" smooth="yes"/>
      <point x="0" y="621"/>
      <point x="6" y="612"/>
    </contour>
  </outline>
</glyph>
<glyph name="degree" format="2">
  <advance width="345"/>
  <unicode hex="00B0"/>
  <outline>
    <contour>
      <point x="172" y="441" type="curve" smooth="yes"/>
      <point x="245" y="441"/>
      <point x="305" y="500"/>
      <point x="305" y="573" type="curve" smooth="yes"/>
      <point x="305" y="646"/>
      <point x="245" y="706"/>
      <point x="172" y="706" type="curve" smooth="yes"/>
      <point x="99" y="706"/>
      <point x="40" y="646"/>
      <point x="40" y="573" type="curve" smooth="yes"/>
      <point x="40" y="500"/>
      <point x="99" y="441"/>
    </contour>
    <contour>
      <point x="172" y="486" type="curve" smooth="yes"/>
      <point x="126" y="486"/>
      <point x="89" y="525"/>
      <point x="89" y="573" type="curve" smooth="yes"/>
      <point x="89" y="621"/>
      <point x="126" y="661"/>
      <point x="172" y="661" type="curve" smooth="yes"/>
      <point x="218" y="661"/>
      <point x="256" y="621"/>
      <point x="256" y="573" type="curve" smooth="yes"/>
      <point x="256" y="525"/>
      <point x="218" y="486"/>
    </contour>
  </outline>
</glyph>
<glyph name="plusminus" format="2">
  <advance width="560"/>
  <unicode hex="00B1"/>
  <outline>
    <contour>
      <point x="277" y="134" type="curve" smooth="yes"/>
      <point x="284" y="134" type="line" smooth="yes"/>
      <point x="305" y="134"/>
      <point x="314" y="140"/>
      <point x="314" y="154" type="curve" smooth="yes"/>
      <point x="314" y="327" type="line"/>
      <point x="490" y="327" type="line" smooth="yes"/>
      <point x="504" y="327"/>
      <point x="510" y="336"/>
      <point x="510" y="357" type="curve" smooth="yes"/>
      <point x="510" y="364" type="line" smooth="yes"/>
      <point x="510" y="385"/>
      <point x="504" y="394"/>
      <point x="490" y="394" type="curve" smooth="yes"/>
      <point x="314" y="394" type="line"/>
      <point x="314" y="573" type="line" smooth="yes"/>
      <point x="314" y="587"/>
      <point x="305" y="593"/>
      <point x="284" y="593" type="curve" smooth="yes"/>
      <point x="277" y="593" type="line" smooth="yes"/>
      <point x="256" y="593"/>
      <point x="247" y="587"/>
      <point x="247" y="573" type="curve" smooth="yes"/>
      <point x="247" y="394" type="line"/>
      <point x="70" y="394" type="line" smooth="yes"/>
      <point x="56" y="394"/>
      <point x="50" y="385"/>
      <point x="50" y="364" type="curve" smooth="yes"/>
      <point x="50" y="357" type="line" smooth="yes"/>
      <point x="50" y="336"/>
      <point x="56" y="327"/>
      <point x="70" y="327" type="curve" smooth="yes"/>
      <point x="247" y="327" type="line"/>
      <point x="247" y="154" type="line" smooth="yes"/>
      <point x="247" y="140"/>
      <point x="256" y="134"/>
    </contour>
    <contour>
      <point x="68" y="1" type="curve" smooth="yes"/>
      <point x="492" y="1" type="line" smooth="yes"/>
      <point x="505" y="1"/>
      <point x="510" y="9"/>
      <point x="510" y="28" type="curve" smooth="yes"/>
      <point x="510" y="41" type="line" smooth="yes"/>
      <point x="510" y="60"/>
      <point x="505" y="68"/>
      <point x="492" y="68" type="curve" smooth="yes"/>
      <point x="68" y="68" type="line" smooth="yes"/>
      <point x="55" y="68"/>
      <point x="50" y="60"/>
      <point x="50" y="41" type="curve" smooth="yes"/>
      <point x="50" y="28" type="line" smooth="yes"/>
      <point x="50" y="9"/>
      <point x="55" y="1"/>
    </contour>
  </outline>
</glyph>
<glyph name="acute" format="2">
  <advance width="161"/>
  <unicode hex="00B4"/>
  <outline>
    <contour>
      <point x="22" y="576" type="curve" smooth="yes"/>
      <point x="49" y="576"/>
      <point x="61" y="579"/>
      <point x="80" y="600" type="curve" smooth="yes"/>
      <point x="134" y="660" type="line" smooth="yes"/>
      <point x="154" y="682"/>
      <point x="161" y="693"/>
      <point x="161" y="702" type="curve" smooth="yes"/>
      <point x="161" y="714"/>
      <point x="143" y="718"/>
      <point x="113" y="718" type="curve" smooth="yes"/>
      <point x="71" y="718"/>
      <point x="60" y="709"/>
      <point x="51" y="692" type="curve" smooth="yes"/>
      <point x="11" y="616" type="line" smooth="yes"/>
      <point x="5" y="604"/>
      <point x="0" y="595"/>
      <point x="0" y="589" type="curve" smooth="yes"/>
      <point x="0" y="581"/>
      <point x="7" y="576"/>
    </contour>
  </outline>
</glyph>
<glyph name="periodcentered" format="2">
  <advance width="267"/>
  <unicode hex="00B7"/>
  <anchor x="133" y="360" name="_center"/>
  <outline>
    <contour>
      <point x="133" y="309" type="curve" smooth="yes"/>
      <point x="162" y="309"/>
      <point x="185" y="331"/>
      <point x="185" y="360" type="curve" smooth="yes"/>
      <point x="185" y="389"/>
      <point x="162" y="412"/>
      <point x="133" y="412" type="curve" smooth="yes"/>
      <point x="104" y="412"/>
      <point x="82" y="389"/>
      <point x="82" y="360" type="curve" smooth="yes"/>
      <point x="82" y="331"/>
      <point x="104" y="309"/>
    </contour>
  </outline>
</glyph>
<glyph name="cedilla" format="2">
  <advance width="230"/>
  <unicode hex="00B8"/>
  <outline>
    <contour>
      <point x="115" y="-210" type="curve" smooth="yes"/>
      <point x="164" y="-210"/>
      <point x="230" y="-199"/>
      <point x="230" y="-125" type="curve" smooth="yes"/>
      <point x="230" y="-80"/>
      <point x="195" y="-54"/>
      <point x="129" y="-54" type="curve"/>
      <point x="138" y="-59" type="line"/>
      <point x="155" y="0" type="line"/>
      <point x="112" y="0" type="line"/>
      <point x="97" y="-53"/>
      <point x="93" y="-68"/>
      <point x="93" y="-76" type="curve" smooth="yes"/>
      <point x="93" y="-103"/>
      <point x="166" y="-82"/>
      <point x="166" y="-126" type="curve" smooth="yes"/>
      <point x="166" y="-157"/>
      <point x="129" y="-161"/>
      <point x="112" y="-161" type="curve" smooth="yes"/>
      <point x="64" y="-161"/>
      <point x="35" y="-141"/>
      <point x="19" y="-141" type="curve" smooth="yes"/>
      <point x="4" y="-141"/>
      <point x="0" y="-155"/>
      <point x="0" y="-167" type="curve" smooth="yes"/>
      <point x="0" y="-194"/>
      <point x="70" y="-210"/>
    </contour>
  </outline>
</glyph>
<glyph name="ordmasculine" format="2">
  <advance width="337"/>
  <unicode hex="00BA"/>
  <outline>
    <contour>
      <point x="170" y="441" type="curve" smooth="yes"/>
      <point x="243" y="441"/>
      <point x="282" y="487"/>
      <point x="282" y="572" type="curve" smooth="yes"/>
      <point x="282" y="659"/>
      <point x="242" y="706"/>
      <point x="170" y="706" type="curve" smooth="yes"/>
      <point x="96" y="706"/>
      <point x="55" y="658"/>
      <point x="55" y="572" type="curve" smooth="yes"/>
      <point x="55" y="487"/>
      <point x="95" y="441"/>
    </contour>
    <contour>
      <point x="168" y="485" type="curve" smooth="yes"/>
      <point x="126" y="485"/>
      <point x="106" y="514"/>
      <point x="106" y="573" type="curve" smooth="yes"/>
      <point x="106" y="634"/>
      <point x="126" y="662"/>
      <point x="168" y="662" type="curve" smooth="yes"/>
      <point x="211" y="662"/>
      <point x="231" y="633"/>
      <point x="231" y="573" type="curve" smooth="yes"/>
      <point x="231" y="514"/>
      <point x="211" y="485"/>
    </contour>
  </outline>
</glyph>
<glyph name="guillemetright" format="2">
  <advance width="470"/>
  <unicode hex="00BB"/>
  <outline>
    <contour>
      <point x="267" y="61" type="curve" smooth="yes"/>
      <point x="275" y="61"/>
      <point x="282" y="66"/>
      <point x="289" y="74" type="curve" smooth="yes"/>
      <point x="419" y="230" type="line" smooth="yes"/>
      <point x="428" y="241"/>
      <point x="432" y="249"/>
      <point x="432" y="258" type="curve" smooth="yes"/>
      <point x="432" y="267"/>
      <point x="428" y="275"/>
      <point x="419" y="286" type="curve" smooth="yes"/>
      <point x="289" y="442" type="line" smooth="yes"/>
      <point x="282" y="450"/>
      <point x="275" y="454"/>
      <point x="267" y="454" type="curve" smooth="yes"/>
      <point x="255" y="454"/>
      <point x="232" y="439"/>
      <point x="232" y="422" type="curve" smooth="yes"/>
      <point x="232" y="416"/>
      <point x="235" y="409"/>
      <point x="240" y="402" type="curve" smooth="yes"/>
      <point x="351" y="258" type="line"/>
      <point x="240" y="113" type="line" smooth="yes"/>
      <point x="235" y="106"/>
      <point x="232" y="100"/>
      <point x="232" y="94" type="curve" smooth="yes"/>
      <point x="232" y="82"/>
      <point x="251" y="61"/>
    </contour>
    <contour>
      <point x="95" y="61" type="curve" smooth="yes"/>
      <point x="103" y="61"/>
      <point x="110" y="66"/>
      <point x="117" y="74" type="curve" smooth="yes"/>
      <point x="247" y="230" type="line" smooth="yes"/>
      <point x="256" y="241"/>
      <point x="260" y="249"/>
      <point x="260" y="258" type="curve" smooth="yes"/>
      <point x="260" y="267"/>
      <point x="256" y="275"/>
      <point x="247" y="286" type="curve" smooth="yes"/>
      <point x="117" y="442" type="line" smooth="yes"/>
      <point x="110" y="450"/>
      <point x="103" y="454"/>
      <point x="95" y="454" type="curve" smooth="yes"/>
      <point x="83" y="454"/>
      <point x="60" y="439"/>
      <point x="60" y="422" type="curve" smooth="yes"/>
      <point x="60" y="416"/>
      <point x="63" y="409"/>
      <point x="68" y="402" type="curve" smooth="yes"/>
      <point x="179" y="258" type="line"/>
      <point x="68" y="113" type="line" smooth="yes"/>
      <point x="63" y="106"/>
      <point x="60" y="100"/>
      <point x="60" y="94" type="curve" smooth="yes"/>
      <point x="60" y="82"/>
      <point x="79" y="61"/>
    </contour>
  </outline>
</glyph>
<glyph name="questiondown" format="2">
  <advance width="425"/>
  <unicode hex="00BF"/>
  <outline>
    <contour>
      <point x="275" y="321" type="curve" smooth="yes"/>
      <point x="260" y="321" type="line" smooth="yes"/>
      <point x="236" y="321"/>
      <point x="229" y="314"/>
      <point x="227" y="301" type="curve" smooth="yes"/>
      <point x="218" y="244"/>
      <point x="171" y="199"/>
      <point x="124" y="153" type="curve" smooth="yes"/>
      <point x="75" y="105"/>
      <point x="29" y="54"/>
      <point x="29" y="-15" type="curve" smooth="yes"/>
      <point x="29" y="-105"/>
      <point x="101" y="-183"/>
      <point x="234" y="-183" type="curve" smooth="yes"/>
      <point x="307" y="-183"/>
      <point x="406" y="-160"/>
      <point x="406" y="-126" type="curve" smooth="yes"/>
      <point x="406" y="-112"/>
      <point x="384" y="-75"/>
      <point x="374" y="-75" type="curve" smooth="yes"/>
      <point x="359" y="-75"/>
      <point x="313" y="-109"/>
      <point x="250" y="-109" type="curve" smooth="yes"/>
      <point x="167" y="-109"/>
      <point x="124" y="-75"/>
      <point x="124" y="-5" type="curve" smooth="yes"/>
      <point x="124" y="45"/>
      <point x="168" y="88"/>
      <point x="219" y="139" type="curve" smooth="yes"/>
      <point x="274" y="194"/>
      <point x="305" y="253"/>
      <point x="305" y="298" type="curve" smooth="yes"/>
      <point x="305" y="312"/>
      <point x="296" y="321"/>
    </contour>
    <contour>
      <point x="278" y="525" type="curve" smooth="yes"/>
      <point x="261" y="525" type="line" smooth="yes"/>
      <point x="233" y="525"/>
      <point x="221" y="517"/>
      <point x="221" y="503" type="curve" smooth="yes"/>
      <point x="221" y="437" type="line" smooth="yes"/>
      <point x="221" y="423"/>
      <point x="233" y="415"/>
      <point x="261" y="415" type="curve" smooth="yes"/>
      <point x="278" y="415" type="line" smooth="yes"/>
      <point x="306" y="415"/>
      <point x="318" y="423"/>
      <point x="318" y="437" type="curve" smooth="yes"/>
      <point x="318" y="503" type="line" smooth="yes"/>
      <point x="318" y="517"/>
      <point x="306" y="525"/>
    </contour>
  </outline>
</glyph>
<glyph name="AE" format="2">
  <advance width="915"/>
  <unicode hex="00C6"/>
  <anchor x="539" y="700" name="top"/>
  <outline>
    <contour>
      <point x="30" y="-2" type="curve" smooth="yes"/>
      <point x="35" y="-2" type="line" smooth="yes"/>
      <point x="54" y="-2"/>
      <point x="70" y="3"/>
      <point x="75" y="14" type="curve" smooth="yes"/>
      <point x="155" y="178" type="line"/>
      <point x="450" y="178" type="line"/>
      <point x="482" y="29" type="line" smooth="yes"/>
      <point x="486" y="9"/>
      <point x="497" y="0"/>
      <point x="518" y="0" type="curve" smooth="yes"/>
      <point x="805" y="0" type="line" smooth="yes"/>
      <point x="819" y="0"/>
      <point x="825" y="9"/>
      <point x="825" y="30" type="curve" smooth="yes"/>
      <point x="825" y="46" type="line" smooth="yes"/>
      <point x="825" y="67"/>
      <point x="819" y="76"/>
      <point x="805" y="76" type="curve" smooth="yes"/>
      <point x="561" y="76" type="line"/>
      <point x="508" y="320" type="line"/>
      <point x="774" y="320" type="line" smooth="yes"/>
      <point x="788" y="320"/>
      <point x="794" y="329"/>
      <point x="794" y="350" type="curve" smooth="yes"/>
      <point x="794" y="366" type="line" smooth="yes"/>
      <point x="794" y="387"/>
      <point x="788" y="396"/>
      <point x="774" y="396" type="curve" smooth="yes"/>
      <point x="492" y="396" type="line"/>
      <point x="442" y="624" type="line"/>
      <point x="804" y="624" type="line" smooth="yes"/>
      <point x="818" y="624"/>
      <point x="824" y="633"/>
      <point x="824" y="654" type="curve" smooth="yes"/>
      <point x="824" y="670" type="line" smooth="yes"/>
      <point x="824" y="691"/>
      <point x="818" y="700"/>
      <point x="804" y="700" type="curve" smooth="yes"/>
      <point x="359" y="700" type="line" smooth="yes"/>
      <point x="338" y="700"/>
      <point x="325" y="692"/>
      <point x="316" y="673" type="curve" smooth="yes"/>
      <point x="-5" y="31" type="line" smooth="yes"/>
      <point x="-8" y="25"/>
      <point x="-9" y="19"/>
      <point x="-9" y="15" type="curve" smooth="yes"/>
      <point x="-9" y="4"/>
      <point x="0" y="-2"/>
    </contour>
    <contour>
      <point x="194" y="253" type="line"/>
      <point x="342" y="552" type="line"/>
      <point x="363" y="610" type="line"/>
      <point x="365" y="610" type="line"/>
      <point x="369" y="552" type="line"/>
      <point x="433" y="253" type="line"/>
    </contour>
  </outline>
</glyph>
<glyph name="Eth" format="2">
  <advance width="695"/>
  <unicode hex="00D0"/>
  <outline>
    <contour>
      <point x="20" y="320" type="curve" smooth="yes"/>
      <point x="323" y="320" type="line" smooth="yes"/>
      <point x="337" y="320"/>
      <point x="343" y="329"/>
      <point x="343" y="350" type="curve" smooth="yes"/>
      <point x="343" y="366" type="line" smooth="yes"/>
      <point x="343" y="387"/>
      <point x="337" y="396"/>
      <point x="323" y="396" type="curve" smooth="yes"/>
      <point x="20" y="396" type="line" smooth="yes"/>
      <point x="6" y="396"/>
      <point x="0" y="387"/>
      <point x="0" y="366" type="curve" smooth="yes"/>
      <point x="0" y="350" type="line" smooth="yes"/>
      <point x="0" y="329"/>
      <point x="6" y="320"/>
    </contour>
    <component base="D"/>
  </outline>
</glyph>
<glyph name="multiply" format="2">
  <advance width="560"/>
  <unicode hex="00D7"/>
  <outline>
    <contour>
      <point x="96" y="0" type="curve" smooth="yes"/>
      <point x="100" y="0"/>
      <point x="105" y="3"/>
      <point x="110" y="8" type="curve" smooth="yes"/>
      <point x="281" y="181" type="line"/>
      <point x="452" y="8" type="line" smooth="yes"/>
      <point x="457" y="3"/>
      <point x="461" y="0"/>
      <point x="466" y="0" type="curve" smooth="yes"/>
      <point x="473" y="0"/>
      <point x="506" y="29"/>
      <point x="506" y="42" type="curve" smooth="yes"/>
      <point x="506" y="46"/>
      <point x="504" y="51"/>
      <point x="499" y="56" type="curve" smooth="yes"/>
      <point x="328" y="228" type="line"/>
      <point x="499" y="399" type="line" smooth="yes"/>
      <point x="504" y="404"/>
      <point x="506" y="408"/>
      <point x="506" y="413" type="curve" smooth="yes"/>
      <point x="506" y="424"/>
      <point x="477" y="454"/>
      <point x="466" y="454" type="curve" smooth="yes"/>
      <point x="461" y="454"/>
      <point x="457" y="452"/>
      <point x="452" y="447" type="curve" smooth="yes"/>
      <point x="281" y="275" type="line"/>
      <point x="110" y="447" type="line" smooth="yes"/>
      <point x="105" y="452"/>
      <point x="100" y="454"/>
      <point x="96" y="454" type="curve" smooth="yes"/>
      <point x="83" y="454"/>
      <point x="55" y="421"/>
      <point x="55" y="413" type="curve" smooth="yes"/>
      <point x="55" y="408"/>
      <point x="58" y="404"/>
      <point x="63" y="399" type="curve" smooth="yes"/>
      <point x="234" y="228" type="line"/>
      <point x="63" y="56" type="line" smooth="yes"/>
      <point x="58" y="51"/>
      <point x="54" y="45"/>
      <point x="54" y="41" type="curve" smooth="yes"/>
      <point x="54" y="31"/>
      <point x="85" y="0"/>
    </contour>
  </outline>
</glyph>
<glyph name="Oslash" format="2">
  <advance width="731"/>
  <unicode hex="00D8"/>
  <outline>
    <contour>
      <point x="70" y="10" type="curve" smooth="yes"/>
      <point x="663" y="668" type="line" smooth="yes"/>
      <point x="667" y="673"/>
      <point x="669" y="677"/>
      <point x="669" y="682" type="curve" smooth="yes"/>
      <point x="669" y="690"/>
      <point x="656" y="702"/>
      <point x="647" y="702" type="curve" smooth="yes"/>
      <point x="642" y="702"/>
      <point x="638" y="700"/>
      <point x="633" y="694" type="curve"/>
      <point x="40" y="36" type="line"/>
      <point x="36" y="31"/>
      <point x="34" y="26"/>
      <point x="34" y="22" type="curve" smooth="yes"/>
      <point x="34" y="13"/>
      <point x="47" y="1"/>
      <point x="56" y="1" type="curve" smooth="yes"/>
      <point x="60" y="1"/>
      <point x="65" y="4"/>
    </contour>
    <component base="O"/>
  </outline>
</glyph>
<glyph name="germandbls" format="2">
  <advance width="554"/>
  <unicode hex="00DF"/>
  <outline>
    <contour>
      <point x="130" y="-2" type="curve" smooth="yes"/>
      <point x="134" y="-2" type="line" smooth="yes"/>
      <point x="162" y="-2"/>
      <point x="174" y="6"/>
      <point x="174" y="20" type="curve" smooth="yes"/>
      <point x="174" y="521" type="line" smooth="yes"/>
      <point x="174" y="591"/>
      <point x="217" y="634"/>
      <point x="285" y="634" type="curve" smooth="yes"/>
      <point x="338" y="634"/>
      <point x="396" y="614"/>
      <point x="396" y="528" type="curve" smooth="yes"/>
      <point x="396" y="463"/>
      <point x="338" y="412"/>
      <point x="277" y="412" type="curve" smooth="yes"/>
      <point x="267" y="412" type="line" smooth="yes"/>
      <point x="253" y="412"/>
      <point x="247" y="403"/>
      <point x="247" y="382" type="curve" smooth="yes"/>
      <point x="247" y="370" type="line" smooth="yes"/>
      <point x="247" y="349"/>
      <point x="253" y="340"/>
      <point x="267" y="340" type="curve" smooth="yes"/>
      <point x="300" y="340" type="line" smooth="yes"/>
      <point x="370" y="340"/>
      <point x="426" y="290"/>
      <point x="426" y="206" type="curve" smooth="yes"/>
      <point x="426" y="121"/>
      <point x="370" y="72"/>
      <point x="300" y="72" type="curve" smooth="yes"/>
      <point x="267" y="72" type="line" smooth="yes"/>
      <point x="253" y="72"/>
      <point x="247" y="63"/>
      <point x="247" y="42" type="curve" smooth="yes"/>
      <point x="247" y="30" type="line" smooth="yes"/>
      <point x="247" y="9"/>
      <point x="253" y="0"/>
      <point x="267" y="0" type="curve" smooth="yes"/>
      <point x="299" y="0" type="line" smooth="yes"/>
      <point x="418" y="0"/>
      <point x="514" y="72"/>
      <point x="514" y="206" type="curve" smooth="yes"/>
      <point x="514" y="292"/>
      <point x="468" y="364"/>
      <point x="383" y="384" type="curve"/>
      <point x="383" y="387" type="line"/>
      <point x="444" y="413"/>
      <point x="485" y="478"/>
      <point x="485" y="536" type="curve" smooth="yes"/>
      <point x="485" y="663"/>
      <point x="396" y="706"/>
      <point x="287" y="706" type="curve" smooth="yes"/>
      <point x="168" y="706"/>
      <point x="90" y="630"/>
      <point x="90" y="521" type="curve" smooth="yes"/>
      <point x="90" y="20" type="line" smooth="yes"/>
      <point x="90" y="6"/>
      <point x="102" y="-2"/>
    </contour>
  </outline>
</glyph>
<glyph name="ae" format="2">
  <advance width="819"/>
  <unicode hex="00E6"/>
  <anchor x="429" y="523" name="top"/>
  <outline>
    <contour>
      <point x="220" y="-6" type="curve" smooth="yes"/>
      <point x="298" y="-6"/>
      <point x="360" y="23"/>
      <point x="401" y="57" type="curve"/>
      <point x="440" y="15"/>
      <point x="500" y="-6"/>
      <point x="580" y="-6" type="curve" smooth="yes"/>
      <point x="681" y="-6"/>
      <point x="760" y="34"/>
      <point x="760" y="58" type="curve" smooth="yes"/>
      <point x="760" y="69"/>
      <point x="739" y="108"/>
      <point x="725" y="108" type="curve" smooth="yes"/>
      <point x="715" y="108"/>
      <point x="666" y="66"/>
      <point x="579" y="66" type="curve" smooth="yes"/>
      <point x="483" y="66"/>
      <point x="437" y="120"/>
      <point x="429" y="241" type="curve"/>
      <point x="741" y="241" type="line" smooth="yes"/>
      <point x="753" y="241"/>
      <point x="774" y="270"/>
      <point x="774" y="282" type="curve" smooth="yes"/>
      <point x="774" y="442"/>
      <point x="705" y="529"/>
      <point x="568" y="529" type="curve" smooth="yes"/>
      <point x="507" y="529"/>
      <point x="457" y="513"/>
      <point x="420" y="481" type="curve"/>
      <point x="386" y="512"/>
      <point x="334" y="529"/>
      <point x="268" y="529" type="curve" smooth="yes"/>
      <point x="168" y="529"/>
      <point x="80" y="491"/>
      <point x="80" y="465" type="curve" smooth="yes"/>
      <point x="80" y="454"/>
      <point x="101" y="415"/>
      <point x="115" y="415" type="curve" smooth="yes"/>
      <point x="125" y="415"/>
      <point x="180" y="457"/>
      <point x="271" y="457" type="curve" smooth="yes"/>
      <point x="325" y="457"/>
      <point x="355" y="440"/>
      <point x="370" y="416" type="curve"/>
      <point x="355" y="387"/>
      <point x="346" y="352"/>
      <point x="342" y="312" type="curve"/>
      <point x="199" y="308"/>
      <point x="49" y="287"/>
      <point x="49" y="144" type="curve" smooth="yes"/>
      <point x="49" y="41"/>
      <point x="123" y="-6"/>
    </contour>
    <contour>
      <point x="224" y="67" type="curve" smooth="yes"/>
      <point x="168" y="67"/>
      <point x="139" y="96"/>
      <point x="139" y="149" type="curve" smooth="yes"/>
      <point x="139" y="227"/>
      <point x="243" y="238"/>
      <point x="339" y="240" type="curve"/>
      <point x="340" y="193"/>
      <point x="348" y="152"/>
      <point x="362" y="119" type="curve"/>
      <point x="326" y="90"/>
      <point x="285" y="67"/>
    </contour>
    <contour>
      <point x="429" y="313" type="line"/>
      <point x="436" y="408"/>
      <point x="480" y="457"/>
      <point x="565" y="457" type="curve" smooth="yes"/>
      <point x="645" y="457"/>
      <point x="685" y="408"/>
      <point x="685" y="313" type="curve"/>
    </contour>
  </outline>
</glyph>
<glyph name="divide" format="2">
  <advance width="560"/>
  <unicode hex="00F7"/>
  <outline>
    <contour>
      <point x="70" y="194" type="curve" smooth="yes"/>
      <point x="490" y="194" type="line" smooth="yes"/>
      <point x="504" y="194"/>
      <point x="510" y="203"/>
      <point x="510" y="224" type="curve" smooth="yes"/>
      <point x="510" y="237" type="line" smooth="yes"/>
      <point x="510" y="258"/>
      <point x="504" y="267"/>
      <point x="490" y="267" type="curve" smooth="yes"/>
      <point x="70" y="267" type="line" smooth="yes"/>
      <point x="56" y="267"/>
      <point x="50" y="258"/>
      <point x="50" y="237" type="curve" smooth="yes"/>
      <point x="50" y="224" type="line" smooth="yes"/>
      <point x="50" y="203"/>
      <point x="56" y="194"/>
    </contour>
    <contour>
      <point x="278" y="-2" type="curve" smooth="yes"/>
      <point x="282" y="-2" type="line" smooth="yes"/>
      <point x="310" y="-2"/>
      <point x="322" y="6"/>
      <point x="322" y="20" type="curve" smooth="yes"/>
      <point x="322" y="71" type="line" smooth="yes"/>
      <point x="322" y="85"/>
      <point x="310" y="93"/>
      <point x="282" y="93" type="curve" smooth="yes"/>
      <point x="278" y="93" type="line" smooth="yes"/>
      <point x="250" y="93"/>
      <point x="238" y="85"/>
      <point x="238" y="71" type="curve" smooth="yes"/>
      <point x="238" y="20" type="line" smooth="yes"/>
      <point x="238" y="6"/>
      <point x="250" y="-2"/>
    </contour>
    <contour>
      <point x="278" y="368" type="curve" smooth="yes"/>
      <point x="282" y="368" type="line" smooth="yes"/>
      <point x="310" y="368"/>
      <point x="322" y="376"/>
      <point x="322" y="390" type="curve" smooth="yes"/>
      <point x="322" y="441" type="line" smooth="yes"/>
      <point x="322" y="455"/>
      <point x="310" y="463"/>
      <point x="282" y="463" type="curve" smooth="yes"/>
      <point x="278" y="463" type="line" smooth="yes"/>
      <point x="250" y="463"/>
      <point x="238" y="455"/>
      <point x="238" y="441" type="curve" smooth="yes"/>
      <point x="238" y="390" type="line" smooth="yes"/>
      <point x="238" y="376"/>
      <point x="250" y="368"/>
    </contour>
  </outline>
</glyph>
<glyph name="oslash" format="2">
  <advance width="569"/>
  <unicode hex="00F8"/>
  <anchor x="285" y="523" name="top"/>
  <outline>
    <contour>
      <point x="87" y="2" type="curve" smooth="yes"/>
      <point x="92" y="2"/>
      <point x="96.5" y="5"/>
      <point x="101" y="10" type="curve" smooth="yes"/>
      <point x="509" y="486" type="line" smooth="yes"/>
      <point x="513" y="491"/>
      <point x="515" y="495"/>
      <point x="515" y="500" type="curve" smooth="yes"/>
      <point x="515" y="508"/>
      <point x="501" y="521"/>
      <point x="493" y="521" type="curve" smooth="yes"/>
      <point x="488" y="521"/>
      <point x="483.5" y="518"/>
      <point x="479" y="513" type="curve" smooth="yes"/>
      <point x="71" y="37" type="line" smooth="yes"/>
      <point x="67" y="32"/>
      <point x="64" y="28"/>
      <point x="64" y="23" type="curve" smooth="yes"/>
      <point x="64" y="15"/>
      <point x="78" y="2"/>
    </contour>
    <component base="o"/>
  </outline>
</glyph>
<glyph name="thorn" format="2">
  <advance width="573"/>
  <unicode hex="00FE"/>
  <outline>
    <contour>
      <point x="126" y="-208" type="curve" smooth="yes"/>
      <point x="130" y="-208" type="line" smooth="yes"/>
      <point x="158" y="-208"/>
      <point x="170" y="-200"/>
      <point x="170" y="-186" type="curve" smooth="yes"/>
      <point x="170" y="45" type="line"/>
      <point x="209" y="15"/>
      <point x="251" y="-6"/>
      <point x="313" y="-6" type="curve" smooth="yes"/>
      <point x="432" y="-6"/>
      <point x="516" y="88"/>
      <point x="516" y="260" type="curve" smooth="yes"/>
      <point x="516" y="417"/>
      <point x="442" y="529"/>
      <point x="322" y="529" type="curve" smooth="yes"/>
      <point x="268" y="529"/>
      <point x="217" y="507"/>
      <point x="170" y="461" type="curve"/>
      <point x="170" y="730" type="line" smooth="yes"/>
      <point x="170" y="744"/>
      <point x="158" y="752"/>
      <point x="130" y="752" type="curve" smooth="yes"/>
      <point x="126" y="752" type="line" smooth="yes"/>
      <point x="98" y="752"/>
      <point x="86" y="744"/>
      <point x="86" y="730" type="curve" smooth="yes"/>
      <point x="86" y="-186" type="line" smooth="yes"/>
      <point x="86" y="-200"/>
      <point x="98" y="-208"/>
    </contour>
    <contour>
      <point x="294" y="68" type="curve" smooth="yes"/>
      <point x="248" y="68"/>
      <point x="206" y="83"/>
      <point x="170" y="113" type="curve"/>
      <point x="170" y="387" type="line"/>
      <point x="211" y="432"/>
      <point x="261" y="456"/>
      <point x="305" y="456" type="curve" smooth="yes"/>
      <point x="384" y="456"/>
      <point x="428" y="383"/>
      <point x="428" y="254" type="curve" smooth="yes"/>
      <point x="428" y="135"/>
      <point x="383" y="68"/>
    </contour>
  </outline>
</glyph>
<glyph name="dcroat" format="2">
  <advance width="565"/>
  <unicode hex="0111"/>
  <outline>
    <contour>
      <point x="201" y="595" type="curve"/>
      <point x="545" y="595" type="line" smooth="yes"/>
      <point x="559" y="595"/>
      <point x="565" y="604"/>
      <point x="565" y="625" type="curve" smooth="yes"/>
      <point x="565" y="635" type="line" smooth="yes"/>
      <point x="565" y="656"/>
      <point x="559" y="665"/>
      <point x="545" y="665" type="curve" smooth="yes"/>
      <point x="201" y="665" type="line" smooth="yes"/>
      <point x="187" y="665"/>
      <point x="181" y="656"/>
      <point x="181" y="635" type="curve" smooth="yes"/>
      <point x="181" y="625" type="line" smooth="yes"/>
      <point x="181" y="604"/>
      <point x="187" y="595"/>
    </contour>
    <component base="d"/>
  </outline>
</glyph>
<glyph name="hbar" format="2">
  <advance width="565"/>
  <unicode hex="0127"/>
  <outline>
    <contour>
      <point x="25" y="595" type="curve"/>
      <point x="325" y="595" type="line" smooth="yes"/>
      <point x="343" y="595"/>
      <point x="350" y="604"/>
      <point x="350" y="625" type="curve" smooth="yes"/>
      <point x="350" y="635" type="line" smooth="yes"/>
      <point x="350" y="656"/>
      <point x="343" y="665"/>
      <point x="325" y="665" type="curve" smooth="yes"/>
      <point x="25" y="665" type="line" smooth="yes"/>
      <point x="7" y="665"/>
      <point x="0" y="656"/>
      <point x="0" y="635" type="curve" smooth="yes"/>
      <point x="0" y="625" type="line" smooth="yes"/>
      <point x="0" y="604"/>
      <point x="7" y="595"/>
    </contour>
    <component base="h"/>
  </outline>
</glyph>
<glyph name="kgreenlandic" format="2">
  <advance width="521"/>
  <unicode hex="0138"/>
  <outline>
    <contour>
      <point x="131" y="-2" type="curve" smooth="yes"/>
      <point x="135" y="-2" type="line" smooth="yes"/>
      <point x="163" y="-2"/>
      <point x="175" y="6"/>
      <point x="175" y="20" type="curve" smooth="yes"/>
      <point x="175" y="248" type="line"/>
      <point x="179" y="248" type="line"/>
      <point x="379" y="11" type="line" smooth="yes"/>
      <point x="389" y="-1"/>
      <point x="411" y="-2"/>
      <point x="433" y="-2" type="curve" smooth="yes"/>
      <point x="437" y="-2" type="line" smooth="yes"/>
      <point x="468" y="-2"/>
      <point x="481" y="1"/>
      <point x="481" y="12" type="curve" smooth="yes"/>
      <point x="481" y="16"/>
      <point x="479" y="20"/>
      <point x="472" y="28" type="curve" smooth="yes"/>
      <point x="265" y="273" type="line"/>
      <point x="452" y="492" type="line" smooth="yes"/>
      <point x="459" y="500"/>
      <point x="462" y="507"/>
      <point x="462" y="512" type="curve" smooth="yes"/>
      <point x="462" y="519"/>
      <point x="451" y="525"/>
      <point x="427" y="525" type="curve" smooth="yes"/>
      <point x="423" y="525" type="line" smooth="yes"/>
      <point x="401" y="525"/>
      <point x="379" y="522"/>
      <point x="370" y="511" type="curve" smooth="yes"/>
      <point x="179" y="283" type="line"/>
      <point x="175" y="283" type="line"/>
      <point x="175" y="504" type="line" smooth="yes"/>
      <point x="175" y="518"/>
      <point x="163" y="526"/>
      <point x="135" y="526" type="curve" smooth="yes"/>
      <point x="131" y="526" type="line" smooth="yes"/>
      <point x="103" y="526"/>
      <point x="91" y="518"/>
      <point x="91" y="504" type="curve" smooth="yes"/>
      <point x="91" y="20" type="line" smooth="yes"/>
      <point x="91" y="6"/>
      <point x="103" y="-2"/>
    </contour>
  </outline>
</glyph>
<glyph name="ldot" format="2">
  <advance width="297"/>
  <unicode hex="0140"/>
  <outline>
    <contour>
      <point x="273.7" y="319.1" type="curve" smooth="yes"/>
      <point x="299.8" y="319.1"/>
      <point x="320.5" y="338.90000000000003"/>
      <point x="320.5" y="365.0" type="curve" smooth="yes"/>
      <point x="320.5" y="391.1"/>
      <point x="299.8" y="411.8"/>
      <point x="273.7" y="411.8" type="curve" smooth="yes"/>
      <point x="247.60000000000002" y="411.8"/>
      <point x="227.8" y="391.1"/>
      <point x="227.8" y="365.0" type="curve" smooth="yes"/>
      <point x="227.8" y="338.90000000000003"/>
      <point x="247.60000000000002" y="319.1"/>
    </contour>
    <component base="l"/>
  </outline>
</glyph>
<glyph name="Lslash" format="2">
  <advance width="486"/>
  <unicode hex="0141"/>
  <outline>
    <contour>
      <point x="9" y="232" type="curve" smooth="yes"/>
      <point x="11" y="232"/>
      <point x="15" y="234"/>
      <point x="19" y="236" type="curve" smooth="yes"/>
      <point x="281" y="395" type="line" smooth="yes"/>
      <point x="293" y="402"/>
      <point x="300" y="411"/>
      <point x="300" y="425" type="curve" smooth="yes"/>
      <point x="300" y="431" type="line" smooth="yes"/>
      <point x="300" y="440"/>
      <point x="296" y="445"/>
      <point x="291" y="445" type="curve" smooth="yes"/>
      <point x="288" y="445"/>
      <point x="285" y="443"/>
      <point x="281" y="441" type="curve" smooth="yes"/>
      <point x="19" y="282" type="line" smooth="yes"/>
      <point x="7" y="275"/>
      <point x="0" y="266"/>
      <point x="0" y="252" type="curve" smooth="yes"/>
      <point x="0" y="246" type="line" smooth="yes"/>
      <point x="0" y="237"/>
      <point x="4" y="232"/>
    </contour>
    <component base="L"/>
  </outline>
</glyph>
<glyph name="lslash" format="2">
  <advance width="297"/>
  <unicode hex="0142"/>
  <outline>
    <contour>
      <point x="38" y="328" type="curve" smooth="yes"/>
      <point x="213" y="431" type="line" smooth="yes"/>
      <point x="225" y="438"/>
      <point x="232" y="447"/>
      <point x="232" y="461" type="curve" smooth="yes"/>
      <point x="232" y="467" type="line" smooth="yes"/>
      <point x="232" y="476"/>
      <point x="228" y="481"/>
      <point x="223" y="481" type="curve" smooth="yes"/>
      <point x="220" y="481"/>
      <point x="217" y="479"/>
      <point x="213" y="477" type="curve"/>
      <point x="38" y="374" type="line"/>
      <point x="26" y="367"/>
      <point x="19" y="358"/>
      <point x="19" y="344" type="curve" smooth="yes"/>
      <point x="19" y="338" type="line" smooth="yes"/>
      <point x="19" y="329"/>
      <point x="23" y="324"/>
      <point x="28" y="324" type="curve" smooth="yes"/>
      <point x="30" y="324"/>
      <point x="34" y="326"/>
    </contour>
    <component base="l"/>
  </outline>
</glyph>
<glyph name="Eng" format="2">
  <advance width="719"/>
  <unicode hex="014A"/>
  <outline>
    <contour>
      <point x="500" y="-212" type="curve" smooth="yes"/>
      <point x="550" y="-212"/>
      <point x="629" y="-190"/>
      <point x="629" y="-74" type="curve" smooth="yes"/>
      <point x="629" y="680" type="line" smooth="yes"/>
      <point x="629" y="694"/>
      <point x="617" y="702"/>
      <point x="589" y="702" type="curve" smooth="yes"/>
      <point x="582" y="702" type="line" smooth="yes"/>
      <point x="554" y="702"/>
      <point x="542" y="694"/>
      <point x="542" y="680" type="curve" smooth="yes"/>
      <point x="542" y="218" type="line" smooth="yes"/>
      <point x="542" y="189"/>
      <point x="542" y="173"/>
      <point x="544" y="150" type="curve"/>
      <point x="540" y="149" type="line"/>
      <point x="530" y="170"/>
      <point x="520" y="189"/>
      <point x="507" y="209" type="curve" smooth="yes"/>
      <point x="193" y="683" type="line" smooth="yes"/>
      <point x="184" y="697"/>
      <point x="173" y="702"/>
      <point x="151" y="702" type="curve" smooth="yes"/>
      <point x="130" y="702" type="line" smooth="yes"/>
      <point x="102" y="702"/>
      <point x="90" y="694"/>
      <point x="90" y="680" type="curve" smooth="yes"/>
      <point x="90" y="20" type="line" smooth="yes"/>
      <point x="90" y="6"/>
      <point x="102" y="-2"/>
      <point x="130" y="-2" type="curve" smooth="yes"/>
      <point x="137" y="-2" type="line" smooth="yes"/>
      <point x="165" y="-2"/>
      <point x="177" y="6"/>
      <point x="177" y="20" type="curve" smooth="yes"/>
      <point x="177" y="489" type="line" smooth="yes"/>
      <point x="177" y="518"/>
      <point x="177" y="534"/>
      <point x="175" y="557" type="curve"/>
      <point x="179" y="558" type="line"/>
      <point x="189" y="537"/>
      <point x="199" y="518"/>
      <point x="212" y="498" type="curve" smooth="yes"/>
      <point x="545" y="-4" type="line"/>
      <point x="545" y="-66" type="line" smooth="yes"/>
      <point x="545" y="-126"/>
      <point x="520" y="-140"/>
      <point x="491" y="-140" type="curve" smooth="yes"/>
      <point x="462" y="-140"/>
      <point x="457" y="-135"/>
      <point x="448" y="-135" type="curve" smooth="yes"/>
      <point x="434" y="-135"/>
      <point x="427" y="-174"/>
      <point x="427" y="-182" type="curve" smooth="yes"/>
      <point x="427" y="-209"/>
      <point x="473" y="-212"/>
    </contour>
  </outline>
</glyph>
<glyph name="eng" format="2">
  <advance width="557"/>
  <unicode hex="014B"/>
  <outline>
    <contour>
      <point x="353" y="-212" type="curve" smooth="yes"/>
      <point x="403" y="-212"/>
      <point x="482" y="-190"/>
      <point x="482" y="-74" type="curve" smooth="yes"/>
      <point x="482" y="367" type="line" smooth="yes"/>
      <point x="482" y="468"/>
      <point x="421" y="529"/>
      <point x="319" y="529" type="curve" smooth="yes"/>
      <point x="263" y="529"/>
      <point x="205" y="501"/>
      <point x="163" y="454" type="curve"/>
      <point x="157" y="480"/>
      <point x="152" y="520"/>
      <point x="128" y="520" type="curve" smooth="yes"/>
      <point x="115" y="520"/>
      <point x="74" y="516"/>
      <point x="74" y="497" type="curve" smooth="yes"/>
      <point x="74" y="492"/>
      <point x="86" y="453"/>
      <point x="86" y="371" type="curve" smooth="yes"/>
      <point x="86" y="20" type="line" smooth="yes"/>
      <point x="86" y="6"/>
      <point x="98" y="-2"/>
      <point x="126" y="-2" type="curve" smooth="yes"/>
      <point x="130" y="-2" type="line" smooth="yes"/>
      <point x="158" y="-2"/>
      <point x="170" y="6"/>
      <point x="170" y="20" type="curve" smooth="yes"/>
      <point x="170" y="386" type="line"/>
      <point x="203" y="429"/>
      <point x="251" y="456"/>
      <point x="296" y="456" type="curve" smooth="yes"/>
      <point x="361" y="456"/>
      <point x="398" y="420"/>
      <point x="398" y="359" type="curve" smooth="yes"/>
      <point x="398" y="-66" type="line" smooth="yes"/>
      <point x="398" y="-126"/>
      <point x="373" y="-140"/>
      <point x="344" y="-140" type="curve" smooth="yes"/>
      <point x="315" y="-140"/>
      <point x="310" y="-135"/>
      <point x="301" y="-135" type="curve" smooth="yes"/>
      <point x="287" y="-135"/>
      <point x="280" y="-174"/>
      <point x="280" y="-182" type="curve" smooth="yes"/>
      <point x="280" y="-209"/>
      <point x="326" y="-212"/>
    </contour>
  </outline>
</glyph>
<glyph name="OE" format="2">
  <advance width="1015"/>
  <unicode hex="0152"/>
  <anchor x="508" y="0" name="bottom"/>
  <anchor x="508" y="700" name="top"/>
  <outline>
    <contour>
      <point x="365" y="-6" type="curve" smooth="yes"/>
      <point x="471" y="-6"/>
      <point x="549" y="28"/>
      <point x="600" y="96" type="curve"/>
      <point x="585" y="116" type="line"/>
      <point x="585" y="30" type="line" smooth="yes"/>
      <point x="585" y="9"/>
      <point x="594" y="0"/>
      <point x="615" y="0" type="curve" smooth="yes"/>
      <point x="946" y="0" type="line" smooth="yes"/>
      <point x="960" y="0"/>
      <point x="966" y="9"/>
      <point x="966" y="30" type="curve" smooth="yes"/>
      <point x="966" y="46" type="line" smooth="yes"/>
      <point x="966" y="67"/>
      <point x="960" y="76"/>
      <point x="946" y="76" type="curve" smooth="yes"/>
      <point x="673" y="76" type="line"/>
      <point x="673" y="320" type="line"/>
      <point x="915" y="320" type="line" smooth="yes"/>
      <point x="929" y="320"/>
      <point x="935" y="329"/>
      <point x="935" y="350" type="curve" smooth="yes"/>
      <point x="935" y="366" type="line" smooth="yes"/>
      <point x="935" y="387"/>
      <point x="929" y="396"/>
      <point x="915" y="396" type="curve" smooth="yes"/>
      <point x="673" y="396" type="line"/>
      <point x="673" y="624" type="line"/>
      <point x="945" y="624" type="line" smooth="yes"/>
      <point x="959" y="624"/>
      <point x="965" y="633"/>
      <point x="965" y="654" type="curve" smooth="yes"/>
      <point x="965" y="670" type="line" smooth="yes"/>
      <point x="965" y="691"/>
      <point x="959" y="700"/>
      <point x="945" y="700" type="curve" smooth="yes"/>
      <point x="615" y="700" type="line" smooth="yes"/>
      <point x="594" y="700"/>
      <point x="585" y="691"/>
      <point x="585" y="670" type="curve" smooth="yes"/>
      <point x="585" y="586" type="line"/>
      <point x="600" y="606" type="line"/>
      <point x="549" y="672"/>
      <point x="471" y="706"/>
      <point x="365" y="706" type="curve" smooth="yes"/>
      <point x="165" y="706"/>
      <point x="57" y="586"/>
      <point x="57" y="352" type="curve" smooth="yes"/>
      <point x="57" y="118"/>
      <point x="165" y="-6"/>
    </contour>
    <contour>
      <point x="365" y="70" type="curve" smooth="yes"/>
      <point x="224" y="70"/>
      <point x="148" y="168"/>
      <point x="148" y="352" type="curve" smooth="yes"/>
      <point x="148" y="536"/>
      <point x="224" y="630"/>
      <point x="365" y="630" type="curve" smooth="yes"/>
      <point x="506" y="630"/>
      <point x="583" y="536"/>
      <point x="583" y="352" type="curve" smooth="yes"/>
      <point x="583" y="168"/>
      <point x="506" y="70"/>
    </contour>
  </outline>
</glyph>
<glyph name="oe" format="2">
  <advance width="875"/>
  <unicode hex="0153"/>
  <anchor x="447" y="523" name="top"/>
  <outline>
    <contour>
      <point x="287" y="-6" type="curve" smooth="yes"/>
      <point x="364" y="-6"/>
      <point x="423" y="18"/>
      <point x="461" y="66" type="curve"/>
      <point x="460" y="453" type="line"/>
      <point x="422" y="503"/>
      <point x="363" y="529"/>
      <point x="287" y="529" type="curve" smooth="yes"/>
      <point x="138" y="529"/>
      <point x="55" y="432"/>
      <point x="55" y="259" type="curve" smooth="yes"/>
      <point x="55" y="87"/>
      <point x="136" y="-6"/>
    </contour>
    <contour>
      <point x="284" y="66" type="curve" smooth="yes"/>
      <point x="186" y="66"/>
      <point x="143" y="128"/>
      <point x="143" y="261" type="curve" smooth="yes"/>
      <point x="143" y="395"/>
      <point x="187" y="457"/>
      <point x="284" y="457" type="curve" smooth="yes"/>
      <point x="392" y="457"/>
      <point x="440" y="394"/>
      <point x="440" y="261" type="curve" smooth="yes"/>
      <point x="440" y="128"/>
      <point x="392" y="66"/>
    </contour>
    <component base="e" xOffset="336"/>
  </outline>
</glyph>
<glyph name="tbar" format="2">
  <advance width="342"/>
  <unicode hex="0167"/>
  <outline>
    <contour>
      <point x="57" y="235" type="curve"/>
      <point x="267" y="235" type="line" smooth="yes"/>
      <point x="281" y="235"/>
      <point x="287" y="244"/>
      <point x="287" y="265" type="curve" smooth="yes"/>
      <point x="287" y="275" type="line" smooth="yes"/>
      <point x="287" y="296"/>
      <point x="281" y="305"/>
      <point x="267" y="305" type="curve" smooth="yes"/>
      <point x="57" y="305" type="line" smooth="yes"/>
      <point x="43" y="305"/>
      <point x="37" y="296"/>
      <point x="37" y="275" type="curve" smooth="yes"/>
      <point x="37" y="265" type="line" smooth="yes"/>
      <point x="37" y="244"/>
      <point x="43" y="235"/>
    </contour>
    <component base="t"/>
  </outline>
</glyph>
<glyph name="longs" format="2">
  <advance width="325"/>
  <unicode hex="017F"/>
  <outline>
    <contour>
      <point x="148" y="-2" type="curve" smooth="yes"/>
      <point x="152" y="-2" type="line" smooth="yes"/>
      <point x="180" y="-2"/>
      <point x="192" y="6"/>
      <point x="192" y="20" type="curve"/>
      <point x="192" y="610" type="line"/>
      <point x="192" y="676"/>
      <point x="217" y="684"/>
      <point x="246" y="684" type="curve" smooth="yes"/>
      <point x="275" y="684"/>
      <point x="280" y="679"/>
      <point x="289" y="679" type="curve" smooth="yes"/>
      <point x="303" y="679"/>
      <point x="310" y="718"/>
      <point x="310" y="726" type="curve" smooth="yes"/>
      <point x="310" y="753"/>
      <point x="264" y="756"/>
      <point x="237" y="756" type="curve" smooth="yes"/>
      <point x="187" y="756"/>
      <point x="108" y="737"/>
      <point x="108" y="618" type="curve" smooth="yes"/>
      <point x="108" y="523" type="line"/>
      <point x="68" y="523" type="line" smooth="yes"/>
      <point x="54" y="523"/>
      <point x="48" y="514"/>
      <point x="48" y="493" type="curve" smooth="yes"/>
      <point x="48" y="481" type="line" smooth="yes"/>
      <point x="48" y="460"/>
      <point x="54" y="451"/>
      <point x="68" y="451" type="curve" smooth="yes"/>
      <point x="108" y="451" type="line"/>
      <point x="108" y="20" type="line" smooth="yes"/>
      <point x="108" y="6"/>
      <point x="120" y="-2"/>
    </contour>
  </outline>
</glyph>
<glyph name="Schwa" format="2">
  <advance width="672"/>
  <unicode hex="018F"/>
  <outline>
    <contour>
      <point x="321" y="-9" type="curve" smooth="yes"/>
      <point x="509" y="-9"/>
      <point x="604" y="106"/>
      <point x="604" y="332" type="curve" smooth="yes"/>
      <point x="604" y="588"/>
      <point x="513" y="706"/>
      <point x="319" y="706" type="curve" smooth="yes"/>
      <point x="182" y="706"/>
      <point x="79" y="654"/>
      <point x="79" y="622" type="curve" smooth="yes"/>
      <point x="79" y="611"/>
      <point x="100" y="572"/>
      <point x="114" y="572" type="curve" smooth="yes"/>
      <point x="130" y="572"/>
      <point x="197" y="634"/>
      <point x="320" y="634" type="curve" smooth="yes"/>
      <point x="443" y="634"/>
      <point x="502" y="551"/>
      <point x="514" y="363" type="curve"/>
      <point x="98" y="363" type="line" smooth="yes"/>
      <point x="86" y="363"/>
      <point x="65" y="334"/>
      <point x="65" y="322" type="curve" smooth="yes"/>
      <point x="65" y="103"/>
      <point x="149" y="-9"/>
    </contour>
    <contour>
      <point x="324" y="63" type="curve" smooth="yes"/>
      <point x="209" y="63"/>
      <point x="154" y="137"/>
      <point x="154" y="291" type="curve"/>
      <point x="514" y="291" type="line"/>
      <point x="507" y="137"/>
      <point x="441" y="63"/>
    </contour>
  </outline>
</glyph>
<glyph name="florin" format="2">
  <advance width="370"/>
  <unicode hex="0192"/>
  <outline>
    <contour>
      <point x="72" y="-207" type="curve" smooth="yes"/>
      <point x="76" y="-207" type="line" smooth="yes"/>
      <point x="104" y="-207"/>
      <point x="117" y="-199"/>
      <point x="119" y="-185" type="curve" smooth="yes"/>
      <point x="207" y="441" type="line"/>
      <point x="294" y="441" type="line" smooth="yes"/>
      <point x="317" y="441"/>
      <point x="321" y="479"/>
      <point x="321" y="493" type="curve" smooth="yes"/>
      <point x="321" y="507"/>
      <point x="315" y="513"/>
      <point x="304" y="513" type="curve" smooth="yes"/>
      <point x="217" y="513" type="line"/>
      <point x="230" y="610" type="line" smooth="yes"/>
      <point x="239" y="676"/>
      <point x="267" y="684"/>
      <point x="295" y="684" type="curve" smooth="yes"/>
      <point x="324" y="684"/>
      <point x="328" y="679"/>
      <point x="337" y="679" type="curve" smooth="yes"/>
      <point x="351" y="679"/>
      <point x="363" y="718"/>
      <point x="365" y="726" type="curve"/>
      <point x="365" y="753"/>
      <point x="324" y="756"/>
      <point x="296" y="756" type="curve" smooth="yes"/>
      <point x="246" y="756"/>
      <point x="163" y="737"/>
      <point x="147" y="618" type="curve" smooth="yes"/>
      <point x="133" y="513" type="line"/>
      <point x="93" y="513" type="line" smooth="yes"/>
      <point x="69" y="513"/>
      <point x="66" y="482"/>
      <point x="66" y="460" type="curve" smooth="yes"/>
      <point x="66" y="447"/>
      <point x="71" y="441"/>
      <point x="83" y="441" type="curve" smooth="yes"/>
      <point x="123" y="441" type="line"/>
      <point x="94" y="232"/>
      <point x="35" y="-171"/>
      <point x="35" y="-185" type="curve"/>
      <point x="35" y="-199"/>
      <point x="43" y="-207"/>
    </contour>
  </outline>
</glyph>
<glyph name="Nhookleft" format="2">
  <advance width="719"/>
  <unicode hex="019D"/>
  <outline>
    <contour>
      <point x="-4" y="-212" type="curve" smooth="yes"/>
      <point x="127" y="-212"/>
      <point x="177" y="-127"/>
      <point x="177" y="-1" type="curve" smooth="yes"/>
      <point x="177" y="489" type="line" smooth="yes"/>
      <point x="177" y="518"/>
      <point x="177" y="534"/>
      <point x="175" y="557" type="curve"/>
      <point x="179" y="558" type="line"/>
      <point x="189" y="537"/>
      <point x="199" y="518"/>
      <point x="212" y="498" type="curve" smooth="yes"/>
      <point x="534" y="12" type="line" smooth="yes"/>
      <point x="540" y="3"/>
      <point x="550" y="-2"/>
      <point x="569" y="-2" type="curve" smooth="yes"/>
      <point x="589" y="-2" type="line" smooth="yes"/>
      <point x="617" y="-2"/>
      <point x="629" y="6"/>
      <point x="629" y="20" type="curve" smooth="yes"/>
      <point x="629" y="680" type="line" smooth="yes"/>
      <point x="629" y="694"/>
      <point x="617" y="702"/>
      <point x="589" y="702" type="curve" smooth="yes"/>
      <point x="582" y="702" type="line" smooth="yes"/>
      <point x="554" y="702"/>
      <point x="542" y="694"/>
      <point x="542" y="680" type="curve" smooth="yes"/>
      <point x="542" y="218" type="line" smooth="yes"/>
      <point x="542" y="189"/>
      <point x="542" y="173"/>
      <point x="544" y="150" type="curve"/>
      <point x="540" y="149" type="line"/>
      <point x="530" y="170"/>
      <point x="520" y="189"/>
      <point x="507" y="209" type="curve" smooth="yes"/>
      <point x="193" y="683" type="line" smooth="yes"/>
      <point x="184" y="697"/>
      <point x="173" y="702"/>
      <point x="151" y="702" type="curve" smooth="yes"/>
      <point x="130" y="702" type="line" smooth="yes"/>
      <point x="102" y="702"/>
      <point x="90" y="694"/>
      <point x="90" y="680" type="curve" smooth="yes"/>
      <point x="90" y="-11" type="line" smooth="yes"/>
      <point x="90" y="-97"/>
      <point x="58" y="-134"/>
      <point x="-20" y="-134" type="curve" smooth="yes"/>
      <point x="-47" y="-134"/>
      <point x="-65" y="-125"/>
      <point x="-73" y="-125" type="curve" smooth="yes"/>
      <point x="-89" y="-125"/>
      <point x="-95" y="-176"/>
      <point x="-95" y="-180" type="curve" smooth="yes"/>
      <point x="-95" y="-207"/>
      <point x="-38" y="-212"/>
    </contour>
  </outline>
</glyph>
<glyph name="ohorn" format="2">
  <advance width="569"/>
  <unicode hex="01A1"/>
  <anchor x="291" y="0" name="bottom"/>
  <anchor x="334" y="0" name="ogonek"/>
  <anchor x="285" y="523" name="top"/>
  <outline>
    <contour>
      <point x="287" y="-6" type="curve" smooth="yes"/>
      <point x="436" y="-6"/>
      <point x="514" y="86"/>
      <point x="514" y="259" type="curve" smooth="yes"/>
      <point x="514" y="356"/>
      <point x="489" y="428"/>
      <point x="442" y="474" type="curve"/>
      <point x="500" y="482"/>
      <point x="527" y="516"/>
      <point x="527" y="562" type="curve" smooth="yes"/>
      <point x="527" y="591"/>
      <point x="507" y="636"/>
      <point x="484" y="636" type="curve" smooth="yes"/>
      <point x="480" y="636"/>
      <point x="476" y="635"/>
      <point x="472" y="632" type="curve"/>
      <point x="448" y="616" type="line" smooth="yes"/>
      <point x="442" y="612"/>
      <point x="439" y="606"/>
      <point x="439" y="600" type="curve" smooth="yes"/>
      <point x="439" y="588"/>
      <point x="466" y="568"/>
      <point x="466" y="538" type="curve" smooth="yes"/>
      <point x="466" y="522"/>
      <point x="454" y="505"/>
      <point x="423" y="505" type="curve" smooth="yes"/>
      <point x="400" y="505"/>
      <point x="390" y="511"/>
      <point x="367" y="518" type="curve" smooth="yes"/>
      <point x="343" y="525"/>
      <point x="316" y="529"/>
      <point x="287" y="529" type="curve" smooth="yes"/>
      <point x="138" y="529"/>
      <point x="55" y="432"/>
      <point x="55" y="259" type="curve" smooth="yes"/>
      <point x="55" y="87"/>
      <point x="136" y="-6"/>
    </contour>
    <contour>
      <point x="284" y="66" type="curve" smooth="yes"/>
      <point x="186" y="66"/>
      <point x="143" y="128"/>
      <point x="143" y="261" type="curve" smooth="yes"/>
      <point x="143" y="395"/>
      <point x="187" y="457"/>
      <point x="284" y="457" type="curve" smooth="yes"/>
      <point x="382" y="457"/>
      <point x="427" y="394"/>
      <point x="427" y="261" type="curve" smooth="yes"/>
      <point x="427" y="128"/>
      <point x="382" y="66"/>
    </contour>
  </outline>
</glyph>
<glyph name="Uhorn" format="2">
  <advance width="712"/>
  <unicode hex="01AF"/>
  <anchor x="357" y="0" name="bottom"/>
  <anchor x="501" y="22" name="ogonek"/>
  <anchor x="356" y="700" name="top"/>
  <outline>
    <contour>
      <point x="737" y="759" type="curve" smooth="yes"/>
      <point x="737" y="788"/>
      <point x="715" y="833"/>
      <point x="689" y="833" type="curve" smooth="yes"/>
      <point x="685" y="833"/>
      <point x="681" y="832"/>
      <point x="677" y="829" type="curve"/>
      <point x="653" y="813" type="line" smooth="yes"/>
      <point x="647" y="809"/>
      <point x="644" y="803"/>
      <point x="644" y="797" type="curve" smooth="yes"/>
      <point x="644" y="785"/>
      <point x="671" y="765"/>
      <point x="671" y="735" type="curve" smooth="yes"/>
      <point x="671" y="719"/>
      <point x="659" y="702"/>
      <point x="616" y="702" type="curve" smooth="yes"/>
      <point x="581" y="702" type="line" smooth="yes"/>
      <point x="553" y="702"/>
      <point x="541" y="694"/>
      <point x="541" y="680" type="curve" smooth="yes"/>
      <point x="541" y="221" type="line" smooth="yes"/>
      <point x="541" y="133"/>
      <point x="463" y="70"/>
      <point x="356" y="70" type="curve" smooth="yes"/>
      <point x="250" y="70"/>
      <point x="171" y="132"/>
      <point x="171" y="221" type="curve" smooth="yes"/>
      <point x="171" y="680" type="line" smooth="yes"/>
      <point x="171" y="694"/>
      <point x="159" y="702"/>
      <point x="131" y="702" type="curve" smooth="yes"/>
      <point x="123" y="702" type="line" smooth="yes"/>
      <point x="95" y="702"/>
      <point x="83" y="694"/>
      <point x="83" y="680" type="curve" smooth="yes"/>
      <point x="83" y="224" type="line" smooth="yes"/>
      <point x="83" y="80"/>
      <point x="179" y="-6"/>
      <point x="356" y="-6" type="curve" smooth="yes"/>
      <point x="532" y="-6"/>
      <point x="629" y="80"/>
      <point x="629" y="224" type="curve" smooth="yes"/>
      <point x="629" y="666" type="line"/>
      <point x="703" y="669"/>
      <point x="737" y="706"/>
    </contour>
  </outline>
</glyph>
<glyph name="LJ" format="2">
  <advance width="725"/>
  <unicode hex="01C7"/>
  <outline>
    <contour>
      <point x="428" y="-156" type="curve" smooth="yes"/>
      <point x="582" y="-156"/>
      <point x="640" y="-71"/>
      <point x="640" y="55" type="curve" smooth="yes"/>
      <point x="640" y="680" type="line" smooth="yes"/>
      <point x="640" y="694"/>
      <point x="628" y="702"/>
      <point x="600" y="702" type="curve" smooth="yes"/>
      <point x="592" y="702" type="line" smooth="yes"/>
      <point x="564" y="702"/>
      <point x="552" y="694"/>
      <point x="552" y="680" type="curve" smooth="yes"/>
      <point x="552" y="45" type="line" smooth="yes"/>
      <point x="552" y="-41"/>
      <point x="511" y="-78"/>
      <point x="412" y="-78" type="curve" smooth="yes"/>
      <point x="380" y="-78"/>
      <point x="357" y="-69"/>
      <point x="349" y="-69" type="curve" smooth="yes"/>
      <point x="333" y="-69"/>
      <point x="327" y="-120"/>
      <point x="327" y="-124" type="curve" smooth="yes"/>
      <point x="327" y="-151"/>
      <point x="390" y="-156"/>
    </contour>
    <contour>
      <point x="127" y="0" type="curve" smooth="yes"/>
      <point x="390" y="0" type="line" smooth="yes"/>
      <point x="404" y="0"/>
      <point x="410" y="9"/>
      <point x="410" y="30" type="curve" smooth="yes"/>
      <point x="410" y="46" type="line" smooth="yes"/>
      <point x="410" y="67"/>
      <point x="404" y="76"/>
      <point x="390" y="76" type="curve" smooth="yes"/>
      <point x="185" y="76" type="line"/>
      <point x="185" y="680" type="line" smooth="yes"/>
      <point x="185" y="694"/>
      <point x="173" y="702"/>
      <point x="145" y="702" type="curve" smooth="yes"/>
      <point x="137" y="702" type="line" smooth="yes"/>
      <point x="109" y="702"/>
      <point x="97" y="694"/>
      <point x="97" y="680" type="curve" smooth="yes"/>
      <point x="97" y="30" type="line" smooth="yes"/>
      <point x="97" y="9"/>
      <point x="106" y="0"/>
    </contour>
  </outline>
</glyph>
<glyph name="Aringacute" format="2">
  <advance width="613"/>
  <unicode hex="01FA"/>
  <outline>
    <contour>
      <point x="55" y="-2" type="curve" smooth="yes"/>
      <point x="60" y="-2" type="line" smooth="yes"/>
      <point x="80" y="-2"/>
      <point x="96" y="2"/>
      <point x="100" y="14" type="curve" smooth="yes"/>
      <point x="157" y="178" type="line"/>
      <point x="451" y="178" type="line"/>
      <point x="510" y="14" type="line" smooth="yes"/>
      <point x="514" y="2"/>
      <point x="530" y="-2"/>
      <point x="550" y="-2" type="curve" smooth="yes"/>
      <point x="558" y="-2" type="line" smooth="yes"/>
      <point x="588" y="-2"/>
      <point x="601" y="5"/>
      <point x="601" y="15" type="curve" smooth="yes"/>
      <point x="601" y="19"/>
      <point x="600" y="23"/>
      <point x="598" y="28" type="curve" smooth="yes"/>
      <point x="369" y="665" type="line" smooth="yes"/>
      <point x="363" y="681"/>
      <point x="337" y="655"/>
      <point x="321" y="655" type="curve" smooth="yes"/>
      <point x="292" y="655" type="line" smooth="yes"/>
      <point x="276" y="655"/>
      <point x="252" y="683"/>
      <point x="244" y="665" type="curve" smooth="yes"/>
      <point x="15" y="29" type="line" smooth="yes"/>
      <point x="13" y="23"/>
      <point x="12" y="19"/>
      <point x="12" y="15" type="curve" smooth="yes"/>
      <point x="12" y="4"/>
      <point x="25" y="-2"/>
    </contour>
    <contour>
      <point x="185" y="254" type="line"/>
      <point x="290" y="552" type="line" smooth="yes"/>
      <point x="297" y="571"/>
      <point x="301" y="591"/>
      <point x="305" y="610" type="curve"/>
      <point x="307" y="610" type="line"/>
      <point x="310" y="591"/>
      <point x="313" y="570"/>
      <point x="319" y="552" type="curve" smooth="yes"/>
      <point x="424" y="254" type="line"/>
    </contour>
    <component base="ringcomb.case" xOffset="221" yOffset="70"/>
    <component base="acutecomb.case" xOffset="239" yOffset="241"/>
  </outline>
</glyph>
<glyph name="schwa" format="2">
  <advance width="539"/>
  <unicode hex="0259"/>
  <anchor x="264" y="0" name="bottom"/>
  <anchor x="347" y="0" name="ogonek"/>
  <anchor x="269" y="523" name="top"/>
  <outline>
    <contour>
      <point x="239" y="529" type="curve" smooth="yes"/>
      <point x="138" y="529"/>
      <point x="59" y="489"/>
      <point x="59" y="465" type="curve" smooth="yes"/>
      <point x="59" y="454"/>
      <point x="80" y="415"/>
      <point x="94" y="415" type="curve" smooth="yes"/>
      <point x="104" y="415"/>
      <point x="153" y="457"/>
      <point x="240" y="457" type="curve" smooth="yes"/>
      <point x="339" y="457"/>
      <point x="386" y="407"/>
      <point x="394" y="296" type="curve"/>
      <point x="78" y="296" type="line" smooth="yes"/>
      <point x="66" y="296"/>
      <point x="45" y="267"/>
      <point x="45" y="255" type="curve" smooth="yes"/>
      <point x="45" y="85"/>
      <point x="114" y="-6"/>
      <point x="251" y="-6" type="curve" smooth="yes"/>
      <point x="404" y="-6"/>
      <point x="484" y="88"/>
      <point x="484" y="265" type="curve" smooth="yes"/>
      <point x="484" y="444"/>
      <point x="405" y="529"/>
    </contour>
    <contour>
      <point x="394" y="224" type="line"/>
      <point x="387" y="119"/>
      <point x="341" y="66"/>
      <point x="254" y="66" type="curve" smooth="yes"/>
      <point x="174" y="66"/>
      <point x="134" y="119"/>
      <point x="134" y="224" type="curve"/>
    </contour>
  </outline>
</glyph>
<glyph name="nhookleft" format="2">
  <advance width="557"/>
  <unicode hex="0272"/>
  <outline>
    <contour>
      <point x="41" y="-212" type="curve" smooth="yes"/>
      <point x="91" y="-212"/>
      <point x="170" y="-190"/>
      <point x="170" y="-74" type="curve" smooth="yes"/>
      <point x="170" y="386" type="line"/>
      <point x="203" y="429"/>
      <point x="251" y="456"/>
      <point x="296" y="456" type="curve" smooth="yes"/>
      <point x="361" y="456"/>
      <point x="398" y="420"/>
      <point x="398" y="359" type="curve" smooth="yes"/>
      <point x="398" y="20" type="line" smooth="yes"/>
      <point x="398" y="6"/>
      <point x="410" y="-2"/>
      <point x="438" y="-2" type="curve" smooth="yes"/>
      <point x="442" y="-2" type="line" smooth="yes"/>
      <point x="470" y="-2"/>
      <point x="482" y="6"/>
      <point x="482" y="20" type="curve" smooth="yes"/>
      <point x="482" y="367" type="line" smooth="yes"/>
      <point x="482" y="468"/>
      <point x="421" y="529"/>
      <point x="319" y="529" type="curve" smooth="yes"/>
      <point x="263" y="529"/>
      <point x="205" y="501"/>
      <point x="163" y="454" type="curve"/>
      <point x="157" y="480"/>
      <point x="152" y="520"/>
      <point x="128" y="520" type="curve" smooth="yes"/>
      <point x="115" y="520"/>
      <point x="74" y="516"/>
      <point x="74" y="497" type="curve" smooth="yes"/>
      <point x="74" y="492"/>
      <point x="86" y="453"/>
      <point x="86" y="371" type="curve" smooth="yes"/>
      <point x="86" y="-66" type="line" smooth="yes"/>
      <point x="86" y="-126"/>
      <point x="61" y="-140"/>
      <point x="32" y="-140" type="curve" smooth="yes"/>
      <point x="3" y="-140"/>
      <point x="-2" y="-135"/>
      <point x="-11" y="-135" type="curve" smooth="yes"/>
      <point x="-25" y="-135"/>
      <point x="-32" y="-174"/>
      <point x="-32" y="-182" type="curve" smooth="yes"/>
      <point x="-32" y="-209"/>
      <point x="14" y="-212"/>
    </contour>
  </outline>
</glyph>
<glyph name="primemod" format="2">
  <advance width="110"/>
  <unicode hex="02B9"/>
  <outline>
    <contour>
      <point x="16" y="492" type="curve" smooth="yes"/>
      <point x="20" y="492" type="line" smooth="yes"/>
      <point x="31" y="492"/>
      <point x="38" y="495"/>
      <point x="41" y="503" type="curve" smooth="yes"/>
      <point x="108" y="718" type="line" smooth="yes"/>
      <point x="109" y="722"/>
      <point x="110" y="726"/>
      <point x="110" y="729" type="curve" smooth="yes"/>
      <point x="110" y="745"/>
      <point x="97" y="752"/>
      <point x="74" y="752" type="curve" smooth="yes"/>
      <point x="63" y="752" type="line" smooth="yes"/>
      <point x="35" y="752"/>
      <point x="24" y="747"/>
      <point x="22" y="730" type="curve" smooth="yes"/>
      <point x="8" y="589"/>
      <point x="0" y="514"/>
      <point x="0" y="505" type="curve" smooth="yes"/>
      <point x="0" y="497"/>
      <point x="6" y="492"/>
    </contour>
  </outline>
</glyph>
<glyph name="circumflex" format="2">
  <advance width="242"/>
  <unicode hex="02C6"/>
  <outline>
    <contour>
      <point x="22" y="576" type="curve" smooth="yes"/>
      <point x="45" y="576"/>
      <point x="55" y="580"/>
      <point x="72" y="600" type="curve" smooth="yes"/>
      <point x="122" y="661" type="line"/>
      <point x="172" y="600" type="line" smooth="yes"/>
      <point x="189" y="579"/>
      <point x="198" y="576"/>
      <point x="220" y="576" type="curve" smooth="yes"/>
      <point x="235" y="576"/>
      <point x="242" y="581"/>
      <point x="242" y="589" type="curve" smooth="yes"/>
      <point x="242" y="595"/>
      <point x="237" y="604"/>
      <point x="231" y="616" type="curve" smooth="yes"/>
      <point x="191" y="692" type="line" smooth="yes"/>
      <point x="182" y="709"/>
      <point x="171" y="718"/>
      <point x="129" y="718" type="curve" smooth="yes"/>
      <point x="113" y="718" type="line" smooth="yes"/>
      <point x="71" y="718"/>
      <point x="60" y="709"/>
      <point x="51" y="692" type="curve" smooth="yes"/>
      <point x="11" y="616" type="line" smooth="yes"/>
      <point x="5" y="604"/>
      <point x="0" y="595"/>
      <point x="0" y="589" type="curve" smooth="yes"/>
      <point x="0" y="581"/>
      <point x="7" y="576"/>
    </contour>
  </outline>
</glyph>
<glyph name="caron" format="2">
  <advance width="242"/>
  <unicode hex="02C7"/>
  <outline>
    <contour>
      <point x="113" y="576" type="curve" smooth="yes"/>
      <point x="129" y="576" type="line" smooth="yes"/>
      <point x="171" y="576"/>
      <point x="182" y="585"/>
      <point x="191" y="602" type="curve" smooth="yes"/>
      <point x="231" y="678" type="line" smooth="yes"/>
      <point x="237" y="690"/>
      <point x="242" y="699"/>
      <point x="242" y="705" type="curve" smooth="yes"/>
      <point x="242" y="713"/>
      <point x="235" y="718"/>
      <point x="220" y="718" type="curve" smooth="yes"/>
      <point x="197" y="718"/>
      <point x="189" y="715"/>
      <point x="172" y="694" type="curve" smooth="yes"/>
      <point x="122" y="633" type="line"/>
      <point x="72" y="694" type="line" smooth="yes"/>
      <point x="55" y="714"/>
      <point x="45" y="718"/>
      <point x="22" y="718" type="curve" smooth="yes"/>
      <point x="7" y="718"/>
      <point x="0" y="713"/>
      <point x="0" y="705" type="curve" smooth="yes"/>
      <point x="0" y="699"/>
      <point x="5" y="690"/>
      <point x="11" y="678" type="curve" smooth="yes"/>
      <point x="51" y="602" type="line" smooth="yes"/>
      <point x="60" y="585"/>
      <point x="71" y="576"/>
    </contour>
  </outline>
</glyph>
<glyph name="breve" format="2">
  <advance width="269"/>
  <unicode hex="02D8"/>
  <outline>
    <contour>
      <point x="135" y="583" type="curve" smooth="yes"/>
      <point x="210" y="583"/>
      <point x="269" y="621"/>
      <point x="269" y="688" type="curve" smooth="yes"/>
      <point x="269" y="708"/>
      <point x="264" y="713"/>
      <point x="251" y="713" type="curve" smooth="yes"/>
      <point x="241" y="713"/>
      <point x="235" y="711"/>
      <point x="232" y="701" type="curve" smooth="yes"/>
      <point x="225" y="676"/>
      <point x="213" y="649"/>
      <point x="135" y="649" type="curve" smooth="yes"/>
      <point x="56" y="649"/>
      <point x="44" y="676"/>
      <point x="37" y="701" type="curve" smooth="yes"/>
      <point x="34" y="711"/>
      <point x="28" y="713"/>
      <point x="18" y="713" type="curve" smooth="yes"/>
      <point x="5" y="713"/>
      <point x="0" y="708"/>
      <point x="0" y="688" type="curve" smooth="yes"/>
      <point x="0" y="621"/>
      <point x="63" y="583"/>
    </contour>
  </outline>
</glyph>
<glyph name="dotaccent" format="2">
  <advance width="88"/>
  <unicode hex="02D9"/>
  <outline>
    <contour>
      <point x="44" y="595" type="curve" smooth="yes"/>
      <point x="76" y="595"/>
      <point x="88" y="604"/>
      <point x="88" y="617" type="curve" smooth="yes"/>
      <point x="88" y="677" type="line" smooth="yes"/>
      <point x="88" y="691"/>
      <point x="76" y="699"/>
      <point x="44" y="699" type="curve" smooth="yes"/>
      <point x="12" y="699"/>
      <point x="0" y="690"/>
      <point x="0" y="677" type="curve" smooth="yes"/>
      <point x="0" y="617" type="line" smooth="yes"/>
      <point x="0" y="603"/>
      <point x="12" y="595"/>
    </contour>
  </outline>
</glyph>
<glyph name="ring" format="2">
  <advance width="169"/>
  <unicode hex="02DA"/>
  <outline>
    <contour>
      <point x="84" y="570" type="curve" smooth="yes"/>
      <point x="132" y="570"/>
      <point x="169" y="606"/>
      <point x="169" y="654" type="curve" smooth="yes"/>
      <point x="169" y="702"/>
      <point x="132" y="739"/>
      <point x="84" y="739" type="curve" smooth="yes"/>
      <point x="36" y="739"/>
      <point x="0" y="702"/>
      <point x="0" y="654" type="curve" smooth="yes"/>
      <point x="0" y="606"/>
      <point x="36" y="570"/>
    </contour>
    <contour>
      <point x="84" y="618" type="curve" smooth="yes"/>
      <point x="64" y="618"/>
      <point x="48" y="634"/>
      <point x="48" y="654" type="curve" smooth="yes"/>
      <point x="48" y="675"/>
      <point x="64" y="691"/>
      <point x="84" y="691" type="curve" smooth="yes"/>
      <point x="105" y="691"/>
      <point x="121" y="675"/>
      <point x="121" y="654" type="curve" smooth="yes"/>
      <point x="121" y="634"/>
      <point x="105" y="618"/>
    </contour>
  </outline>
</glyph>
<glyph name="ogonek" format="2">
  <advance width="185"/>
  <unicode hex="02DB"/>
  <outline>
    <contour>
      <point x="103" y="-183" type="curve" smooth="yes"/>
      <point x="132" y="-183"/>
      <point x="185" y="-173"/>
      <point x="185" y="-142" type="curve" smooth="yes"/>
      <point x="185" y="-120"/>
      <point x="175" y="-103"/>
      <point x="162" y="-103" type="curve" smooth="yes"/>
      <point x="146" y="-103"/>
      <point x="137" y="-113"/>
      <point x="110" y="-113" type="curve" smooth="yes"/>
      <point x="84" y="-113"/>
      <point x="71" y="-101"/>
      <point x="71" y="-83" type="curve" smooth="yes"/>
      <point x="71" y="-56"/>
      <point x="96" y="-16"/>
      <point x="144" y="10" type="curve"/>
      <point x="94" y="17" type="line"/>
      <point x="31" y="-10"/>
      <point x="0" y="-60"/>
      <point x="0" y="-103" type="curve" smooth="yes"/>
      <point x="0" y="-146"/>
      <point x="35" y="-183"/>
    </contour>
  </outline>
</glyph>
<glyph name="tilde" format="2">
  <advance width="333"/>
  <unicode hex="02DC"/>
  <outline>
    <contour>
      <point x="31" y="592" type="curve" smooth="yes"/>
      <point x="48" y="592"/>
      <point x="53" y="631"/>
      <point x="90" y="631" type="curve" smooth="yes"/>
      <point x="130" y="631"/>
      <point x="186" y="593"/>
      <point x="237" y="593" type="curve" smooth="yes"/>
      <point x="277" y="593"/>
      <point x="305" y="612"/>
      <point x="329" y="661" type="curve" smooth="yes"/>
      <point x="332" y="667"/>
      <point x="333" y="671"/>
      <point x="333" y="675" type="curve" smooth="yes"/>
      <point x="333" y="684"/>
      <point x="309" y="694"/>
      <point x="301" y="694" type="curve" smooth="yes"/>
      <point x="285" y="694"/>
      <point x="280" y="654"/>
      <point x="240" y="654" type="curve" smooth="yes"/>
      <point x="192" y="654"/>
      <point x="144" y="692"/>
      <point x="96" y="692" type="curve" smooth="yes"/>
      <point x="55" y="692"/>
      <point x="24" y="675"/>
      <point x="3" y="623" type="curve" smooth="yes"/>
      <point x="1" y="618"/>
      <point x="0" y="614"/>
      <point x="0" y="610" type="curve" smooth="yes"/>
      <point x="0" y="599"/>
      <point x="22" y="592"/>
    </contour>
  </outline>
</glyph>
<glyph name="hookabovecomb" format="2">
  <unicode hex="0309"/>
  <anchor x="83" y="523" name="_top"/>
  <anchor x="84" y="700" name="top"/>
  <outline>
    <contour>
      <point x="76" y="563" type="curve" smooth="yes"/>
      <point x="92" y="563"/>
      <point x="169" y="613"/>
      <point x="169" y="679" type="curve" smooth="yes"/>
      <point x="169" y="734"/>
      <point x="112" y="750"/>
      <point x="78" y="750" type="curve" smooth="yes"/>
      <point x="43" y="750"/>
      <point x="0" y="732"/>
      <point x="0" y="719" type="curve" smooth="yes"/>
      <point x="0" y="709"/>
      <point x="16" y="686"/>
      <point x="24" y="686" type="curve" smooth="yes"/>
      <point x="29" y="686"/>
      <point x="39" y="699"/>
      <point x="70" y="699" type="curve" smooth="yes"/>
      <point x="90" y="699"/>
      <point x="107" y="690"/>
      <point x="107" y="672" type="curve" smooth="yes"/>
      <point x="107" y="622"/>
      <point x="45" y="602"/>
      <point x="45" y="583" type="curve" smooth="yes"/>
      <point x="45" y="574"/>
      <point x="66" y="563"/>
    </contour>
  </outline>
</glyph>
<glyph name="commaturnedabovecomb" format="2">
  <unicode hex="0312"/>
  <anchor x="49" y="523" name="_top"/>
  <anchor x="49" y="755" name="top"/>
  <outline>
    <contour>
      <point x="40" y="607" type="curve" smooth="yes"/>
      <point x="49" y="607" type="line" smooth="yes"/>
      <point x="76" y="607"/>
      <point x="89" y="620"/>
      <point x="89" y="639" type="curve" smooth="yes"/>
      <point x="89" y="715"/>
      <point x="132" y="753"/>
      <point x="132" y="776" type="curve" smooth="yes"/>
      <point x="132" y="788"/>
      <point x="114" y="791"/>
      <point x="103" y="791" type="curve" smooth="yes"/>
      <point x="70" y="791"/>
      <point x="0" y="731"/>
      <point x="0" y="635" type="curve" smooth="yes"/>
      <point x="0" y="618"/>
      <point x="15" y="607"/>
    </contour>
  </outline>
</glyph>
<glyph name="horncomb" format="2">
  <unicode hex="031B"/>
  <anchor x="0" y="523" name="_topright"/>
  <anchor x="0" y="635" name="topright"/>
  <outline>
    <contour>
      <point x="38" y="490" type="line"/>
      <point x="116" y="490"/>
      <point x="151" y="527"/>
      <point x="151" y="580" type="curve" smooth="yes"/>
      <point x="151" y="609"/>
      <point x="131" y="654"/>
      <point x="108" y="654" type="curve" smooth="yes"/>
      <point x="104" y="654"/>
      <point x="100" y="653"/>
      <point x="96" y="650" type="curve" smooth="yes"/>
      <point x="72" y="634" type="line" smooth="yes"/>
      <point x="66" y="630"/>
      <point x="63" y="624"/>
      <point x="63" y="618" type="curve" smooth="yes"/>
      <point x="63" y="606"/>
      <point x="90" y="586"/>
      <point x="90" y="556" type="curve" smooth="yes"/>
      <point x="90" y="540"/>
      <point x="78" y="523"/>
      <point x="35" y="523" type="curve"/>
      <point x="0" y="523" type="line"/>
    </contour>
  </outline>
</glyph>
<glyph name="dotbelowcomb" format="2">
  <unicode hex="0323"/>
  <anchor x="42" y="0" name="_bottom"/>
  <anchor x="42" y="-155" name="bottom"/>
  <outline>
    <contour>
      <point x="40" y="-175" type="curve"/>
      <point x="72" y="-175"/>
      <point x="84" y="-166"/>
      <point x="84" y="-153" type="curve" smooth="yes"/>
      <point x="84" y="-102" type="line" smooth="yes"/>
      <point x="84" y="-88"/>
      <point x="72" y="-80"/>
      <point x="44" y="-80" type="curve" smooth="yes"/>
      <point x="12" y="-80"/>
      <point x="0" y="-89"/>
      <point x="0" y="-102" type="curve" smooth="yes"/>
      <point x="0" y="-153" type="line" smooth="yes"/>
      <point x="0" y="-167"/>
      <point x="12" y="-175"/>
    </contour>
  </outline>
</glyph>
<glyph name="dieresisbelowcomb" format="2">
  <unicode hex="0324"/>
  <anchor x="114" y="0" name="_bottom"/>
  <anchor x="114" y="-155" name="bottom"/>
  <outline>
    <contour>
      <point x="40" y="-175" type="curve"/>
      <point x="72" y="-175"/>
      <point x="84" y="-166"/>
      <point x="84" y="-153" type="curve" smooth="yes"/>
      <point x="84" y="-102" type="line" smooth="yes"/>
      <point x="84" y="-88"/>
      <point x="72" y="-80"/>
      <point x="44" y="-80" type="curve" smooth="yes"/>
      <point x="12" y="-80"/>
      <point x="0" y="-89"/>
      <point x="0" y="-102" type="curve" smooth="yes"/>
      <point x="0" y="-153" type="line" smooth="yes"/>
      <point x="0" y="-167"/>
      <point x="12" y="-175"/>
    </contour>
    <contour>
      <point x="184" y="-175" type="curve"/>
      <point x="216" y="-175"/>
      <point x="228" y="-166"/>
      <point x="228" y="-153" type="curve" smooth="yes"/>
      <point x="228" y="-102" type="line" smooth="yes"/>
      <point x="228" y="-88"/>
      <point x="216" y="-80"/>
      <point x="188" y="-80" type="curve" smooth="yes"/>
      <point x="156" y="-80"/>
      <point x="144" y="-89"/>
      <point x="144" y="-102" type="curve" smooth="yes"/>
      <point x="144" y="-153" type="line" smooth="yes"/>
      <point x="144" y="-167"/>
      <point x="156" y="-175"/>
    </contour>
  </outline>
</glyph>
<glyph name="commaaccentcomb" format="2">
  <unicode hex="0326"/>
  <anchor x="78" y="0" name="_bottom"/>
  <anchor x="78" y="-185" name="bottom"/>
  <outline>
    <contour>
      <point x="29" y="-235" type="curve" smooth="yes"/>
      <point x="62" y="-235"/>
      <point x="132" y="-175"/>
      <point x="132" y="-79" type="curve" smooth="yes"/>
      <point x="132" y="-62"/>
      <point x="117" y="-51"/>
      <point x="92" y="-51" type="curve" smooth="yes"/>
      <point x="83" y="-51" type="line" smooth="yes"/>
      <point x="56" y="-51"/>
      <point x="43" y="-64"/>
      <point x="43" y="-83" type="curve" smooth="yes"/>
      <point x="43" y="-159"/>
      <point x="0" y="-197"/>
      <point x="0" y="-220" type="curve" smooth="yes"/>
      <point x="0" y="-232"/>
      <point x="18" y="-235"/>
    </contour>
  </outline>
</glyph>
<glyph name="strokeshortcomb" format="2">
  <unicode hex="0335"/>
  <anchor x="300" y="291" name="_center"/>
  <outline>
    <contour>
      <point x="20" y="256" type="curve"/>
      <point x="580" y="256" type="line" smooth="yes"/>
      <point x="594" y="256"/>
      <point x="600" y="265"/>
      <point x="600" y="286" type="curve" smooth="yes"/>
      <point x="600" y="296" type="line" smooth="yes"/>
      <point x="600" y="317"/>
      <point x="594" y="326"/>
      <point x="580" y="326" type="curve" smooth="yes"/>
      <point x="20" y="326" type="line" smooth="yes"/>
      <point x="6" y="326"/>
      <point x="0" y="317"/>
      <point x="0" y="296" type="curve" smooth="yes"/>
      <point x="0" y="286" type="line" smooth="yes"/>
      <point x="0" y="265"/>
      <point x="6" y="256"/>
    </contour>
  </outline>
</glyph>
<glyph name="Delta" format="2">
  <advance width="708"/>
  <unicode hex="0394"/>
  <outline>
    <contour>
      <point x="64" y="0" type="curve" smooth="yes"/>
      <point x="643" y="0" type="line" smooth="yes"/>
      <point x="663" y="0"/>
      <point x="673" y="11"/>
      <point x="673" y="30" type="curve" smooth="yes"/>
      <point x="673" y="33" type="line" smooth="yes"/>
      <point x="673" y="45"/>
      <point x="670" y="55"/>
      <point x="665" y="67" type="curve" smooth="yes"/>
      <point x="402" y="687" type="line" smooth="yes"/>
      <point x="395" y="703"/>
      <point x="384" y="710"/>
      <point x="367" y="710" type="curve" smooth="yes"/>
      <point x="341" y="710" type="line" smooth="yes"/>
      <point x="324" y="710"/>
      <point x="313" y="703"/>
      <point x="306" y="687" type="curve" smooth="yes"/>
      <point x="42" y="67" type="line" smooth="yes"/>
      <point x="36" y="53"/>
      <point x="34" y="44"/>
      <point x="34" y="30" type="curve" smooth="yes"/>
      <point x="34" y="28" type="line" smooth="yes"/>
      <point x="34" y="10"/>
      <point x="46" y="0"/>
    </contour>
    <contour>
      <point x="122" y="72" type="line"/>
      <point x="351" y="613" type="line"/>
      <point x="356" y="613" type="line"/>
      <point x="583" y="72" type="line"/>
    </contour>
  </outline>
</glyph>
<glyph name="Omega" format="2">
  <advance width="731"/>
  <unicode hex="03A9"/>
  <anchor x="20" y="700" name="topleft"/>
  <outline>
    <contour>
      <point x="61" y="0" type="curve" smooth="yes"/>
      <point x="298" y="0" type="line" smooth="yes"/>
      <point x="312" y="0"/>
      <point x="318" y="9"/>
      <point x="318" y="30" type="curve" smooth="yes"/>
      <point x="318" y="34" type="line" smooth="yes"/>
      <point x="318" y="44"/>
      <point x="317" y="50"/>
      <point x="311" y="52" type="curve" smooth="yes"/>
      <point x="203" y="88"/>
      <point x="148" y="175"/>
      <point x="148" y="352" type="curve" smooth="yes"/>
      <point x="148" y="536"/>
      <point x="224" y="630"/>
      <point x="365" y="630" type="curve" smooth="yes"/>
      <point x="506" y="630"/>
      <point x="583" y="536"/>
      <point x="583" y="352" type="curve" smooth="yes"/>
      <point x="583" y="175"/>
      <point x="527" y="88"/>
      <point x="419" y="52" type="curve" smooth="yes"/>
      <point x="413" y="50"/>
      <point x="412" y="44"/>
      <point x="412" y="34" type="curve" smooth="yes"/>
      <point x="412" y="30" type="line" smooth="yes"/>
      <point x="412" y="9"/>
      <point x="418" y="0"/>
      <point x="432" y="0" type="curve" smooth="yes"/>
      <point x="669" y="0" type="line" smooth="yes"/>
      <point x="683" y="0"/>
      <point x="689" y="9"/>
      <point x="689" y="30" type="curve" smooth="yes"/>
      <point x="689" y="38" type="line" smooth="yes"/>
      <point x="689" y="59"/>
      <point x="683" y="68"/>
      <point x="669" y="68" type="curve" smooth="yes"/>
      <point x="647" y="68"/>
      <point x="604" y="65"/>
      <point x="572" y="64" type="curve"/>
      <point x="640" y="126"/>
      <point x="674" y="222"/>
      <point x="674" y="352" type="curve" smooth="yes"/>
      <point x="674" y="586"/>
      <point x="566" y="706"/>
      <point x="365" y="706" type="curve" smooth="yes"/>
      <point x="165" y="706"/>
      <point x="57" y="586"/>
      <point x="57" y="352" type="curve" smooth="yes"/>
      <point x="57" y="222"/>
      <point x="91" y="126"/>
      <point x="158" y="64" type="curve"/>
      <point x="126" y="65"/>
      <point x="83" y="68"/>
      <point x="61" y="68" type="curve" smooth="yes"/>
      <point x="47" y="68"/>
      <point x="41" y="59"/>
      <point x="41" y="38" type="curve" smooth="yes"/>
      <point x="41" y="30" type="line" smooth="yes"/>
      <point x="41" y="9"/>
      <point x="47" y="0"/>
    </contour>
  </outline>
</glyph>
<glyph name="mu" format="2">
  <advance width="566"/>
  <unicode hex="03BC"/>
  <outline>
    <contour>
      <point x="125" y="-208" type="curve" smooth="yes"/>
      <point x="129" y="-208" type="line" smooth="yes"/>
      <point x="157" y="-208"/>
      <point x="169" y="-200"/>
      <point x="169" y="-186" type="curve" smooth="yes"/>
      <point x="169" y="-88"/>
      <point x="165" y="-37"/>
      <point x="149" y="47" type="curve"/>
      <point x="140" y="28" type="line"/>
      <point x="166" y="8"/>
      <point x="205" y="-6"/>
      <point x="248" y="-6" type="curve" smooth="yes"/>
      <point x="304" y="-6"/>
      <point x="362" y="22"/>
      <point x="404" y="69" type="curve"/>
      <point x="410" y="41"/>
      <point x="415" y="-1"/>
      <point x="439" y="-1" type="curve" smooth="yes"/>
      <point x="452" y="-1"/>
      <point x="493" y="3"/>
      <point x="493" y="22" type="curve" smooth="yes"/>
      <point x="493" y="27"/>
      <point x="481" y="66"/>
      <point x="481" y="148" type="curve" smooth="yes"/>
      <point x="481" y="503" type="line" smooth="yes"/>
      <point x="481" y="517"/>
      <point x="469" y="525"/>
      <point x="441" y="525" type="curve" smooth="yes"/>
      <point x="437" y="525" type="line" smooth="yes"/>
      <point x="409" y="525"/>
      <point x="397" y="517"/>
      <point x="397" y="503" type="curve" smooth="yes"/>
      <point x="397" y="137" type="line"/>
      <point x="364" y="94"/>
      <point x="316" y="67"/>
      <point x="271" y="67" type="curve" smooth="yes"/>
      <point x="206" y="67"/>
      <point x="169" y="103"/>
      <point x="169" y="164" type="curve" smooth="yes"/>
      <point x="169" y="503" type="line" smooth="yes"/>
      <point x="169" y="517"/>
      <point x="157" y="525"/>
      <point x="129" y="525" type="curve" smooth="yes"/>
      <point x="125" y="525" type="line" smooth="yes"/>
      <point x="97" y="525"/>
      <point x="85" y="517"/>
      <point x="85" y="503" type="curve" smooth="yes"/>
      <point x="85" y="-186" type="line" smooth="yes"/>
      <point x="85" y="-200"/>
      <point x="97" y="-208"/>
    </contour>
  </outline>
</glyph>
<glyph name="pi" format="2">
  <advance width="616"/>
  <unicode hex="03C0"/>
  <outline>
    <contour>
      <point x="99" y="-2" type="curve" smooth="yes"/>
      <point x="122" y="-2" type="line" smooth="yes"/>
      <point x="139" y="-2"/>
      <point x="150" y="7"/>
      <point x="156" y="23" type="curve" smooth="yes"/>
      <point x="195" y="126"/>
      <point x="223" y="324"/>
      <point x="229" y="451" type="curve"/>
      <point x="424" y="451" type="line"/>
      <point x="424" y="136" type="line" smooth="yes"/>
      <point x="424" y="30"/>
      <point x="427" y="-2"/>
      <point x="477" y="-2" type="curve" smooth="yes"/>
      <point x="481" y="-2" type="line" smooth="yes"/>
      <point x="509" y="-2"/>
      <point x="517" y="8"/>
      <point x="517" y="23" type="curve" smooth="yes"/>
      <point x="517" y="38"/>
      <point x="508" y="86"/>
      <point x="508" y="154" type="curve" smooth="yes"/>
      <point x="508" y="451" type="line"/>
      <point x="563" y="451" type="line" smooth="yes"/>
      <point x="581" y="451"/>
      <point x="592" y="455"/>
      <point x="594" y="473" type="curve" smooth="yes"/>
      <point x="597" y="499"/>
      <point x="597" y="502"/>
      <point x="597" y="504" type="curve" smooth="yes"/>
      <point x="597" y="519"/>
      <point x="588" y="523"/>
      <point x="573" y="523" type="curve" smooth="yes"/>
      <point x="157" y="523" type="line" smooth="yes"/>
      <point x="80" y="523"/>
      <point x="19" y="513"/>
      <point x="19" y="476" type="curve" smooth="yes"/>
      <point x="19" y="456"/>
      <point x="26" y="442"/>
      <point x="39" y="442" type="curve" smooth="yes"/>
      <point x="57" y="442"/>
      <point x="67" y="451"/>
      <point x="145" y="451" type="curve"/>
      <point x="139" y="320"/>
      <point x="110" y="140"/>
      <point x="73" y="28" type="curve" smooth="yes"/>
      <point x="72" y="25"/>
      <point x="71" y="22"/>
      <point x="71" y="19" type="curve" smooth="yes"/>
      <point x="71" y="7"/>
      <point x="81" y="-2"/>
    </contour>
  </outline>
</glyph>
<glyph name="Germandbls" format="2">
  <advance width="700"/>
  <unicode hex="1E9E"/>
  <outline>
    <contour>
      <point x="432" y="-6" type="curve" smooth="yes"/>
      <point x="535" y="-6"/>
      <point x="665" y="49"/>
      <point x="665" y="203" type="curve" smooth="yes"/>
      <point x="665" y="324"/>
      <point x="584" y="383"/>
      <point x="471" y="401" type="curve"/>
      <point x="621" y="606" type="line"/>
      <point x="623" y="609"/>
      <point x="624" y="613"/>
      <point x="624" y="618" type="curve" smooth="yes"/>
      <point x="624" y="639"/>
      <point x="609" y="669"/>
      <point x="602" y="671" type="curve" smooth="yes"/>
      <point x="551" y="686"/>
      <point x="466" y="703"/>
      <point x="371" y="705" type="curve" smooth="yes"/>
      <point x="192" y="709"/>
      <point x="97" y="613"/>
      <point x="97" y="430" type="curve" smooth="yes"/>
      <point x="97" y="20" type="line" smooth="yes"/>
      <point x="97" y="6"/>
      <point x="109" y="-2"/>
      <point x="137" y="-2" type="curve" smooth="yes"/>
      <point x="145" y="-2" type="line" smooth="yes"/>
      <point x="173" y="-2"/>
      <point x="185" y="6"/>
      <point x="185" y="20" type="curve" smooth="yes"/>
      <point x="185" y="429" type="line" smooth="yes"/>
      <point x="185" y="570"/>
      <point x="245" y="630"/>
      <point x="373" y="630" type="curve" smooth="yes"/>
      <point x="434" y="630"/>
      <point x="481" y="620"/>
      <point x="514" y="609" type="curve"/>
      <point x="362" y="401" type="line"/>
      <point x="360" y="398"/>
      <point x="359" y="394"/>
      <point x="359" y="389" type="curve" smooth="yes"/>
      <point x="359" y="369"/>
      <point x="373" y="336"/>
      <point x="383" y="336" type="curve" smooth="yes"/>
      <point x="418" y="336" type="line" smooth="yes"/>
      <point x="514" y="336"/>
      <point x="578" y="306"/>
      <point x="578" y="204" type="curve" smooth="yes"/>
      <point x="578" y="95"/>
      <point x="488" y="66"/>
      <point x="424" y="66" type="curve" smooth="yes"/>
      <point x="353" y="66"/>
      <point x="338" y="101"/>
      <point x="296" y="101" type="curve" smooth="yes"/>
      <point x="285" y="101"/>
      <point x="261" y="70"/>
      <point x="261" y="51" type="curve" smooth="yes"/>
      <point x="261" y="26"/>
      <point x="333" y="-6"/>
    </contour>
  </outline>
</glyph>
<glyph name="endash" format="2">
  <advance width="500"/>
  <unicode hex="2013"/>
  <outline>
    <contour>
      <point x="75" y="230" type="curve"/>
      <point x="425" y="230" type="line" smooth="yes"/>
      <point x="439" y="230"/>
      <point x="445" y="239"/>
      <point x="445" y="260" type="curve" smooth="yes"/>
      <point x="445" y="270" type="line" smooth="yes"/>
      <point x="445" y="291"/>
      <point x="439" y="300"/>
      <point x="425" y="300" type="curve" smooth="yes"/>
      <point x="75" y="300" type="line" smooth="yes"/>
      <point x="61" y="300"/>
      <point x="55" y="291"/>
      <point x="55" y="270" type="curve" smooth="yes"/>
      <point x="55" y="260" type="line" smooth="yes"/>
      <point x="55" y="239"/>
      <point x="61" y="230"/>
    </contour>
  </outline>
</glyph>
